<svg width="14" height="14" viewBox="0 0 14 14" fill="none" xmlns="http://www.w3.org/2000/svg">
<g id="payments_FILL0_wght400_GRAD0_opsz48 2">
<path id="Vector" d="M7.87565 7.87565C7.38954 7.87565 6.97635 7.70551 6.63607 7.36523C6.29579 7.02496 6.12565 6.61176 6.12565 6.12565C6.12565 5.63954 6.29579 5.22635 6.63607 4.88607C6.97635 4.54579 7.38954 4.37565 7.87565 4.37565C8.36176 4.37565 8.77496 4.54579 9.11523 4.88607C9.45551 5.22635 9.62565 5.63954 9.62565 6.12565C9.62565 6.61176 9.45551 7.02496 9.11523 7.36523C8.77496 7.70551 8.36176 7.87565 7.87565 7.87565ZM3.20898 9.91732C2.96836 9.91732 2.76237 9.83164 2.59102 9.66029C2.41966 9.48893 2.33398 9.28294 2.33398 9.04232V3.20898C2.33398 2.96836 2.41966 2.76237 2.59102 2.59102C2.76237 2.41966 2.96836 2.33398 3.20898 2.33398H12.5423C12.7829 2.33398 12.9889 2.41966 13.1603 2.59102C13.3316 2.76237 13.4173 2.96836 13.4173 3.20898V9.04232C13.4173 9.28294 13.3316 9.48893 13.1603 9.66029C12.9889 9.83164 12.7829 9.91732 12.5423 9.91732H3.20898ZM4.66732 9.04232H11.084C11.084 8.63398 11.225 8.28885 11.5069 8.0069C11.7888 7.72496 12.134 7.58398 12.5423 7.58398V4.66732C12.134 4.66732 11.7888 4.52635 11.5069 4.2444C11.225 3.96246 11.084 3.61732 11.084 3.20898H4.66732C4.66732 3.61732 4.52635 3.96246 4.2444 4.2444C3.96246 4.52635 3.61732 4.66732 3.20898 4.66732V7.58398C3.61732 7.58398 3.96246 7.72496 4.2444 8.0069C4.52635 8.28885 4.66732 8.63398 4.66732 9.04232ZM11.6673 11.6673H1.45898C1.21836 11.6673 1.01237 11.5816 0.841016 11.4103C0.669661 11.2389 0.583984 11.0329 0.583984 10.7923V4.08398H1.45898V10.7923H11.6673V11.6673Z" fill="#576D8B" fill-opacity="0.8"/>
</g>
</svg>
