<svg width="40" height="40" viewBox="0 0 40 40" fill="none" xmlns="http://www.w3.org/2000/svg">
<rect width="40" height="40" rx="20" fill="#A4C0FF"/>
<rect x="4" y="4" width="32" height="32" rx="16" fill="#407BFF"/>
<path fill-rule="evenodd" clip-rule="evenodd" d="M21.2586 19.1977C21.767 19.556 22.392 19.7727 23.0586 19.7727C24.7753 19.7727 26.1753 18.3727 26.1753 16.6477C26.1753 14.931 24.7753 13.531 23.0586 13.531C22.5753 13.531 22.1253 13.6393 21.717 13.8393C22.1086 14.531 22.3336 15.331 22.3336 16.181C22.3336 17.3227 21.9336 18.3727 21.2586 19.1977Z" fill="white"/>
<path fill-rule="evenodd" clip-rule="evenodd" d="M17.5336 20.1477C18.8003 20.1477 19.9253 19.5477 20.6503 18.6227C21.1836 17.956 21.5003 17.106 21.5003 16.181C21.5003 15.4977 21.3253 14.856 21.0253 14.2977C20.3503 13.0643 19.042 12.2227 17.5336 12.2227C15.3503 12.2227 13.5753 13.9977 13.5753 16.181C13.5753 18.3643 15.3503 20.1477 17.5336 20.1477Z" fill="white"/>
<path fill-rule="evenodd" clip-rule="evenodd" d="M24.2112 25.3405C23.4743 23.3387 21.9444 21.9793 19.8548 21.4299C19.1738 21.2437 18.4182 21.1506 17.6159 21.1506H17.5693C14.211 21.1506 11.7669 22.7986 10.8527 25.6757L10.7407 26.0202L11.0579 26.2064C12.8303 27.2957 14.9572 27.8172 17.5413 27.8172H17.5879C20.2372 27.8265 22.3455 27.2957 24.1273 26.2064L24.4444 26.0202L24.3325 25.6757C24.2952 25.5639 24.2579 25.4522 24.2112 25.3405Z" fill="white"/>
<path fill-rule="evenodd" clip-rule="evenodd" d="M29.5155 23.9066C28.793 21.6831 26.8535 20.4099 24.1915 20.4099H24.1534C22.984 20.4099 21.9667 20.659 21.1111 21.1111C23.2597 21.8676 24.857 23.4269 25.5985 25.5951C27.0151 25.4474 28.2606 25.0599 29.3064 24.4418L29.6296 24.248L29.5155 23.9066Z" fill="white"/>
</svg>
