<svg width="16" height="16" viewBox="0 0 16 16" fill="none" xmlns="http://www.w3.org/2000/svg">
<path fill-rule="evenodd" clip-rule="evenodd" d="M2 6.9446C2 4.81288 2 3.74702 2.25168 3.38844C2.50335 3.02986 3.50555 2.6868 5.50994 2.00069L5.89182 1.86997C6.93666 1.51232 7.45907 1.3335 8 1.3335C8.54093 1.3335 9.06335 1.51232 10.1082 1.86997L10.4901 2.00069C12.4945 2.6868 13.4966 3.02986 13.7483 3.38844C14 3.74702 14 4.81288 14 6.9446V7.9944C14 11.7531 11.174 13.5772 9.40096 14.3517C8.91999 14.5618 8.67951 14.6668 8 14.6668C7.32049 14.6668 7.08001 14.5618 6.59904 14.3517C4.82597 13.5772 2 11.7531 2 7.9944V6.9446ZM9.33333 6.00016C9.33333 6.73654 8.73638 7.3335 8 7.3335C7.26362 7.3335 6.66667 6.73654 6.66667 6.00016C6.66667 5.26378 7.26362 4.66683 8 4.66683C8.73638 4.66683 9.33333 5.26378 9.33333 6.00016ZM8 11.3335C10.6667 11.3335 10.6667 10.7365 10.6667 10.0002C10.6667 9.26378 9.47276 8.66683 8 8.66683C6.52724 8.66683 5.33333 9.26378 5.33333 10.0002C5.33333 10.7365 5.33333 11.3335 8 11.3335Z" fill="#E5007A"/>
</svg>
