<svg width="36" height="36" viewBox="0 0 36 36" fill="none" xmlns="http://www.w3.org/2000/svg">
<g id="icons">
<rect width="36" height="36" rx="4" fill="#F3F4F6"/>
<rect width="36" height="36" rx="4" fill="#FEF2F8"/>
<g id="Group">
<path id="Vector" d="M18 16.875C20.4853 16.875 22.5 14.8603 22.5 12.375C22.5 9.88972 20.4853 7.875 18 7.875C15.5147 7.875 13.5 9.88972 13.5 12.375C13.5 14.8603 15.5147 16.875 18 16.875Z" fill="#E5007A"/>
<path id="Vector_2" d="M12.3759 12.3757C12.3759 10.9638 12.899 9.6757 13.7596 8.6857C13.4952 8.62945 13.2196 8.5957 12.9384 8.5957C10.8009 8.5957 9.06836 10.3282 9.06836 12.4657C9.06836 14.6032 10.8009 16.3357 12.9384 16.3357C13.2702 16.3357 13.5852 16.2907 13.889 16.212C12.9552 15.2051 12.3759 13.8607 12.3759 12.3757Z" fill="#F280BD"/>
<path id="Vector_3" d="M23.062 8.5957C22.7807 8.5957 22.5051 8.62945 22.2407 8.6857C23.1013 9.6757 23.6245 10.9638 23.6245 12.3757C23.6245 13.8607 23.0451 15.2051 22.1113 16.2063C22.4151 16.2851 22.7357 16.3301 23.062 16.3301C25.1995 16.3301 26.932 14.5976 26.932 12.4601C26.932 10.3282 25.1995 8.5957 23.062 8.5957Z" fill="#F280BD"/>
<path id="Vector_4" d="M18 27C22.3492 27 25.875 24.9853 25.875 22.5C25.875 20.0147 22.3492 18 18 18C13.6508 18 10.125 20.0147 10.125 22.5C10.125 24.9853 13.6508 27 18 27Z" fill="#E5007A"/>
<path id="Vector_5" d="M9 22.5C9 20.1938 11.6494 18.2475 15.3056 17.5894C14.5744 17.3981 13.7756 17.2969 12.9375 17.2969C9.5175 17.2969 6.75 19.0294 6.75 21.1669C6.75 22.5506 7.92 23.7656 9.66937 24.4462C9.24187 23.8444 9 23.1863 9 22.5Z" fill="#F280BD"/>
<path id="Vector_6" d="M23.0634 17.2969C22.2253 17.2969 21.4266 17.4038 20.6953 17.5894C24.3516 18.2475 27.0009 20.1938 27.0009 22.5C27.0009 23.1863 26.7591 23.8444 26.3316 24.4462C28.0809 23.7656 29.2509 22.5506 29.2509 21.1669C29.2509 19.0294 26.4834 17.2969 23.0634 17.2969Z" fill="#F280BD"/>
</g>
</g>
</svg>
