<svg width="105" height="137" viewBox="0 0 105 137" fill="none" xmlns="http://www.w3.org/2000/svg">
<path d="M52.8884 103.762C34.2969 94.8496 18.1342 72.2067 16.6797 53.2564C15.2252 34.306 29.0142 26.0207 47.6057 34.9326C66.1972 43.8446 82.3599 66.4875 83.8144 85.4378C85.2689 104.388 71.48 112.674 52.8884 103.762Z" fill="#306EFF" stroke="#253D8E" stroke-width="1.65274"/>
<path d="M57.5159 100.223C39.5238 91.5979 23.8107 69.207 22.356 50.2528C20.9012 31.2986 34.2463 22.8369 52.2383 31.4615C70.2304 40.0861 85.9435 62.4771 87.3982 81.4313C88.853 100.385 75.5079 108.847 57.5159 100.223Z" fill="#E5007A" stroke="#253D8E" stroke-width="1.65274"/>
<path d="M59.0115 94.4631C42.7844 86.6845 28.6863 66.9101 27.4164 50.3638C26.1464 33.8175 38.1701 26.5648 54.3972 34.3434C70.6244 42.122 84.7224 61.8963 85.9924 78.4426C87.2624 94.9889 75.2387 102.242 59.0115 94.4631Z" fill="#E5007A" stroke="#253D8E" stroke-width="1.65274"/>
<g filter="url(#filter0_d_633_34022)">
<path d="M68.9945 54.6592C69.0583 54.7501 69.118 54.8445 69.1859 54.9319C70.0889 56.0665 70.8718 57.2737 71.5027 58.5043C71.9503 59.3612 72.2603 60.2237 72.414 61.039C72.4802 61.4054 72.4887 61.7485 72.439 62.0547C72.3933 62.3844 72.2583 62.65 72.0452 62.8294C71.8321 63.0087 71.5473 63.0965 71.2147 63.0853C70.7447 63.0728 70.2238 62.9311 69.6897 62.6703C68.7778 62.2272 67.8643 61.6137 67.001 60.8645C66.2704 60.2437 65.568 59.5634 64.9064 58.8356C63.7308 57.557 62.6912 56.1515 61.8406 54.6902C61.2504 53.7047 60.8108 52.6933 60.5487 51.7184C60.3963 51.1631 60.3598 50.6438 60.4422 50.2001C60.4986 49.8977 60.6344 49.6548 60.8392 49.4896C61.044 49.3245 61.3125 49.2414 61.6243 49.2468C62.0986 49.2542 62.6267 49.3965 63.1685 49.6628C63.954 50.0373 64.7426 50.5451 65.4982 51.1629C66.4377 51.9236 67.3356 52.7838 68.1663 53.7189C68.2336 53.7893 68.3028 53.857 68.3738 53.9218L68.9945 54.6592Z" fill="white"/>
<path d="M40.7236 48.0881C41.053 47.7963 41.4723 47.6154 41.96 47.5548C42.2131 47.5259 42.4924 47.5498 42.7874 47.6256C43.6661 47.8664 44.4375 48.4844 45.1234 49.3948C45.8511 50.3683 46.2793 51.3633 46.5918 52.37C46.9655 53.6204 47.1385 54.8169 47.1029 55.9033C47.0884 57.1367 46.8386 58.2303 46.3654 59.1321C46.1072 59.6364 45.7495 60.0473 45.3042 60.3514C44.9929 60.5721 44.6088 60.696 44.1709 60.7171C43.4849 60.7405 42.7662 60.4753 41.9922 59.8056C41.4862 59.3501 41.0406 58.8028 40.7016 58.2202C40.2177 57.4048 39.8542 56.5695 39.632 55.7624C39.2476 54.4153 39.0913 53.1337 39.171 51.9835C39.2237 50.9152 39.4619 49.9624 39.8767 49.1613C40.0953 48.7398 40.3795 48.3797 40.7236 48.0881Z" fill="white"/>
<path d="M46.0363 43.5893C46.6349 43.1386 47.3683 42.8628 48.2051 42.7736C49.5917 42.5879 51.1868 42.8285 52.8677 43.4768C53.6681 43.7782 54.4865 44.2213 55.2868 44.7864C55.8437 45.1714 56.3743 45.6569 56.8411 46.2087C57.1971 46.6223 57.4836 47.0849 57.6708 47.5479C57.8579 48.011 57.9387 48.4575 57.9048 48.8406C57.8703 49.3373 57.7156 49.7554 57.4519 50.065C56.8953 50.7787 56.0671 51.1228 55.1041 51.2716C53.5919 51.5263 51.8133 51.2507 49.9394 50.4714C49.0706 50.1242 48.1844 49.5945 47.3374 48.9162C46.7845 48.4829 46.2788 47.9399 45.8708 47.3416C45.6496 47.0102 45.4758 46.6644 45.3598 46.3248C45.2437 45.9853 45.1879 45.6591 45.1956 45.3656C45.2056 44.8423 45.3472 44.3999 45.6089 44.0741C45.7382 43.8991 45.8921 43.7499 46.0363 43.5893Z" fill="white"/>
<path d="M70.0415 82.8464C69.4286 83.3423 68.662 83.6429 67.779 83.7336C66.402 83.9095 64.8214 83.6666 63.157 83.0232C62.2637 82.6921 61.3473 82.1785 60.4613 81.5125C59.9856 81.1577 59.5354 80.7272 59.1375 80.2467C58.8158 79.8647 58.5535 79.4429 58.3737 79.0187C58.1939 78.5944 58.1022 78.181 58.1069 77.815C58.1135 77.2964 58.2472 76.8551 58.4976 76.5252C58.9555 75.9101 59.6071 75.5047 60.4068 75.3374C62.021 74.9205 63.9934 75.1636 66.0889 76.0378C66.9565 76.3876 67.841 76.9198 68.6854 77.6C69.227 78.0249 69.7229 78.5562 70.1242 79.1417C70.3868 79.5321 70.5847 79.942 70.7021 80.3388C70.8195 80.7356 70.8533 81.1084 70.8008 81.4278C70.7383 81.8783 70.5757 82.2583 70.3223 82.5462C70.219 82.67 70.1032 82.7822 70.0415 82.8464Z" fill="white"/>
<path d="M75.1721 78.5253C74.8642 78.7726 74.4759 78.9173 74.0278 78.9517C73.8155 78.9683 73.588 78.9534 73.3497 78.9073C72.4478 78.7178 71.6381 78.0879 70.9148 77.133C70.3539 76.3695 69.917 75.5533 69.6403 74.752C69.2431 73.6598 69.0088 72.5974 68.9477 71.6117C68.8159 69.99 69.0485 68.557 69.6288 67.4155C69.8548 66.9605 70.1597 66.5786 70.5357 66.2796C70.8741 65.9952 71.3073 65.8305 71.8103 65.795C72.4914 65.7658 73.2201 66.0177 73.9969 66.6924C74.4664 67.1077 74.8851 67.6051 75.2142 68.1386C75.6134 68.7765 75.9327 69.4332 76.1579 70.0797C76.565 71.2331 76.7938 72.3509 76.8338 73.3812C76.9273 74.9388 76.6768 76.3117 76.0993 77.4066C75.8578 77.8483 75.5467 78.2237 75.1721 78.5253Z" fill="white"/>
<path d="M47.5657 72.4636C46.2615 70.9142 45.3141 69.5522 44.5696 68.1076C44.0934 67.2122 43.766 66.3089 43.6091 65.4574C43.5434 65.0968 43.5346 64.7589 43.583 64.4572C43.6303 64.1201 43.7707 63.8497 43.9921 63.6698C44.2134 63.49 44.5089 63.406 44.8527 63.4253C45.3535 63.45 45.9071 63.6144 46.4713 63.9061C47.3361 64.3465 48.1989 64.9352 49.0175 65.6432C49.7427 66.2586 50.44 66.9335 51.0967 67.6556C52.2547 68.9093 53.2828 70.2864 54.1309 71.7197C54.6694 72.616 55.0909 73.534 55.3762 74.4316C55.5501 74.9732 55.6328 75.4924 55.6198 75.962C55.6121 76.4312 55.4535 76.8056 55.1648 77.0362C54.8784 77.2485 54.4869 77.3186 54.0365 77.2384C53.4805 77.1438 52.8848 76.9143 52.2883 76.5651C51.3406 76.0181 50.407 75.3189 49.5314 74.5005C48.8413 73.8701 48.1823 73.1872 47.5657 72.4636Z" fill="white"/>
</g>
<defs>
<filter id="filter0_d_633_34022" x="35.1509" y="42.7129" width="45.7021" height="49.0762" filterUnits="userSpaceOnUse" color-interpolation-filters="sRGB">
<feFlood flood-opacity="0" result="BackgroundImageFix"/>
<feColorMatrix in="SourceAlpha" type="matrix" values="0 0 0 0 0 0 0 0 0 0 0 0 0 0 0 0 0 0 127 0" result="hardAlpha"/>
<feOffset dy="4"/>
<feGaussianBlur stdDeviation="2"/>
<feComposite in2="hardAlpha" operator="out"/>
<feColorMatrix type="matrix" values="0 0 0 0 0 0 0 0 0 0 0 0 0 0 0 0 0 0 0.25 0"/>
<feBlend mode="normal" in2="BackgroundImageFix" result="effect1_dropShadow_633_34022"/>
<feBlend mode="normal" in="SourceGraphic" in2="effect1_dropShadow_633_34022" result="shape"/>
</filter>
</defs>
</svg>
