<svg xmlns="http://www.w3.org/2000/svg" fill="none" viewBox="0 0 80 80"><path fill="url(#a)" d="M0 40C0 17.909 17.909 0 40 0s40 17.909 40 40-17.909 40-40 40S0 62.091 0 40"/><path fill="#fff" d="M56.186 18.178C52.393 15.76 47.672 15 41.016 15H27.5v3.866h13.24c6.01 0 9.73.553 12.73 2.42a9.5 9.5 0 013.466 3.577 9.1 9.1 0 011.114 4.777c.057 1.59-.3 3.17-1.036 4.593a9.64 9.64 0 01-3.185 3.557c-2.577 1.726-5.727 2.626-13.096 2.626H27.5V65h4.366V44.145h8.371c7.086 0 12.308-.691 16.173-3.248a13.44 13.44 0 004.562-4.94 12.9 12.9 0 001.523-6.453 12.6 12.6 0 00-1.6-6.47 13.2 13.2 0 00-4.709-4.856"/><defs><linearGradient id="a" x1="56" x2="37.25" y1="0" y2="80" gradientUnits="userSpaceOnUse"><stop stop-color="#FF2E72"/><stop offset="1" stop-color="#4A125E"/></linearGradient></defs></svg>