<?xml version="1.0" encoding="UTF-8"?>
<svg version="1.1" xmlns="http://www.w3.org/2000/svg" width="32" height="32">
<path d="M0 0 C10.56 0 21.12 0 32 0 C32 10.56 32 21.12 32 32 C21.44 32 10.88 32 0 32 C0 21.44 0 10.88 0 0 Z " fill="#181414" transform="translate(0,0)"/>
<path d="M0 0 C1.32 0 2.64 0 4 0 C4.33 2.31 4.66 4.62 5 7 C7.64 7 10.28 7 13 7 C13.33 8.32 13.66 9.64 14 11 C12.02 11.66 10.04 12.32 8 13 C8.2165625 13.86625 8.2165625 13.86625 8.4375 14.75 C9.21875 17.875 9.21875 17.875 10 21 C9.01 21.66 8.02 22.32 7 23 C6.01 21.68 5.02 20.36 4 19 C0.31245243 19.49831724 -1.60490662 20.10067643 -4 23 C-4.66 21.68 -5.32 20.36 -6 19 C-5.34 18.01 -4.68 17.02 -4 16 C-4 15.01 -4 14.02 -4 13 C-5.98 12.34 -7.96 11.68 -10 11 C-9.67 9.68 -9.34 8.36 -9 7 C-6.36 7 -3.72 7 -1 7 C-0.67 4.69 -0.34 2.38 0 0 Z " fill="#F54646" transform="translate(14,4)"/>
</svg>
