<svg xmlns="http://www.w3.org/2000/svg" fill="none" viewBox="0 0 24 24"><rect width="24" height="24" fill="#D5FF5C" rx="4"/><path fill="#FD4848" d="M16.535 12.916c.152.332.6.448.858.19l.472-.471a1.25 1.25 0 011.769 1.768l-3.824 3.822A5 5 0 0111.986 20a5 5 0 01-3.942-1.922l-3.678-3.676a1.25 1.25 0 111.769-1.768l.465.466c.253.252.69.138.839-.186a.5.5 0 00.045-.203v-5.71a1.25 1.25 0 012.502 0v2.888c0 .249.254.418.491.343a.36.36 0 00.259-.342V5.25a1.25 1.25 0 012.501 0v4.64c0 .158.109.294.259.342.237.075.491-.094.491-.343V7.001a1.25 1.25 0 112.501 0v5.708q.001.109.047.207"/><path fill="#D5FF5C" d="M15.989 15.5S14.197 18 11.987 18s-4.002-2.5-4.002-2.5S9.777 13 11.987 13s4.002 2.5 4.002 2.5"/><path stroke="#FD4848" d="M13.855 15.5a1.867 1.867 0 11-3.735 0 1.867 1.867 0 013.735 0z"/><path stroke="#FD4848" d="M13.104 15.5a1.117 1.117 0 11-2.234 0 1.117 1.117 0 012.234 0z"/><path stroke="#FD4848" d="M14.605 15.5a2.618 2.618 0 11-5.235-.002 2.618 2.618 0 015.235.002z"/><path stroke="#FD4848" d="M15.355 15.5a3.37 3.37 0 01-3.368 3.367 3.368 3.368 0 113.368-3.367z"/><path fill="#162BEB" stroke="#FD4848" d="M12.354 15.5a.367.367 0 11-.734 0 .367.367 0 01.734 0z"/><circle cx="11.987" cy="15.5" r=".5" fill="#FD4848"/><path stroke="#D5FF5C" d="M8.171 15.526l-.02-.026.02-.025a8.3 8.3 0 011.073-1.124c.716-.618 1.686-1.218 2.743-1.218s2.027.6 2.743 1.218a8.3 8.3 0 011.092 1.15l-.02.025a8.3 8.3 0 01-1.073 1.124c-.716.618-1.685 1.217-2.742 1.217s-2.027-.6-2.743-1.217a8.3 8.3 0 01-1.073-1.124z"/></svg>