<svg width="14" height="16" viewBox="0 0 14 16" fill="none" xmlns="http://www.w3.org/2000/svg">
<path d="M4.60633 15.4797C4.51482 15.5033 4.39944 15.5077 4.26417 15.4841L4.42827 15.5395C5.39219 15.8387 6.41813 16 7.48292 16C8.60889 16 9.71496 15.8171 10.7295 15.4831C10.2203 15.584 10.0293 15.2697 10.0293 15.0061L10.0333 14.4322L10.0412 12.2365C10.0412 11.2918 9.72292 10.6874 9.35688 10.3731C11.6207 10.1214 14 9.26517 14 5.39984C14 4.29188 13.6061 3.39833 12.9576 2.69362C13.061 2.44183 13.4151 1.4096 12.8541 0.0247657C12.8541 0.0247657 12.0027 -0.253578 10.0531 1.05601C9.2415 0.829306 8.37414 0.71669 7.50679 0.71669C6.6474 0.714723 5.79198 0.829306 4.96044 1.057C3.01486 -0.2403 2.15944 0.0237821 2.15944 0.0237821C1.60243 1.40861 1.95653 2.44084 2.05998 2.69263C1.65813 3.12834 1.35177 3.64077 1.18069 4.22696C1.07326 4.58989 1.01358 4.98085 1.01358 5.39984C1.01358 9.2519 3.38488 10.1214 5.64875 10.3731C5.35432 10.6249 5.08775 11.0651 5.00022 11.7196C4.41536 11.9837 2.9512 12.4115 2.03213 10.8885C1.84115 10.5866 1.26822 9.8435 0.468504 9.85628C-0.386912 9.86858 0.122359 10.3348 0.48044 10.5231C0.914116 10.7626 1.40747 11.6562 1.52285 11.9463C1.72975 12.5133 2.39021 13.5957 4.9485 13.1295C4.9485 13.9734 4.96044 14.7661 4.96044 15.0051C4.96044 15.1994 4.86097 15.4138 4.60633 15.4797Z" fill="#191E23"/>
<path d="M4.60633 15.4797C4.51482 15.5033 4.39944 15.5077 4.26417 15.4841L4.42827 15.5395C5.39219 15.8387 6.41813 16 7.48292 16C8.60889 16 9.71496 15.8171 10.7295 15.4831C10.2203 15.584 10.0293 15.2697 10.0293 15.0061L10.0333 14.4322L10.0412 12.2365C10.0412 11.2918 9.72292 10.6874 9.35688 10.3731C11.6207 10.1214 14 9.26517 14 5.39984C14 4.29188 13.6061 3.39833 12.9576 2.69362C13.061 2.44183 13.4151 1.4096 12.8541 0.0247657C12.8541 0.0247657 12.0027 -0.253578 10.0531 1.05601C9.2415 0.829306 8.37414 0.71669 7.50679 0.71669C6.6474 0.714723 5.79198 0.829306 4.96044 1.057C3.01486 -0.2403 2.15944 0.0237821 2.15944 0.0237821C1.60243 1.40861 1.95653 2.44084 2.05998 2.69263C1.65813 3.12834 1.35177 3.64077 1.18069 4.22696C1.07326 4.58989 1.01358 4.98085 1.01358 5.39984C1.01358 9.2519 3.38488 10.1214 5.64875 10.3731C5.35432 10.6249 5.08775 11.0651 5.00022 11.7196C4.41536 11.9837 2.9512 12.4115 2.03213 10.8885C1.84115 10.5866 1.26822 9.8435 0.468504 9.85628C-0.386912 9.86858 0.122359 10.3348 0.48044 10.5231C0.914116 10.7626 1.40747 11.6562 1.52285 11.9463C1.72975 12.5133 2.39021 13.5957 4.9485 13.1295C4.9485 13.9734 4.96044 14.7661 4.96044 15.0051C4.96044 15.1994 4.86097 15.4138 4.60633 15.4797Z" fill="white"/>
</svg>
