<?xml version="1.0" encoding="UTF-8"?>
<!-- This file is auto-generated from activityfeed folder -->
<svg xmlns="http://www.w3.org/2000/svg" xmlns:xlink="http://www.w3.org/1999/xlink" width="0" height="0">
<defs>
<symbol fill="none" viewBox="0 0 24 24" id="All"><path stroke="#485F7D" stroke-linecap="round" stroke-linejoin="round" stroke-width="1.6" d="M13.5 3.75h-3m0 16.5h3m3.75-16.5h2.25a.75.75 0 0 1 .75.75v2.25m0 6.75v-3m-3 9.75h2.25a.75.75 0 0 0 .75-.75v-2.25M3.75 10.5v3m3 6.75H4.5a.75.75 0 0 1-.75-.75v-2.25m3-13.5H4.5a.75.75 0 0 0-.75.75v2.25m12.75.75h-9v9h9z"></path></symbol>
<symbol fill="none" viewBox="0 0 24 24" id="admin"><path fill="#485F7D" fill-rule="evenodd" d="M3 6.93c0-1.437 1.265-2.55 2.837-3.263C7.454 2.933 9.634 2.5 12 2.5s4.546.433 6.163 1.167C19.735 4.379 21 5.493 21 6.93v10.138c0 1.438-1.265 2.552-2.837 3.264-1.617.734-3.797 1.167-6.163 1.167s-4.546-.433-6.163-1.167C4.265 19.621 3 18.507 3 17.07V6.931zm1.543 0c0-.622.576-1.374 1.984-2.012C7.887 4.301 9.822 3.9 12 3.9s4.113.402 5.474 1.02c1.407.637 1.983 1.39 1.983 2.012s-.576 1.374-1.983 2.013c-1.361.617-3.296 1.019-5.474 1.019s-4.113-.402-5.473-1.02c-1.408-.638-1.984-1.39-1.984-2.012zm0 10.14c0 .622.576 1.374 1.984 2.012C7.887 19.699 9.822 20.1 12 20.1s4.113-.402 5.474-1.02c1.407-.637 1.983-1.39 1.983-2.012v-2.752a7.5 7.5 0 0 1-1.294.739c-1.617.733-3.797 1.166-6.163 1.166s-4.546-.433-6.163-1.167a7.5 7.5 0 0 1-1.294-.738v2.752zm14.914-7.614v2.335c0 .623-.576 1.375-1.983 2.013-1.361.617-3.296 1.019-5.474 1.019s-4.113-.402-5.473-1.019c-1.408-.638-1.984-1.39-1.984-2.013V9.456c.387.28.827.527 1.294.739 1.617.733 3.797 1.167 6.163 1.167s4.546-.434 6.163-1.167a7.5 7.5 0 0 0 1.294-.739" clip-rule="evenodd"></path></symbol>
<symbol fill="none" viewBox="0 0 14 14" id="commentdark"><path fill="#FF4098" d="M0 10.153V.756Q0 .504.228.252.454 0 .7 0h9.083q.262 0 .49.243t.227.513v6.409q0 .252-.227.504-.229.252-.49.252H2.8L.455 10.334a.25.25 0 0 1-.289.063.24.24 0 0 1-.166-.244m3.518 1.369q-.245 0-.482-.252-.236-.252-.236-.505V9.002h8.75v-6.12h1.75q.244 0 .473.251.227.252.227.523v10.081q0 .18-.166.243a.25.25 0 0 1-.289-.063l-2.328-2.394zM9.45 1.08h-8.4v5.761h8.4v-5.76z"></path></symbol>
<symbol fill="none" viewBox="0 0 16 14" id="vote"><path fill="#E5007A" d="M5.08 7.692 2.05 5.57a.335.335 0 0 1-.083-.466l2.262-3.231a.334.334 0 0 1 .466-.083l3.032 2.121a.336.336 0 0 1 .083.467L5.548 7.609a.335.335 0 0 1-.468.083m1.807-1.358.507-.728a.266.266 0 0 1 .358-.078h.003a7845 7845 0 0 1 7.164 4.568c.665.425.778 1.266.241 1.764-.403.375-.99.384-1.475.014a2386 2386 0 0 1-4.577-3.51L6.945 6.705a.27.27 0 0 1-.058-.372zm1.37 7.538H.892c-.036-.757.612-1.442 1.419-1.453q2.265-.028 4.53 0c.8.011 1.458.71 1.416 1.453m.929-10.498a.54.54 0 0 1-.45.242.8.8 0 0 1-.458-.163q-.815-.566-1.628-1.136L4.928 1.115c-.4-.276-.344-.57-.277-.72a.8.8 0 0 1 .222-.27.5.5 0 0 1 .522-.086q.11.045.21.11c1.054.733 2.15 1.5 3.349 2.343.347.243.438.59.232.882M5.091 9.263a.57.57 0 0 1-.47.251.72.72 0 0 1-.411-.141c-.685-.478-1.38-.965-2.052-1.437q-.682-.48-1.367-.959c-.27-.189-.359-.452-.238-.705a.7.7 0 0 1 .178-.218.596.596 0 0 1 .73-.042l.028.02a720 720 0 0 1 3.396 2.373c.328.23.409.567.206.858"></path></symbol>
</defs>
</svg>
