<?xml version="1.0" encoding="UTF-8"?>
<!-- This file is auto-generated from icons folder -->
<svg xmlns="http://www.w3.org/2000/svg" xmlns:xlink="http://www.w3.org/1999/xlink" width="0" height="0">
<defs>
<symbol fill="none" viewBox="0 0 16 16" id="Comment"><path fill="#485F7D" d="M1 11.018V2.292q0-.234.211-.468t.439-.234h8.434q.243 0 .455.226.21.225.211.476v5.951q0 .234-.211.468-.212.234-.455.234H3.6l-2.177 2.24a.23.23 0 0 1-.269.059.22.22 0 0 1-.154-.226m3.266 1.27q-.226 0-.447-.233-.219-.235-.219-.469V9.948h8.125V4.265h1.625q.228 0 .439.234.21.234.211.484v9.362a.22.22 0 0 1-.154.225.23.23 0 0 1-.268-.058l-2.162-2.223zm5.509-9.695h-7.8v5.35h7.8z"></path></symbol>
<symbol fill="none" viewBox="0 0 25 24" id="Vote"><path fill="#485F7D" fill-opacity=".8" d="M18.735 17.836a.576.576 0 0 1-.593-.593v-2.847q0-1.068-.752-1.82a2.48 2.48 0 0 0-1.819-.751H7.345l2.65 2.65a.54.54 0 0 1 .158.395.57.57 0 0 1-.178.415.57.57 0 0 1-.415.178.57.57 0 0 1-.415-.178l-3.639-3.638a.6.6 0 0 1-.138-.198.6.6 0 0 1-.04-.217.6.6 0 0 1 .04-.218.6.6 0 0 1 .138-.198l3.658-3.658A.54.54 0 0 1 9.56 7a.57.57 0 0 1 .415.178.57.57 0 0 1 .178.415.57.57 0 0 1-.178.415l-2.63 2.63h8.226q1.542 0 2.65 1.098a3.6 3.6 0 0 1 1.107 2.66v2.847a.576.576 0 0 1-.593.593"></path></symbol>
<symbol fill="none" viewBox="0 0 14 14" id="beneficiary-icon"><path fill="#485F7D" fill-rule="evenodd" d="M12.68 9.812C12.236 8.406 11.046 7.6 9.413 7.6h-.024c-.717 0-1.341.157-1.866.443 1.318.478 2.298 1.464 2.753 2.835.87-.093 1.633-.338 2.275-.729l.198-.123zM8.141 6.41c.356.252.793.403 1.26.403 1.202 0 2.182-.98 2.182-2.187 0-1.202-.98-2.182-2.182-2.182-.338 0-.653.076-.939.216a3.3 3.3 0 0 1 .432 1.64c0 .798-.28 1.533-.753 2.11" clip-rule="evenodd"></path><path fill="#485F7D" fill-rule="evenodd" d="M9.675 10.92c-.46-1.254-1.417-2.106-2.724-2.45a5.3 5.3 0 0 0-1.4-.175h-.029c-2.1 0-3.628 1.032-4.2 2.835l-.07.216.198.117c1.109.682 2.439 1.009 4.054 1.009h.03c1.656.005 2.975-.327 4.089-1.01l.198-.116-.07-.216a3 3 0 0 0-.076-.21M5.534 7.076c.886 0 1.674-.42 2.181-1.068A2.73 2.73 0 0 0 8.31 4.3a2.8 2.8 0 0 0-.332-1.318 2.79 2.79 0 0 0-2.444-1.453 2.773 2.773 0 0 0 0 5.548z" clip-rule="evenodd"></path></symbol>
<symbol fill="none" viewBox="0 0 24 24" id="login-to-pa-icon"><path fill="#243A57" d="M12.225 21v-1.5H19.5v-15h-7.275V3H19.5q.6 0 1.05.45T21 4.5v15q0 .6-.45 1.05T19.5 21zm-1.95-4.625L9.2 15.3l2.55-2.55H3v-1.5h8.7L9.15 8.7l1.075-1.075 4.4 4.4z"></path></symbol>
<symbol fill="#D22B2B" class="w-6 h-6" viewBox="0 0 24 24" id="minus-circle-red"><path fill-rule="evenodd" d="M12 2.25c-5.385 0-9.75 4.365-9.75 9.75s4.365 9.75 9.75 9.75 9.75-4.365 9.75-9.75S17.385 2.25 12 2.25m3 10.5a.75.75 0 0 0 0-1.5H9a.75.75 0 0 0 0 1.5z" clip-rule="evenodd"></path></symbol>
<symbol fill="#4b5f71" viewBox="0 0 24 24" id="profile-subscan"><path d="M10.86 1.74a1.612 1.612 0 0 1 2.28 2.28l-7.6 7.6c-.21.21-.21.55 0 .76l1.52 1.52c.21.21.55.21.76 0l7.6-7.6c.63-.63 1.65-.63 2.28 0l4.663 4.664c.572.572.572 1.5 0 2.072L13.14 22.26a1.612 1.612 0 0 1-2.28-2.28l7.6-7.6c.21-.21.21-.55 0-.76l-1.52-1.52a.537.537 0 0 0-.76 0l-7.6 7.6c-.63.63-1.65.63-2.28 0l-4.664-4.664a1.466 1.466 0 0 1 0-2.072z" opacity=".4"></path><path d="M4.02 10.86a1.612 1.612 0 1 1-2.28 2.28 1.612 1.612 0 0 1 2.28-2.28m9.12-9.12a1.612 1.612 0 1 1-2.28 2.28 1.612 1.612 0 0 1 2.28-2.28M17.7 6.3a1.612 1.612 0 1 1-2.28 2.28A1.612 1.612 0 0 1 17.7 6.3m-4.56 4.56a1.612 1.612 0 1 1-2.28 2.28 1.612 1.612 0 0 1 2.28-2.28M8.58 6.3A1.612 1.612 0 1 1 6.3 8.58 1.612 1.612 0 0 1 8.58 6.3m0 9.12A1.612 1.612 0 1 1 6.3 17.7a1.612 1.612 0 0 1 2.28-2.28m4.56 4.56a1.612 1.612 0 1 1-2.28 2.28 1.612 1.612 0 0 1 2.28-2.28m4.56-4.56a1.612 1.612 0 1 1-2.28 2.28 1.612 1.612 0 0 1 2.28-2.28m4.56-4.56a1.612 1.612 0 1 1-2.281 2.28 1.612 1.612 0 0 1 2.28-2.28z"></path></symbol>
<symbol fill="none" viewBox="0 0 24 24" id="timeline-referenda-icon"><path fill="#E5007A" d="M19.2 3H4.8A1.803 1.803 0 0 0 3 4.8v14.398A1.8 1.8 0 0 0 4.8 21h14.4a1.803 1.803 0 0 0 1.8-1.8V4.8A1.8 1.8 0 0 0 19.2 3M5.36 19.453a.82.82 0 0 1-.818-.818V5.36a.82.82 0 0 1 .818-.818h13.28a.82.82 0 0 1 .816.818v13.276a.82.82 0 0 1-.816.816H5.36z"></path><path fill="#E5007A" d="M8.093 14.369v1.32a.215.215 0 0 0 .217.217h1.32a.2.2 0 0 0 .152-.066l4.74-4.734-1.629-1.628-4.735 4.735a.21.21 0 0 0-.065.156m7.687-4.522a.43.43 0 0 0 0-.612l-1.015-1.016a.43.43 0 0 0-.613 0l-.794.795 1.627 1.627z"></path></symbol>
<symbol data-name="86977684-12db-4850-8f30-233a7c267d11" viewBox="0 0 2000 2000" id="usdc"><path fill="#2775ca" d="M1000 2000c554.17 0 1000-445.83 1000-1000S1554.17 0 1000 0 0 445.83 0 1000s445.83 1000 1000 1000"></path><path fill="#fff" d="M1275 1158.33c0-145.83-87.5-195.83-262.5-216.66-125-16.67-150-50-150-108.34s41.67-95.83 125-95.83c75 0 116.67 25 137.5 87.5 4.17 12.5 16.67 20.83 29.17 20.83h66.66c16.67 0 29.17-12.5 29.17-29.16v-4.17c-16.67-91.67-91.67-162.5-187.5-170.83v-100c0-16.67-12.5-29.17-33.33-33.34h-62.5c-16.67 0-29.17 12.5-33.34 33.34v95.83c-125 16.67-204.16 100-204.16 204.17 0 137.5 83.33 191.66 258.33 212.5 116.67 20.83 154.17 45.83 154.17 112.5s-58.34 112.5-137.5 112.5c-108.34 0-145.84-45.84-158.34-108.34-4.16-16.66-16.66-25-29.16-25h-70.84c-16.66 0-29.16 12.5-29.16 29.17v4.17c16.66 104.16 83.33 179.16 220.83 200v100c0 16.66 12.5 29.16 33.33 33.33h62.5c16.67 0 29.17-12.5 33.34-33.33v-100c125-20.84 208.33-108.34 208.33-220.84"></path><path fill="#fff" d="M787.5 1595.83c-325-116.66-491.67-479.16-370.83-800 62.5-175 200-308.33 370.83-370.83 16.67-8.33 25-20.83 25-41.67V325c0-16.67-8.33-29.17-25-33.33-4.17 0-12.5 0-16.67 4.16-395.83 125-612.5 545.84-487.5 941.67 75 233.33 254.17 412.5 487.5 487.5 16.67 8.33 33.34 0 37.5-16.67 4.17-4.16 4.17-8.33 4.17-16.66v-58.34c0-12.5-12.5-29.16-25-37.5m441.67-1300c-16.67-8.33-33.34 0-37.5 16.67-4.17 4.17-4.17 8.33-4.17 16.67v58.33c0 16.67 12.5 33.33 25 41.67 325 116.66 491.67 479.16 370.83 800-62.5 175-200 308.33-370.83 370.83-16.67 8.33-25 20.83-25 41.67V1700c0 16.67 8.33 29.17 25 33.33 4.17 0 12.5 0 16.67-4.16 395.83-125 612.5-545.84 487.5-941.67-75-237.5-258.34-416.67-487.5-491.67"></path></symbol>
<symbol data-name="Layer 1" viewBox="0 0 339.43 295.27" id="usdt"><path fill="#50af95" fill-rule="evenodd" d="m62.15 1.45-61.89 130a2.52 2.52 0 0 0 .54 2.94l167.15 160.17a2.55 2.55 0 0 0 3.53 0L338.63 134.4a2.52 2.52 0 0 0 .54-2.94l-61.89-130A2.5 2.5 0 0 0 275 0H64.45a2.5 2.5 0 0 0-2.3 1.45"></path><path fill="#fff" fill-rule="evenodd" d="M191.19 144.8c-1.2.09-7.4.46-21.23.46-11 0-18.81-.33-21.55-.46-42.51-1.87-74.24-9.27-74.24-18.13s31.73-16.25 74.24-18.15v28.91c2.78.2 10.74.67 21.74.67 13.2 0 19.81-.55 21-.66v-28.9c42.42 1.89 74.08 9.29 74.08 18.13s-31.65 16.24-74.08 18.12zm0-39.25V79.68h59.2V40.23H89.21v39.45h59.19v25.86c-48.11 2.21-84.29 11.74-84.29 23.16s36.18 20.94 84.29 23.16v82.9h42.78v-82.93c48-2.21 84.12-11.73 84.12-23.14s-36.09-20.93-84.12-23.15zm0 0"></path></symbol>
<symbol fill="none" viewBox="0 0 20 19" id="verified-check-green"><path fill="#51D36E" d="m20 9.5-2.218-2.524.309-3.339-3.282-.742L13.091 0 10 1.321 6.91 0 5.19 2.886l-3.28.733.308 3.348L0 9.5l2.218 2.524-.309 3.348 3.282.742L6.909 19 10 17.67l3.09 1.321 1.72-2.886 3.28-.742-.308-3.339zM7.618 13.128l-2.163-2.171a.9.9 0 0 1 0-1.276l.063-.063a.92.92 0 0 1 1.291 0l1.464 1.465 4.681-4.668a.92.92 0 0 1 1.291 0l.064.063a.9.9 0 0 1 0 1.276l-5.382 5.374a.94.94 0 0 1-1.309 0"></path></symbol>
</defs>
</svg>
