<svg width="24" height="24" viewBox="0 0 24 24" fill="none" xmlns="http://www.w3.org/2000/svg">
<path fill-rule="evenodd" clip-rule="evenodd" d="M13.5104 11.036C14.1204 11.466 14.8704 11.726 15.6704 11.726C17.7304 11.726 19.4104 10.046 19.4104 7.97602C19.4104 5.91602 17.7304 4.23602 15.6704 4.23602C15.0904 4.23602 14.5504 4.36602 14.0604 4.60602C14.5304 5.43602 14.8004 6.39602 14.8004 7.41602C14.8004 8.78602 14.3204 10.046 13.5104 11.036Z" fill="#243A57"/>
<path fill-rule="evenodd" clip-rule="evenodd" d="M9.04039 12.176C10.5604 12.176 11.9104 11.456 12.7804 10.346C13.4204 9.54601 13.8004 8.52602 13.8004 7.41602C13.8004 6.59602 13.5904 5.82602 13.2304 5.15602C12.4204 3.67602 10.8504 2.66602 9.04039 2.66602C6.42039 2.66602 4.29039 4.79602 4.29039 7.41602C4.29039 10.036 6.42039 12.176 9.04039 12.176Z" fill="#243A57"/>
<path fill-rule="evenodd" clip-rule="evenodd" d="M17.0535 18.4074C16.1692 16.0052 14.3333 14.374 11.8258 13.7147C11.0086 13.4913 10.1018 13.3796 9.13912 13.3796H9.08315C5.0532 13.3796 2.12029 15.3572 1.02325 18.8096L0.888916 19.223L1.26952 19.4465C3.39644 20.7537 5.94875 21.3794 9.04957 21.3794H9.10554C12.2847 21.3906 14.8146 20.7537 16.9528 19.4465L17.3334 19.223L17.199 18.8096C17.1543 18.6756 17.1095 18.5415 17.0535 18.4074Z" fill="#243A57"/>
<path fill-rule="evenodd" clip-rule="evenodd" d="M23.4187 16.6868C22.5516 14.0185 20.2242 12.4907 17.0298 12.4907H16.9842C15.5809 12.4907 14.3601 12.7896 13.3334 13.3321C15.9117 14.24 17.8284 16.1111 18.7183 18.7129C20.4182 18.5357 21.9127 18.0707 23.1677 17.3289L23.5556 17.0964L23.4187 16.6868Z" fill="#243A57"/>
</svg>
