<svg width="24" height="24" viewBox="0 0 24 24" fill="none" xmlns="http://www.w3.org/2000/svg">
<path fill-rule="evenodd" clip-rule="evenodd" d="M12 23L14 21H19.005C19.5341 21 20.0415 20.7898 20.4157 20.4157C20.7898 20.0415 21 19.5341 21 19.005V4.995C21 3.893 20.107 3 19.005 3H4.995C3.893 3 3 3.893 3 4.995V19.005C3 19.5341 3.21019 20.0415 3.58432 20.4157C3.95846 20.7898 4.46589 21 4.995 21H10L12 23ZM12 12C13.1046 12 14 11.1046 14 10C14 8.89543 13.1046 8 12 8C10.8954 8 10 8.89543 10 10C10 11.1046 10.8954 12 12 12ZM16 15C16 16.1046 16 17 12 17C8 17 8 16.1046 8 15C8 13.8954 9.79086 13 12 13C14.2091 13 16 13.8954 16 15Z" fill="#485F7D"/>
</svg>
