<svg width="24" height="24" viewBox="0 0 24 24" fill="none" xmlns="http://www.w3.org/2000/svg">
<path d="M17.5881 3.52078C17.5718 3.42276 17.4309 3.42276 17.4146 3.52078C17.1674 5.00392 16.0051 6.16615 14.522 6.41334C14.424 6.42967 14.424 6.57056 14.522 6.58689C16.0051 6.83409 17.1674 7.99631 17.4146 9.47946C17.4309 9.57747 17.5718 9.57747 17.5881 9.47946C17.8353 7.99631 18.9976 6.83409 20.4807 6.58689C20.5787 6.57056 20.5787 6.42967 20.4807 6.41334C18.9976 6.16615 17.8353 5.00392 17.5881 3.52078Z" fill="url(#paint0_linear_576_50592)"/>
<path d="M11.1997 6.19008C11.1624 5.96605 10.8404 5.96605 10.803 6.19008C10.238 9.58013 7.5815 12.2366 4.19146 12.8017C3.96743 12.839 3.96743 13.161 4.19146 13.1984C7.5815 13.7634 10.238 16.4199 10.803 19.8099C10.8404 20.034 11.1624 20.034 11.1997 19.8099C11.7647 16.4199 14.4213 13.7634 17.8113 13.1984C18.0353 13.161 18.0353 12.839 17.8113 12.8017C14.4213 12.2366 11.7647 9.58013 11.1997 6.19008Z" fill="url(#paint1_linear_576_50592)"/>
<defs>
<linearGradient id="paint0_linear_576_50592" x1="4.27582" y1="-6.72546" x2="23.3347" y2="-4.97729" gradientUnits="userSpaceOnUse">
<stop stop-color="#CF2DAB"/>
<stop offset="0.145708" stop-color="#40E8FF"/>
<stop offset="0.647687" stop-color="#6A41DD" stop-opacity="0.72"/>
<stop offset="0.876241" stop-color="#B62E76"/>
<stop offset="1" stop-opacity="0"/>
</linearGradient>
<linearGradient id="paint1_linear_576_50592" x1="4.27582" y1="-6.72546" x2="23.3347" y2="-4.97729" gradientUnits="userSpaceOnUse">
<stop stop-color="#CF2DAB"/>
<stop offset="0.145708" stop-color="#40E8FF"/>
<stop offset="0.647687" stop-color="#6A41DD" stop-opacity="0.72"/>
<stop offset="0.876241" stop-color="#B62E76"/>
<stop offset="1" stop-opacity="0"/>
</linearGradient>
</defs>
</svg>
