<svg width="70" height="71" viewBox="0 0 70 71" fill="none" xmlns="http://www.w3.org/2000/svg">
<circle cx="35" cy="35.5" r="35" fill="#CCF3FF"/>
<g opacity="0.5">
<path d="M13.125 49.234C13.125 46.9232 13.125 45.7678 13.7352 45.0499C14.3454 44.332 15.3275 44.332 17.2917 44.332H50.625C52.5892 44.332 53.5713 44.332 54.1815 45.0499C54.7917 45.7678 54.7917 46.9232 54.7917 49.234C54.7917 51.5448 54.7917 52.7002 54.1815 53.4181C53.5713 54.136 52.5892 54.136 50.625 54.136H17.2917C15.3275 54.136 14.3454 54.136 13.7352 53.4181C13.125 52.7002 13.125 51.5448 13.125 49.234Z" fill="#FF823C"/>
<path d="M13.125 49.234C13.125 46.9232 13.125 45.7678 13.7352 45.0499C14.3454 44.332 15.3275 44.332 17.2917 44.332H50.625C52.5892 44.332 53.5713 44.332 54.1815 45.0499C54.7917 45.7678 54.7917 46.9232 54.7917 49.234C54.7917 51.5448 54.7917 52.7002 54.1815 53.4181C53.5713 54.136 52.5892 54.136 50.625 54.136H17.2917C15.3275 54.136 14.3454 54.136 13.7352 53.4181C13.125 52.7002 13.125 51.5448 13.125 49.234Z" fill="#0F5FC2"/>
</g>
<path fill-rule="evenodd" clip-rule="evenodd" d="M35.0394 19.8232H32.8767C24.7209 19.8232 20.643 19.8232 18.1094 21.874C15.5757 23.9248 15.5757 27.2255 15.5757 33.8269V44.333C15.8897 44.3295 16.3306 44.3295 16.657 44.3296H51.2591C51.5855 44.3295 52.0264 44.3295 52.3404 44.333V33.8269C52.3404 27.2255 52.3404 23.9248 49.8067 21.874C47.273 19.8232 43.1951 19.8232 35.0394 19.8232ZM40.0845 26.3439C40.7156 26.9074 40.7704 27.8757 40.2069 28.5068L32.9123 36.6767C32.6217 37.0022 32.2061 37.1884 31.7697 37.1884C31.3333 37.1884 30.9176 37.0022 30.627 36.6767L27.7092 33.4088C27.1457 32.7777 27.2005 31.8093 27.8316 31.2458C28.4627 30.6824 29.4311 30.7372 29.9945 31.3683L31.7697 33.3565L37.9216 26.4663C38.4851 25.8352 39.4534 25.7804 40.0845 26.3439Z" fill="#FF823C"/>
<path fill-rule="evenodd" clip-rule="evenodd" d="M35.0394 19.8232H32.8767C24.7209 19.8232 20.643 19.8232 18.1094 21.874C15.5757 23.9248 15.5757 27.2255 15.5757 33.8269V44.333C15.8897 44.3295 16.3306 44.3295 16.657 44.3296H51.2591C51.5855 44.3295 52.0264 44.3295 52.3404 44.333V33.8269C52.3404 27.2255 52.3404 23.9248 49.8067 21.874C47.273 19.8232 43.1951 19.8232 35.0394 19.8232ZM40.0845 26.3439C40.7156 26.9074 40.7704 27.8757 40.2069 28.5068L32.9123 36.6767C32.6217 37.0022 32.2061 37.1884 31.7697 37.1884C31.3333 37.1884 30.9176 37.0022 30.627 36.6767L27.7092 33.4088C27.1457 32.7777 27.2005 31.8093 27.8316 31.2458C28.4627 30.6824 29.4311 30.7372 29.9945 31.3683L31.7697 33.3565L37.9216 26.4663C38.4851 25.8352 39.4534 25.7804 40.0845 26.3439Z" fill="#0F5FC2"/>
</svg>