<svg xmlns="http://www.w3.org/2000/svg" width="14" height="14" fill="none"><path fill="#485F7D" fill-rule="evenodd" d="M12.68 9.812C12.236 8.406 11.046 7.6 9.413 7.6h-.024c-.717 0-1.341.157-1.866.443 1.318.478 2.298 1.464 2.753 2.835.87-.093 1.633-.338 2.275-.729l.198-.123zM8.141 6.41c.356.252.793.403 1.26.403 1.202 0 2.182-.98 2.182-2.187 0-1.202-.98-2.182-2.182-2.182-.338 0-.653.076-.939.216a3.3 3.3 0 01.432 1.64c0 .798-.28 1.533-.753 2.11" clip-rule="evenodd"/><path fill="#485F7D" fill-rule="evenodd" d="M9.675 10.92c-.46-1.254-1.417-2.106-2.724-2.45a5.3 5.3 0 00-1.4-.175h-.029c-2.1 0-3.628 1.032-4.2 2.835l-.07.216.198.117c1.109.682 2.439 1.009 4.054 1.009h.03c1.656.005 2.975-.327 4.089-1.01l.198-.116-.07-.216a3 3 0 00-.076-.21M5.534 7.076c.886 0 1.674-.42 2.181-1.068A2.73 2.73 0 008.31 4.3a2.8 2.8 0 00-.332-1.318 2.79 2.79 0 00-2.444-1.453 2.773 2.773 0 000 5.548" clip-rule="evenodd"/></svg>