<svg width="20" height="20" viewBox="0 0 20 20" fill="none" xmlns="http://www.w3.org/2000/svg">
<path d="M8.7487 17.9165C5.606 17.9165 4.03466 17.9165 3.05834 16.9402C2.08203 15.9639 2.08203 14.3925 2.08203 11.2498V5.4165H17.9154V12.0832" stroke="#485F7D" stroke-width="1.5" stroke-linecap="round" stroke-linejoin="round"/>
<path d="M2.08203 5.41683L2.58203 4.75016C3.56346 3.4416 4.05416 2.78731 4.75799 2.4354C5.46181 2.0835 6.27966 2.0835 7.91536 2.0835H12.082C13.7177 2.0835 14.5356 2.0835 15.2394 2.4354C15.9432 2.78731 16.4339 3.4416 17.4154 4.75016L17.9154 5.41683" stroke="#485F7D" stroke-width="1.5" stroke-linecap="round" stroke-linejoin="round"/>
<path d="M17.9154 15.4165C17.9154 15.4165 16.2137 17.9165 13.7487 17.9165C11.2837 17.9165 9.58203 15.4165 9.58203 15.4165C9.58203 15.4165 11.2487 12.9165 13.7487 12.9165C16.2487 12.9165 17.9154 15.4165 17.9154 15.4165Z" stroke="#485F7D" stroke-width="1.5" stroke-linecap="round" stroke-linejoin="round"/>
<path d="M13.75 15.4165H13.758" stroke="#485F7D" stroke-width="2" stroke-linecap="round" stroke-linejoin="round"/>
</svg>
