<svg width="20" height="20" viewBox="0 0 20 20" fill="none" xmlns="http://www.w3.org/2000/svg">
<path d="M5.78292 1.66602C6.12947 1.66602 6.4104 1.93619 6.4104 2.26946V3.48674C6.96699 3.47636 7.59087 3.47636 8.29284 3.47636H11.6394C12.3414 3.47636 12.9653 3.47636 13.5219 3.48674V2.26946C13.5219 1.93619 13.8028 1.66602 14.1493 1.66602C14.4959 1.66602 14.7768 1.93619 14.7768 2.26946V3.54013C15.981 3.63287 16.7716 3.86046 17.3524 4.41901C17.9332 4.97756 18.1698 5.73782 18.2662 6.8959L18.3327 7.49935H2.43648H1.66602V6.8959C1.76244 5.73782 1.9991 4.97756 2.57989 4.41901C3.16069 3.86046 3.95123 3.63287 5.15544 3.54013V2.26946C5.15544 1.93619 5.43637 1.66602 5.78292 1.66602Z" fill="#F57B60"/>
<path opacity="0.5" d="M18.3331 11.6667V10.0001C18.3331 9.30087 18.3304 8.05439 18.3196 7.5H1.67447C1.66372 8.05439 1.66643 9.30087 1.66643 10.0001V11.6667C1.66643 14.8094 1.66643 16.3808 2.64274 17.3571C3.61906 18.3334 5.1904 18.3334 8.3331 18.3334H11.6664C14.8091 18.3334 16.3805 18.3334 17.3568 17.3571C18.3331 16.3808 18.3331 14.8094 18.3331 11.6667Z" fill="#F57B60"/>
<path d="M15.0007 14.1667C15.0007 14.6269 14.6276 15 14.1673 15C13.7071 15 13.334 14.6269 13.334 14.1667C13.334 13.7064 13.7071 13.3333 14.1673 13.3333C14.6276 13.3333 15.0007 13.7064 15.0007 14.1667Z" fill="#F57B60"/>
<path d="M15.0007 10.8333C15.0007 11.2936 14.6276 11.6667 14.1673 11.6667C13.7071 11.6667 13.334 11.2936 13.334 10.8333C13.334 10.3731 13.7071 10 14.1673 10C14.6276 10 15.0007 10.3731 15.0007 10.8333Z" fill="#F57B60"/>
<path d="M10.8327 14.1667C10.8327 14.6269 10.4596 15 9.99935 15C9.53911 15 9.16602 14.6269 9.16602 14.1667C9.16602 13.7064 9.53911 13.3333 9.99935 13.3333C10.4596 13.3333 10.8327 13.7064 10.8327 14.1667Z" fill="#F57B60"/>
<path d="M10.8327 10.8333C10.8327 11.2936 10.4596 11.6667 9.99935 11.6667C9.53911 11.6667 9.16602 11.2936 9.16602 10.8333C9.16602 10.3731 9.53911 10 9.99935 10C10.4596 10 10.8327 10.3731 10.8327 10.8333Z" fill="#F57B60"/>
<path d="M6.66667 14.1667C6.66667 14.6269 6.29357 15 5.83333 15C5.3731 15 5 14.6269 5 14.1667C5 13.7064 5.3731 13.3333 5.83333 13.3333C6.29357 13.3333 6.66667 13.7064 6.66667 14.1667Z" fill="#F57B60"/>
<path d="M6.66667 10.8333C6.66667 11.2936 6.29357 11.6667 5.83333 11.6667C5.3731 11.6667 5 11.2936 5 10.8333C5 10.3731 5.3731 10 5.83333 10C6.29357 10 6.66667 10.3731 6.66667 10.8333Z" fill="#F57B60"/>
</svg>
