<svg width="222" height="222" viewBox="0 0 222 222" fill="none" xmlns="http://www.w3.org/2000/svg">
<path d="M117.451 32.375H104.553C97.943 32.375 94.638 32.375 91.674 33.411C89.8639 34.0436 88.1632 34.9538 86.6328 36.1089C84.1266 38.0005 82.2934 40.7503 78.627 46.25C76.7492 49.0668 73.9812 53.2187 72.878 54.3781C70.1443 57.2507 66.5599 59.1691 62.6532 59.8502C61.0766 60.125 59.3839 60.125 55.9986 60.125C46.9328 60.125 42.4001 60.125 38.6937 61.1741C29.4221 63.7987 22.1757 71.0451 19.5511 80.3167C18.502 84.023 18.502 88.5559 18.502 97.6217V134.125C18.502 160.288 18.502 173.369 26.6297 181.497C34.7575 189.625 47.8391 189.625 74.002 189.625H148.002C174.165 189.625 187.246 189.625 195.374 181.497C203.502 173.369 203.502 160.288 203.502 134.125V97.6217C203.502 88.5559 203.502 84.023 202.453 80.3167C199.828 71.0451 192.582 63.7987 183.31 61.1741C179.604 60.125 175.071 60.125 166.005 60.125C162.62 60.125 160.927 60.125 159.351 59.8502C155.444 59.1691 151.859 57.2507 149.126 54.3781C148.022 53.2186 145.255 49.0667 143.377 46.25C139.71 40.7503 137.877 38.0005 135.371 36.1089C133.84 34.9538 132.14 34.0436 130.33 33.411C127.366 32.375 124.061 32.375 117.451 32.375Z" stroke="#485F7D" stroke-width="5" stroke-linecap="round" stroke-linejoin="round"/>
<path d="M148.002 120.25C148.002 140.684 131.436 157.25 111.002 157.25C90.5674 157.25 74.002 140.684 74.002 120.25C74.002 99.8158 90.5674 83.25 111.002 83.25C131.436 83.25 148.002 99.8158 148.002 120.25Z" stroke="#485F7D" stroke-width="5" stroke-linecap="round" stroke-linejoin="round"/>
<path d="M175.752 87.875V87.9683" stroke="#485F7D" stroke-width="5" stroke-linecap="round" stroke-linejoin="round"/>
</svg>
