<svg width="24" height="25" viewBox="0 0 24 25" fill="none" xmlns="http://www.w3.org/2000/svg">
<rect x="4" y="4" width="16.4" height="16.4" rx="2" stroke="#485F7D" stroke-width="1.47"/>
<path d="M8.89141 8.89141C9.16589 8.61693 9.61092 8.61693 9.8854 8.89141L12.1998 11.2058L14.5143 8.89142C14.7888 8.61693 15.2338 8.61693 15.5083 8.89142C15.7827 9.1659 15.7827 9.61092 15.5083 9.88541L13.1938 12.1998L15.5082 14.5143C15.7827 14.7887 15.7827 15.2338 15.5082 15.5082C15.2338 15.7827 14.7887 15.7827 14.5143 15.5082L12.1998 13.1938L9.8854 15.5083C9.61092 15.7827 9.1659 15.7827 8.89142 15.5083C8.61693 15.2338 8.61693 14.7887 8.89142 14.5143L11.2058 12.1998L8.89141 9.8854C8.61693 9.61092 8.61693 9.16589 8.89141 8.89141Z" fill="#485F7D" stroke="#485F7D" stroke-width="0.3" stroke-linecap="round"/>
</svg>
