<svg width="24" height="24" viewBox="0 0 24 24" fill="none" xmlns="http://www.w3.org/2000/svg">
<path d="M12 1.8501C13.3328 1.8501 14.6524 2.11352 15.8838 2.62354C17.1152 3.13362 18.2342 3.88122 19.1768 4.82373C20.1193 5.76624 20.8669 6.88525 21.377 8.1167C21.887 9.34808 22.1504 10.6677 22.1504 12.0005C22.1504 13.3333 21.887 14.6529 21.377 15.8843C20.8669 17.1157 20.1193 18.2347 19.1768 19.1772C18.2343 20.1197 17.1152 20.8674 15.8838 21.3774C14.6524 21.8874 13.3328 22.1509 12 22.1509H1.9209V22.1499L1.90918 22.1509C1.90145 22.1509 1.89387 22.1489 1.88672 22.146C1.87946 22.143 1.87273 22.1388 1.86719 22.1333C1.86165 22.1278 1.85744 22.121 1.85449 22.1138C1.85159 22.1066 1.84955 22.099 1.84961 22.0913V12.0005C1.84961 9.30857 2.91978 6.72721 4.82324 4.82373C6.72672 2.92025 9.30808 1.85011 12 1.8501Z" stroke="#296BFF" stroke-width="1.7" stroke-linecap="round" stroke-linejoin="round"/>
<path d="M12 15.0005C13.1046 15.0005 14 14.1051 14 13.0005C14 11.8959 13.1046 11.0005 12 11.0005C10.8954 11.0005 10 11.8959 10 13.0005C10 14.1051 10.8954 15.0005 12 15.0005Z" fill="#296BFF"/>
<path d="M18 15.0005C19.1046 15.0005 20 14.1051 20 13.0005C20 11.8959 19.1046 11.0005 18 11.0005C16.8954 11.0005 16 11.8959 16 13.0005C16 14.1051 16.8954 15.0005 18 15.0005Z" fill="#296BFF"/>
<path d="M6 15.0005C7.10457 15.0005 8 14.1051 8 13.0005C8 11.8959 7.10457 11.0005 6 11.0005C4.89543 11.0005 4 11.8959 4 13.0005C4 14.1051 4.89543 15.0005 6 15.0005Z" fill="#296BFF"/>
</svg>
