<svg width="24" height="24" viewBox="0 0 24 24" fill="none" xmlns="http://www.w3.org/2000/svg">
<path fill-rule="evenodd" clip-rule="evenodd" d="M5.72488 2.07553C5.2364 2.32951 5.20909 3.19025 5.67937 3.51196C5.74852 3.55928 7.34137 3.57864 12.7506 3.5979L19.7326 3.62278L19.9695 3.76162C20.2378 3.91892 20.4336 4.16001 20.5619 4.49108C20.6485 4.71451 20.65 4.77597 20.6705 9.08055C20.6911 13.39 20.6924 13.4453 20.7773 13.581C20.9406 13.8421 21.0738 13.9236 21.3375 13.9236C21.6011 13.9236 21.7343 13.8421 21.8976 13.5809C21.9826 13.445 21.9837 13.3981 21.9952 9.13031C22.0083 4.28118 22.0166 4.4344 21.7033 3.68717C21.3669 2.88481 20.6895 2.26706 19.9411 2.0801C19.5255 1.9763 5.92413 1.97192 5.72488 2.07553ZM4.03879 5.26767C3.31216 5.45398 2.6278 6.08382 2.29846 6.86936C1.97616 7.63809 1.99242 7.2177 2.0055 14.4461L2.01713 20.8903L2.13343 21.173C2.40121 21.824 3.00987 22.1426 3.59665 21.9389C3.79577 21.8699 4.04971 21.6639 5.10672 20.714C5.80563 20.086 6.41867 19.5606 6.46902 19.5464C6.51941 19.5323 8.97099 19.5154 11.917 19.5088L17.2733 19.4969L17.5762 19.3647C18.4556 18.981 19.0571 18.1694 19.2732 17.0751C19.3259 16.8083 19.3355 16.085 19.336 12.3516C19.3366 8.12556 19.3332 7.92726 19.2544 7.55942C19.0637 6.66927 18.5718 5.92697 17.9194 5.54514C17.2796 5.17068 17.7157 5.19168 10.6456 5.19512C5.38792 5.19765 4.26363 5.21004 4.03879 5.26767ZM17.3017 6.9464C17.5701 7.10369 17.7658 7.34479 17.8941 7.67586C17.9813 7.90079 17.9819 7.93273 17.9819 12.356C17.9819 16.7794 17.9813 16.8113 17.8941 17.0362C17.7658 17.3673 17.5701 17.6084 17.3017 17.7657L17.0649 17.9045L11.6252 17.9294L6.18549 17.9543L5.93735 18.0736C5.76803 18.155 5.31472 18.5308 4.50968 19.257L3.33017 20.3211V14.2078C3.33017 7.5103 3.31904 7.81823 3.57614 7.3945C3.72837 7.14365 3.91453 6.98357 4.1838 6.872C4.37972 6.79084 4.79847 6.78596 10.729 6.79641L17.0649 6.80756L17.3017 6.9464ZM7.67384 11.766C7.3946 11.9794 7.2961 12.4538 7.45967 12.7971C7.60044 13.0926 7.72953 13.1771 8.04041 13.1771C8.24557 13.1771 8.33903 13.1529 8.42535 13.0776C8.56316 12.9573 8.70734 12.6265 8.70734 12.4307C8.70734 12.2174 8.55999 11.8979 8.40318 11.7713C8.2161 11.6203 7.86779 11.6178 7.67384 11.766ZM10.3416 11.766C10.0623 11.9794 9.96385 12.4538 10.1274 12.7971C10.2682 13.0926 10.3973 13.1771 10.7082 13.1771C10.9133 13.1771 11.0068 13.1529 11.0931 13.0776C11.2309 12.9573 11.3751 12.6265 11.3751 12.4307C11.3751 12.2174 11.2277 11.8979 11.0709 11.7713C10.8838 11.6203 10.5355 11.6178 10.3416 11.766ZM12.9303 11.7627C12.7802 11.8775 12.6256 12.2164 12.6256 12.4307C12.6256 12.6253 12.7696 12.9573 12.9047 13.0743C13.0616 13.2101 13.4074 13.2361 13.6008 13.1265C13.794 13.0171 13.9595 12.6936 13.9593 12.4263C13.959 12.1936 13.8177 11.8929 13.6444 11.7566C13.4741 11.6225 13.1095 11.6257 12.9303 11.7627Z" fill="#004EFC"/>
</svg>
