<svg width="24" height="24" viewBox="0 0 24 24" fill="none" xmlns="http://www.w3.org/2000/svg">
<rect x="4" y="3.5" width="16.4" height="16.4" rx="2" stroke="#FC2626" stroke-width="1.47"/>
<path d="M12.0366 7.01771C9.79763 7.10015 7.97088 8.90954 7.87108 11.1528C7.83398 11.8963 7.98992 12.6366 8.32371 13.3019C8.6575 13.9673 9.1578 14.5349 9.77594 14.9495V15.6915C9.77594 15.8756 9.84908 16.0522 9.97928 16.1824C10.1095 16.3126 10.2861 16.3858 10.4702 16.3858H10.8173C10.8633 16.3858 10.9075 16.3675 10.94 16.3349C10.9726 16.3024 10.9909 16.2582 10.9909 16.2122V15.1838C10.9894 15.0938 11.0222 15.0065 11.0826 14.9397C11.143 14.8728 11.2265 14.8314 11.3163 14.8237C11.3637 14.8207 11.4112 14.8275 11.4558 14.8436C11.5005 14.8597 11.5413 14.8848 11.5759 14.9174C11.6105 14.9499 11.638 14.9892 11.6568 15.0328C11.6756 15.0764 11.6852 15.1234 11.6851 15.1708V16.2122C11.6851 16.2582 11.7034 16.3024 11.736 16.3349C11.7685 16.3675 11.8127 16.3858 11.8587 16.3858H12.5529C12.599 16.3858 12.6431 16.3675 12.6757 16.3349C12.7082 16.3024 12.7265 16.2582 12.7265 16.2122V15.1838C12.7251 15.0938 12.7579 15.0065 12.8183 14.9397C12.8787 14.8728 12.9622 14.8314 13.0519 14.8237C13.0993 14.8207 13.1468 14.8275 13.1914 14.8436C13.2361 14.8597 13.277 14.8848 13.3115 14.9174C13.3461 14.9499 13.3736 14.9892 13.3924 15.0328C13.4112 15.0764 13.4208 15.1234 13.4208 15.1708V16.2122C13.4208 16.2582 13.439 16.3024 13.4716 16.3349C13.5041 16.3675 13.5483 16.3858 13.5943 16.3858H13.9414C14.1256 16.3858 14.3022 16.3126 14.4324 16.1824C14.5626 16.0522 14.6357 15.8756 14.6357 15.6915V14.9495C15.4178 14.4214 16.0065 13.6528 16.3124 12.76C16.6183 11.8672 16.6249 10.8991 16.331 10.0023C16.0371 9.10546 15.4589 8.32892 14.6839 7.79034C13.909 7.25175 12.9796 6.98051 12.0366 7.01771ZM10.6438 12.9145C10.4721 12.9145 10.3043 12.8636 10.1616 12.7683C10.0189 12.6729 9.90768 12.5374 9.84199 12.3788C9.77631 12.2202 9.75913 12.0457 9.79261 11.8774C9.8261 11.7091 9.90875 11.5544 10.0301 11.4331C10.1515 11.3117 10.3061 11.229 10.4744 11.1956C10.6428 11.1621 10.8173 11.1793 10.9758 11.2449C11.1344 11.3106 11.27 11.4219 11.3653 11.5646C11.4607 11.7073 11.5116 11.8751 11.5116 12.0467C11.5104 12.2765 11.4186 12.4966 11.2561 12.6591C11.0936 12.8216 10.8736 12.9134 10.6438 12.9145ZM13.7679 12.9145C13.5962 12.9145 13.4285 12.8636 13.2857 12.7683C13.143 12.6729 13.0318 12.5374 12.9661 12.3788C12.9004 12.2202 12.8833 12.0457 12.9167 11.8774C12.9502 11.7091 13.0329 11.5544 13.1542 11.4331C13.2756 11.3117 13.4302 11.229 13.5986 11.1956C13.7669 11.1621 13.9414 11.1793 14.1 11.2449C14.2586 11.3106 14.3941 11.4219 14.4894 11.5646C14.5848 11.7073 14.6357 11.8751 14.6357 12.0467C14.6346 12.2765 14.5428 12.4966 14.3803 12.6591C14.2178 12.8216 13.9977 12.9134 13.7679 12.9145Z" fill="#FC2626"/>
</svg>
