<svg width="20" height="20" viewBox="0 0 20 20" fill="none" xmlns="http://www.w3.org/2000/svg">
<path d="M15.5107 14.5716C15.5144 14.555 15.5176 14.5379 15.5203 14.5182H15.5107V14.5716Z" fill="black"/>
<path d="M14.8387 4.71474C14.2949 4.16987 13.5769 4.03472 12.4589 4H6.19765C5.02991 4.02724 4.28205 4.15438 3.72115 4.71474C3 5.4375 3 6.47756 3 8.36592V12.1811C3 14.0694 3 15.1111 3.72115 15.8323C4.4188 16.5299 5.41293 16.5534 7.18162 16.5534C7.26122 16.5577 7.34188 16.5598 7.42147 16.5598H13.0732C13.4427 16.5606 13.8078 16.4786 14.1416 16.32C14.0445 16.1613 13.9933 15.9788 13.9936 15.7927V15.0288H13.3269C13.1924 15.0319 13.0587 15.0081 12.9335 14.9588C12.8083 14.9095 12.6943 14.8356 12.5981 14.7416C12.5018 14.6475 12.4254 14.5352 12.3732 14.4112C12.321 14.2872 12.2941 14.154 12.2941 14.0195C12.2941 13.885 12.321 13.7518 12.3732 13.6278C12.4254 13.5038 12.5018 13.3915 12.5981 13.2974C12.6943 13.2034 12.8083 13.1295 12.9335 13.0802C13.0587 13.0309 13.1924 13.0071 13.3269 13.0102H13.9925V12.344C13.9926 12.1614 14.0421 11.9823 14.1359 11.8256C14.2298 11.669 14.3643 11.5408 14.5253 11.4546C14.6863 11.3684 14.8676 11.3275 15.05 11.3363C15.2323 11.345 15.4089 11.4031 15.5609 11.5043V8.36592C15.5609 6.47756 15.5609 5.43697 14.8387 4.71474ZM12.3611 5.11538L12.453 5.11806H12.36L12.3611 5.11538ZM6.19765 5.11592L6.20513 5.11538V5.11966C6.20513 5.11966 6.20513 5.11966 6.20513 5.11645L6.19765 5.11592ZM10.9936 13.6923H7.25427C7.10651 13.6923 6.96479 13.6336 6.8603 13.5291C6.75582 13.4246 6.69712 13.2829 6.69712 13.1352C6.69712 12.9874 6.75582 12.8457 6.8603 12.7412C6.96479 12.6367 7.10651 12.578 7.25427 12.578H10.9936C11.1414 12.578 11.2831 12.6367 11.3876 12.7412C11.492 12.8457 11.5507 12.9874 11.5507 13.1352C11.5507 13.2829 11.492 13.4246 11.3876 13.5291C11.2831 13.6336 11.1414 13.6923 10.9936 13.6923ZM11.6683 11.4663H6.67254C6.52783 11.4619 6.39055 11.4012 6.28977 11.2973C6.18899 11.1933 6.13263 11.0542 6.13263 10.9095C6.13263 10.7647 6.18899 10.6256 6.28977 10.5216C6.39055 10.4177 6.52783 10.357 6.67254 10.3526H11.6683C11.813 10.357 11.9503 10.4177 12.051 10.5216C12.1518 10.6256 12.2082 10.7647 12.2082 10.9095C12.2082 11.0542 12.1518 11.1933 12.051 11.2973C11.9503 11.4012 11.813 11.4619 11.6683 11.4663ZM13.0091 8.77831C12.9848 8.90959 12.9148 9.02803 12.8116 9.11269C12.7083 9.19735 12.5785 9.24277 12.445 9.24092L6.11538 9.24039C5.98189 9.24224 5.85204 9.19682 5.7488 9.11216C5.64557 9.0275 5.5756 8.90905 5.55128 8.77778C5.53772 8.69801 5.54167 8.61624 5.56288 8.53816C5.58408 8.46007 5.62202 8.38753 5.67406 8.32558C5.72611 8.26362 5.79101 8.21373 5.86427 8.17937C5.93752 8.14502 6.01738 8.12701 6.09829 8.1266H12.4599C12.5411 8.12669 12.6212 8.14447 12.6948 8.17873C12.7684 8.21299 12.8336 8.26288 12.8858 8.32494C12.9381 8.38699 12.9763 8.45971 12.9975 8.53801C13.0188 8.61632 13.0228 8.69833 13.0091 8.77831Z" fill="#485F7D"/>
<path d="M12.4482 5.11806H12.4551L12.3632 5.11538C12.3632 5.11538 12.3632 5.11538 12.3632 5.11806H12.4482Z" fill="black"/>
<path d="M17 14.024C16.9996 14.1557 16.9471 14.2818 16.854 14.3749C16.761 14.4679 16.6348 14.5204 16.5032 14.5208H15.5107V15.5134C15.5103 15.645 15.4578 15.7711 15.3647 15.8642C15.2716 15.9573 15.1455 16.0097 15.0139 16.0102C14.9143 16.0102 14.8171 15.98 14.735 15.9236C14.6682 15.878 14.6135 15.8169 14.5756 15.7454C14.5377 15.6739 14.5178 15.5943 14.5176 15.5134V14.5235H13.5235C13.4569 14.5257 13.3906 14.5145 13.3284 14.4905C13.2663 14.4665 13.2096 14.4303 13.1617 14.384C13.1139 14.3377 13.0758 14.2822 13.0498 14.2208C13.0238 14.1595 13.0104 14.0936 13.0104 14.027C13.0104 13.9604 13.0238 13.8944 13.0498 13.8331C13.0758 13.7718 13.1139 13.7163 13.1617 13.67C13.2096 13.6237 13.2663 13.5874 13.3284 13.5635C13.3906 13.5395 13.4569 13.5283 13.5235 13.5304H14.516V12.5347C14.5203 12.4059 14.5744 12.2837 14.6671 12.194C14.7597 12.1043 14.8836 12.0542 15.0126 12.0542C15.1415 12.0542 15.2654 12.1043 15.358 12.194C15.4507 12.2837 15.5049 12.4059 15.5091 12.5347V13.5278H16.5016C16.6335 13.5276 16.76 13.5798 16.8534 13.6728C16.9469 13.7659 16.9996 13.8922 17 14.024Z" fill="#485F7D"/>
</svg>
