<svg width="24" height="25" viewBox="0 0 24 25" fill="none" xmlns="http://www.w3.org/2000/svg">
<path d="M12.7119 2.5C12.7581 2.50698 12.8043 2.51783 12.8505 2.52093C13.4559 2.54953 14.0522 2.67764 14.6151 2.9C15.0092 3.05035 15.3682 3.27879 15.6701 3.57132C15.805 3.70429 15.9169 3.85827 16.0014 4.02713C16.0944 4.2046 16.143 4.40161 16.143 4.60155C16.143 4.80149 16.0944 4.9985 16.0014 5.17597C15.871 5.42832 15.6856 5.64888 15.4586 5.82171C15.0717 6.11767 14.63 6.33573 14.1585 6.46357C13.7636 6.57784 13.3573 6.64907 12.9468 6.67597C12.2221 6.7306 11.4934 6.65174 10.7977 6.44341C10.3241 6.31192 9.88266 6.08583 9.50068 5.77907C9.28221 5.60606 9.1065 5.38601 8.98689 5.13566C8.90545 4.96488 8.86432 4.77801 8.86663 4.58918C8.86893 4.40035 8.91461 4.21451 9.00021 4.04574C9.13012 3.78867 9.31764 3.56436 9.54846 3.38992C9.87937 3.13168 10.2537 2.93328 10.6544 2.80388C11.1501 2.63959 11.6664 2.54411 12.1887 2.52016C12.2292 2.51577 12.2695 2.50904 12.3093 2.5H12.7119Z" fill="#485F7D"/>
<path d="M3.00862 14.9891C3.00394 14.6733 3.05893 14.3594 3.17074 14.0636C3.22959 13.9111 3.31232 13.7688 3.41589 13.6419C3.72917 13.2705 4.13409 13.1326 4.60951 13.1767C5.11625 13.2271 5.54936 13.4519 5.95507 13.7457C6.45511 14.1185 6.88398 14.5766 7.22153 15.0984C7.61171 15.6766 7.89396 16.3193 8.05487 16.9961C8.14654 17.3711 8.18164 17.7575 8.15903 18.1426C8.14582 18.4156 8.0821 18.6839 7.97106 18.9341C7.79406 19.3217 7.51601 19.5938 7.09386 19.7093C6.81221 19.7767 6.51749 19.7684 6.24016 19.6853C5.84947 19.574 5.48483 19.3875 5.16715 19.1364C4.63333 18.7248 4.18178 18.2182 3.83569 17.6426C3.50852 17.1198 3.26815 16.5485 3.12375 15.9504C3.04785 15.6355 3.00922 15.3129 3.00862 14.9891Z" fill="#485F7D"/>
<path d="M3 9.99147C3.017 9.45441 3.12611 8.92412 3.32268 8.42326C3.63628 7.57588 4.14217 6.81103 4.80139 6.1876C5.11299 5.88734 5.47467 5.64265 5.87048 5.46434C6.14328 5.33648 6.44114 5.26953 6.74298 5.26822C6.97089 5.26395 7.19576 5.32042 7.39404 5.43171C7.59233 5.54299 7.75673 5.70501 7.87003 5.90078C8.01946 6.14935 8.11147 6.42758 8.13945 6.7155C8.21778 7.35116 8.10499 7.96512 7.89352 8.56279C7.5682 9.51108 7.00178 10.3605 6.24877 11.0295C5.90417 11.3461 5.49655 11.5879 5.05202 11.7395C4.76489 11.8429 4.45534 11.8696 4.15446 11.8171C3.98905 11.7853 3.8318 11.7209 3.69212 11.6277C3.55243 11.5345 3.43318 11.4143 3.34148 11.2744C3.17696 11.027 3.07366 10.7447 3.03994 10.4504C3.0188 10.2984 3.01253 10.145 3 9.99147Z" fill="#485F7D"/>
<path d="M22 14.9558C21.9936 15.5217 21.8835 16.0816 21.675 16.6085C21.3609 17.4462 20.8581 18.202 20.2049 18.8186C19.8588 19.1562 19.4482 19.4221 18.9972 19.6008C18.7558 19.698 18.4972 19.7463 18.2367 19.7426C18.0281 19.7427 17.8227 19.6918 17.6388 19.5944C17.4549 19.4971 17.2981 19.3563 17.1824 19.1845C17.0185 18.9411 16.9135 18.6637 16.8754 18.3736C16.802 17.8378 16.8477 17.2925 17.0094 16.776C17.3103 15.6967 17.9185 14.7258 18.7614 13.9791C19.1065 13.6643 19.5145 13.4245 19.9589 13.2752C20.2403 13.1742 20.5435 13.1475 20.8385 13.1977C21.0339 13.234 21.2181 13.3148 21.3764 13.4337C21.5348 13.5527 21.663 13.7065 21.7509 13.8829C21.8781 14.1255 21.9558 14.3905 21.9796 14.6628C21.9914 14.7767 21.9961 14.8922 22 14.9558Z" fill="#485F7D"/>
<path d="M21.9992 10.1403C21.9954 10.4238 21.9372 10.7039 21.8277 10.9659C21.7759 11.0902 21.7099 11.2083 21.6311 11.3178C21.328 11.7256 20.909 11.8791 20.4093 11.8349C20.0145 11.79 19.6362 11.6526 19.3057 11.4341C18.8499 11.1473 18.4475 10.7849 18.116 10.3628C17.5624 9.68545 17.1671 8.89524 16.9584 8.04884C16.8739 7.71435 16.8338 7.37035 16.8394 7.02558C16.8395 6.70828 16.9034 6.39418 17.0274 6.10155C17.2012 5.71395 17.4777 5.43023 17.9022 5.3155C18.1612 5.24961 18.4328 5.24961 18.6917 5.3155C19.0029 5.39113 19.2986 5.51937 19.5658 5.69457C20.0438 6.00416 20.4625 6.39524 20.8025 6.84961C21.3253 7.51832 21.6966 8.29059 21.8911 9.11395C21.9673 9.45076 22.0036 9.7952 21.9992 10.1403Z" fill="#485F7D"/>
<path d="M12.6375 22.5C11.7916 22.5 11.1016 22.3907 10.4398 22.1318C10.0256 21.9794 9.64889 21.7416 9.33464 21.4341C9.20173 21.3035 9.09139 21.1521 9.00804 20.986C8.91301 20.8042 8.8644 20.6021 8.86645 20.3974C8.86849 20.1927 8.92114 19.9916 9.01979 19.8116C9.16237 19.548 9.3638 19.32 9.60876 19.145C9.98207 18.8736 10.4022 18.6719 10.8486 18.5496C11.2403 18.4358 11.6435 18.3648 12.0508 18.338C12.7629 18.2816 13.4794 18.3535 14.1655 18.5504C14.5967 18.669 15.0034 18.8618 15.367 19.1202C15.5868 19.275 15.7749 19.4696 15.9215 19.6938C16.0693 19.915 16.1463 20.1751 16.1423 20.4403C16.1331 20.6957 16.0502 20.9432 15.9035 21.1535C15.7237 21.4151 15.4902 21.6362 15.2181 21.8023C14.7885 22.07 14.314 22.2595 13.817 22.362C13.4299 22.4496 13.0345 22.4959 12.6375 22.5Z" fill="#485F7D"/>
</svg>
