<svg width="24" height="24" viewBox="0 0 24 24" fill="none" xmlns="http://www.w3.org/2000/svg">
<path d="M12.7119 2C12.7581 2.00698 12.8043 2.01783 12.8505 2.02093C13.4559 2.04953 14.0522 2.17764 14.6151 2.4C15.0092 2.55035 15.3682 2.77879 15.6701 3.07132C15.805 3.20429 15.9169 3.35827 16.0014 3.52713C16.0944 3.7046 16.143 3.90161 16.143 4.10155C16.143 4.30149 16.0944 4.4985 16.0014 4.67597C15.871 4.92832 15.6856 5.14888 15.4586 5.32171C15.0717 5.61767 14.63 5.83573 14.1585 5.96357C13.7636 6.07784 13.3573 6.14907 12.9468 6.17597C12.2221 6.2306 11.4934 6.15174 10.7977 5.94341C10.3241 5.81192 9.88266 5.58583 9.50068 5.27907C9.28221 5.10606 9.1065 4.88601 8.98689 4.63566C8.90545 4.46488 8.86432 4.27801 8.86663 4.08918C8.86893 3.90035 8.91461 3.71451 9.00021 3.54574C9.13012 3.28867 9.31764 3.06436 9.54846 2.88992C9.87937 2.63168 10.2537 2.43328 10.6544 2.30388C11.1501 2.13959 11.6664 2.04411 12.1887 2.02016C12.2292 2.01577 12.2695 2.00904 12.3093 2H12.7119Z" fill="#E5007A"/>
<path d="M3.00862 14.4891C3.00394 14.1733 3.05893 13.8594 3.17074 13.5636C3.22959 13.4111 3.31232 13.2688 3.41589 13.1419C3.72917 12.7705 4.13409 12.6326 4.60951 12.6767C5.11625 12.7271 5.54936 12.9519 5.95507 13.2457C6.45511 13.6185 6.88398 14.0766 7.22153 14.5984C7.61171 15.1766 7.89396 15.8193 8.05487 16.4961C8.14654 16.8711 8.18164 17.2575 8.15903 17.6426C8.14582 17.9156 8.0821 18.1839 7.97106 18.4341C7.79406 18.8217 7.51601 19.0938 7.09386 19.2093C6.81221 19.2767 6.51749 19.2684 6.24016 19.1853C5.84947 19.074 5.48483 18.8875 5.16715 18.6364C4.63333 18.2248 4.18178 17.7182 3.83569 17.1426C3.50852 16.6198 3.26815 16.0485 3.12375 15.4504C3.04785 15.1355 3.00922 14.8129 3.00862 14.4891Z" fill="#E5007A"/>
<path d="M3 9.49147C3.017 8.95441 3.12611 8.42412 3.32268 7.92326C3.63628 7.07588 4.14217 6.31103 4.80139 5.6876C5.11299 5.38734 5.47467 5.14265 5.87048 4.96434C6.14328 4.83648 6.44114 4.76953 6.74298 4.76822C6.97089 4.76395 7.19576 4.82042 7.39404 4.93171C7.59233 5.04299 7.75673 5.20501 7.87003 5.40078C8.01946 5.64935 8.11147 5.92758 8.13945 6.2155C8.21778 6.85116 8.10499 7.46512 7.89352 8.06279C7.5682 9.01108 7.00178 9.86054 6.24877 10.5295C5.90417 10.8461 5.49655 11.0879 5.05202 11.2395C4.76489 11.3429 4.45534 11.3696 4.15446 11.3171C3.98905 11.2853 3.8318 11.2209 3.69212 11.1277C3.55243 11.0345 3.43318 10.9143 3.34148 10.7744C3.17696 10.527 3.07366 10.2447 3.03994 9.95039C3.0188 9.79845 3.01253 9.64496 3 9.49147Z" fill="#E5007A"/>
<path d="M22 14.4558C21.9936 15.0217 21.8835 15.5816 21.675 16.1085C21.3609 16.9462 20.8581 17.702 20.2049 18.3186C19.8588 18.6562 19.4482 18.9221 18.9972 19.1008C18.7558 19.198 18.4972 19.2463 18.2367 19.2426C18.0281 19.2427 17.8227 19.1918 17.6388 19.0944C17.4549 18.9971 17.2981 18.8563 17.1824 18.6845C17.0185 18.4411 16.9135 18.1637 16.8754 17.8736C16.802 17.3378 16.8477 16.7925 17.0094 16.276C17.3103 15.1967 17.9185 14.2258 18.7614 13.4791C19.1065 13.1643 19.5145 12.9245 19.9589 12.7752C20.2403 12.6742 20.5435 12.6475 20.8385 12.6977C21.0339 12.734 21.2181 12.8148 21.3764 12.9337C21.5348 13.0527 21.663 13.2065 21.7509 13.3829C21.8781 13.6255 21.9558 13.8905 21.9796 14.1628C21.9914 14.2767 21.9961 14.3922 22 14.4558Z" fill="#E5007A"/>
<path d="M21.9992 9.64031C21.9954 9.92378 21.9372 10.2039 21.8277 10.4659C21.7759 10.5902 21.7099 10.7083 21.6311 10.8178C21.328 11.2256 20.909 11.3791 20.4093 11.3349C20.0145 11.29 19.6362 11.1526 19.3057 10.9341C18.8499 10.6473 18.4475 10.2849 18.116 9.86279C17.5624 9.18545 17.1671 8.39524 16.9584 7.54884C16.8739 7.21435 16.8338 6.87035 16.8394 6.52558C16.8395 6.20828 16.9034 5.89418 17.0274 5.60155C17.2012 5.21395 17.4777 4.93023 17.9022 4.8155C18.1612 4.74961 18.4328 4.74961 18.6917 4.8155C19.0029 4.89113 19.2986 5.01937 19.5658 5.19457C20.0438 5.50416 20.4625 5.89524 20.8025 6.34961C21.3253 7.01832 21.6966 7.79059 21.8911 8.61395C21.9673 8.95076 22.0036 9.2952 21.9992 9.64031Z" fill="#E5007A"/>
<path d="M12.6375 22C11.7916 22 11.1016 21.8907 10.4398 21.6318C10.0256 21.4794 9.64889 21.2416 9.33464 20.9341C9.20173 20.8035 9.09139 20.6521 9.00804 20.486C8.91301 20.3042 8.8644 20.1021 8.86645 19.8974C8.86849 19.6927 8.92114 19.4916 9.01979 19.3116C9.16237 19.048 9.3638 18.82 9.60876 18.645C9.98207 18.3736 10.4022 18.1719 10.8486 18.0496C11.2403 17.9358 11.6435 17.8648 12.0508 17.838C12.7629 17.7816 13.4794 17.8535 14.1655 18.0504C14.5967 18.169 15.0034 18.3618 15.367 18.6202C15.5868 18.775 15.7749 18.9696 15.9215 19.1938C16.0693 19.415 16.1463 19.6751 16.1423 19.9403C16.1331 20.1957 16.0502 20.4432 15.9035 20.6535C15.7237 20.9151 15.4902 21.1362 15.2181 21.3023C14.7885 21.57 14.314 21.7595 13.817 21.862C13.4299 21.9496 13.0345 21.9959 12.6375 22Z" fill="#E5007A"/>
</svg>
