<svg width="24" height="24" viewBox="0 0 24 24" fill="none" xmlns="http://www.w3.org/2000/svg">
<rect x="4" y="3.5" width="16.4" height="16.4" rx="2" stroke="#00B252" stroke-width="1.47"/>
<path d="M8.89165 8.39159C9.16614 8.11711 9.61116 8.11711 9.88564 8.39159L12.2001 10.706L14.5145 8.3916C14.789 8.11712 15.234 8.11712 15.5085 8.3916C15.783 8.66608 15.783 9.11111 15.5085 9.38559L13.1941 11.7L15.5085 14.0144C15.783 14.2889 15.783 14.7339 15.5085 15.0084C15.234 15.2829 14.789 15.2829 14.5145 15.0084L12.2001 12.694L9.88565 15.0084C9.61117 15.2829 9.16614 15.2829 8.89166 15.0084C8.61718 14.734 8.61718 14.2889 8.89166 14.0145L11.2061 11.7L8.89165 9.38558C8.61717 9.1111 8.61717 8.66607 8.89165 8.39159Z" fill="#00B252" stroke="#00B252" stroke-width="0.3" stroke-linecap="round"/>
</svg>
