<svg width="20" height="20" viewBox="0 0 20 20" fill="none" xmlns="http://www.w3.org/2000/svg">
<path fill-rule="evenodd" clip-rule="evenodd" d="M19 2H16V1C16 0.447715 15.5523 0 15 0H5C4.44772 0 4 0.447715 4 1V2H1C0.447715 2 0 2.44772 0 3C0 3.55228 0.447715 4 1 4H2V8C2 8.05756 1.99925 8.11987 1.99847 8.1856C1.99676 8.32851 1.99486 8.48761 2 8.64928V17C2 18.6569 3.34315 20 5 20H15C16.6569 20 18 18.6569 18 17V8.87553C18.0153 8.66318 18.0096 8.44535 18.0045 8.25055C18.0022 8.16128 18 8.07685 18 8V4H19C19.5523 4 20 3.55228 20 3C20 2.44772 19.5523 2 19 2ZM7 8C7 7.44771 7.44771 7 8 7C8.55229 7 9 7.44771 9 8V14C9 14.5523 8.55229 15 8 15C7.44771 15 7 14.5523 7 14V8ZM11 8C11 7.44771 11.4477 7 12 7C12.5523 7 13 7.44771 13 8V14C13 14.5523 12.5523 15 12 15C11.4477 15 11 14.5523 11 14V8Z" fill="#485F7D"/>
</svg>
