<svg width="20" height="21" viewBox="0 0 20 21" fill="none" xmlns="http://www.w3.org/2000/svg">
<mask id="path-1-inside-1_435_89210" fill="white">
<path d="M12.0024 11.1488C12.5961 11.1488 13.1764 10.9684 13.67 10.6305C14.1636 10.2926 14.5483 9.81227 14.7753 9.25035C15.0024 8.68844 15.0617 8.07016 14.9457 7.47372C14.8297 6.87728 14.5437 6.32947 14.1237 5.89961C13.7037 5.46975 13.1688 5.17713 12.5864 5.05878C12.0041 4.94043 11.4006 5.00166 10.8522 5.23473C10.3039 5.46779 9.83531 5.86222 9.50582 6.36813C9.17634 6.87403 9.00072 7.46867 9.00119 8.07683C9.00166 8.89184 9.31808 9.67329 9.88088 10.2494C10.4437 10.8254 11.2068 11.149 12.0024 11.1488Z"/>
<path d="M6 17C6 14.3394 8.68752 12.1827 12 12.1827C15.3149 12.1827 18 14.3394 18 17"/>
</mask>
<path d="M6 17V17.6H12V17V16.4H6V17ZM12 17V17.6H18V17V16.4H12V17ZM12.0024 11.1488L12.0024 9.94879H12.0021L12.0024 11.1488ZM9.00119 8.07683L10.2012 8.07613V8.0759L9.00119 8.07683ZM12.0024 11.1488L12.0024 12.3488C12.84 12.3488 13.6563 12.0942 14.3479 11.6207L13.67 10.6305L12.9921 9.64032C12.6965 9.84267 12.3521 9.94879 12.0024 9.94879L12.0024 11.1488ZM13.67 10.6305L14.3479 11.6207C15.0391 11.1474 15.5736 10.4779 15.8879 9.69997L14.7753 9.25035L13.6628 8.80073C13.523 9.14667 13.288 9.43771 12.9921 9.64032L13.67 10.6305ZM14.7753 9.25035L15.8879 9.69997C16.2022 8.92232 16.2838 8.06825 16.1237 7.24463L14.9457 7.47372L13.7678 7.7028C13.8396 8.07206 13.8027 8.45456 13.6628 8.80073L14.7753 9.25035ZM14.9457 7.47372L16.1237 7.24463C15.9635 6.42089 15.5677 5.66046 14.9821 5.06103L14.1237 5.89961L13.2653 6.73819C13.5196 6.99849 13.696 7.33366 13.7678 7.7028L14.9457 7.47372ZM14.1237 5.89961L14.9821 5.06103C14.3961 4.46128 13.6462 4.04963 12.8254 3.88282L12.5864 5.05878L12.3474 6.23474C12.6913 6.30463 13.0113 6.47821 13.2653 6.73819L14.1237 5.89961ZM12.5864 5.05878L12.8254 3.88282C12.0045 3.71597 11.154 3.80257 10.3828 4.13034L10.8522 5.23473L11.3216 6.33911C11.6472 6.20074 12.0037 6.16488 12.3474 6.23474L12.5864 5.05878ZM10.8522 5.23473L10.3828 4.13034C9.612 4.45797 8.95803 5.01039 8.50028 5.71323L9.50582 6.36813L10.5114 7.02302C10.7126 6.71405 10.9957 6.47762 11.3216 6.33911L10.8522 5.23473ZM9.50582 6.36813L8.50028 5.71323C8.04273 6.41576 7.80054 7.23857 7.80119 8.07776L9.00119 8.07683L10.2012 8.0759C10.2009 7.69877 10.3099 7.3323 10.5114 7.02302L9.50582 6.36813ZM9.00119 8.07683L7.80119 8.07753C7.80184 9.20151 8.23795 10.2849 9.02252 11.0879L9.88088 10.2494L10.7392 9.41078C10.3982 9.06171 10.2015 8.58217 10.2012 8.07613L9.00119 8.07683ZM9.88088 10.2494L9.02252 11.0879C9.80805 11.892 10.8794 12.349 12.0026 12.3488L12.0024 11.1488L12.0021 9.94879C11.5342 9.94889 11.0793 9.75886 10.7392 9.41078L9.88088 10.2494ZM6 17H7.2C7.2 15.2348 9.09074 13.3827 12 13.3827V12.1827V10.9827C8.28431 10.9827 4.8 13.444 4.8 17H6ZM12 12.1827V13.3827C14.9113 13.3827 16.8 15.2346 16.8 17H18H19.2C19.2 13.4443 15.7184 10.9827 12 10.9827V12.1827Z" fill="#485F7D" mask="url(#path-1-inside-1_435_89210)"/>
<path d="M5 7.5C5.04972 7.5 5.09791 7.51482 5.13867 7.54199L5.17676 7.57324C5.22364 7.62013 5.25 7.6837 5.25 7.75V9.75H7.25C7.29972 9.75 7.34791 9.76482 7.38867 9.79199L7.42676 9.82324C7.47364 9.87013 7.5 9.9337 7.5 10C7.5 10.0497 7.48518 10.0979 7.45801 10.1387L7.42676 10.1768C7.37987 10.2236 7.3163 10.25 7.25 10.25H5.25V12.25C5.25 12.2664 5.24831 12.2828 5.24512 12.2988L5.23145 12.3457C5.21888 12.376 5.19997 12.4035 5.17676 12.4268C5.16509 12.4384 5.15234 12.4489 5.13867 12.458L5.0957 12.4814C5.06541 12.494 5.03278 12.5 5 12.5C4.96722 12.5 4.93459 12.494 4.9043 12.4814C4.87397 12.4689 4.84646 12.45 4.82324 12.4268C4.81157 12.4151 4.8011 12.4023 4.79199 12.3887L4.76855 12.3457C4.75603 12.3154 4.75 12.2828 4.75 12.25V10.25H2.75C2.73356 10.25 2.71722 10.2483 2.70117 10.2451L2.6543 10.2314C2.63921 10.2252 2.62485 10.217 2.61133 10.208L2.57324 10.1768C2.56157 10.1651 2.5511 10.1523 2.54199 10.1387L2.51855 10.0957C2.50603 10.0654 2.5 10.0328 2.5 10C2.5 9.98356 2.50169 9.96722 2.50488 9.95117L2.51855 9.9043C2.5248 9.88921 2.53298 9.87485 2.54199 9.86133L2.57324 9.82324C2.58491 9.81157 2.59766 9.8011 2.61133 9.79199L2.6543 9.76855C2.68459 9.75603 2.71722 9.75 2.75 9.75H4.75V7.75C4.75 7.70028 4.76482 7.65209 4.79199 7.61133L4.82324 7.57324C4.87013 7.52636 4.9337 7.5 5 7.5Z" stroke="#485F7D"/>
<path d="M12 12.5996C14.8214 12.5996 16.9921 14.3247 17.3477 16.4004H6.65234C7.00792 14.3247 9.17859 12.5996 12 12.5996Z" stroke="#485F7D" stroke-width="1.2"/>
</svg>
