<svg width="20" height="20" viewBox="0 0 20 20" fill="none" xmlns="http://www.w3.org/2000/svg">
<g clip-path="url(#clip0_2881_86979)">
<path fill-rule="evenodd" clip-rule="evenodd" d="M7.43127 4.24411C6.50179 4.45063 5.79404 4.67814 4.91856 5.05186C4.77381 5.11364 4.75087 5.13881 4.54901 5.45785C3.58116 6.9875 2.95514 8.56104 2.67181 10.1763C2.52448 11.0161 2.49662 11.3806 2.50031 12.4191C2.50221 12.9508 2.5149 13.458 2.52855 13.5461L2.55334 13.7063L2.9342 13.9652C3.88617 14.6124 4.87687 15.1117 5.9131 15.4667C6.1263 15.5397 6.31696 15.5932 6.33679 15.5856C6.40848 15.5581 7.1383 14.3925 7.1383 14.3055C7.1383 14.2949 7.06251 14.2563 6.96984 14.2198C6.74039 14.1293 5.99059 13.7568 5.94099 13.7087C5.89031 13.6595 5.90317 13.6399 6.05962 13.5276L6.18691 13.4361L6.4795 13.561C8.025 14.2207 9.79362 14.4345 11.4303 14.1594C12.1842 14.0327 12.8683 13.825 13.6731 13.4786C13.776 13.4343 13.7787 13.435 13.9075 13.5369C13.9791 13.5936 14.0377 13.6553 14.0377 13.674C14.0377 13.715 13.4267 14.0355 13.1002 14.1657C12.9713 14.217 12.8538 14.2697 12.8392 14.2828C12.7812 14.3341 13.5409 15.5936 13.6316 15.5967C13.65 15.5973 13.8214 15.5439 14.0125 15.4781C15.0915 15.1066 16.0677 14.6165 17.026 13.9653L17.4069 13.7065L17.4263 13.5462C17.437 13.458 17.4551 13.0826 17.4666 12.712C17.5467 10.1284 16.8784 7.77143 15.4094 5.45659L15.1927 5.11523L14.791 4.94826C14.0499 4.64026 13.084 4.34773 12.37 4.21508L12.1085 4.1665L12.0561 4.23518C12.0273 4.27291 11.9343 4.45361 11.8494 4.63669L11.695 4.96956L11.548 4.95154C11.4671 4.94164 11.2758 4.91773 11.1227 4.89846C10.7596 4.85273 9.23385 4.85249 8.85217 4.89811C8.69103 4.91738 8.49328 4.9407 8.41271 4.94993L8.26623 4.96675L8.0758 4.57669C7.85379 4.12191 7.89217 4.14172 7.43127 4.24411ZM8.03015 9.07552C8.41134 9.2639 8.69033 9.62979 8.79668 10.0808C8.85492 10.3277 8.83679 10.734 8.75695 10.9717C8.41831 11.9799 7.31344 12.2856 6.59648 11.5694C6.12738 11.1009 6.01312 10.3406 6.3184 9.71891C6.48466 9.38033 6.75826 9.13485 7.10478 9.01332C7.26761 8.95622 7.34165 8.94705 7.55757 8.95728C7.78131 8.96789 7.84424 8.98365 8.03015 9.07552ZM13.016 9.07816C13.5172 9.32589 13.8188 9.8383 13.8175 10.4403C13.8167 10.8796 13.6792 11.2443 13.4025 11.5407C12.64 12.3579 11.4089 11.9307 11.1635 10.7638C11.0347 10.151 11.3024 9.46954 11.7964 9.15251C12.0372 8.998 12.2396 8.94495 12.538 8.95813C12.7642 8.96812 12.8234 8.983 13.016 9.07816Z" fill="#96A4B6"/>
</g>
<defs>
<clipPath id="clip0_2881_86979">
<rect width="20" height="20" fill="white"/>
</clipPath>
</defs>
</svg>
