<svg width="16" height="16" viewBox="0 0 16 16" fill="none" xmlns="http://www.w3.org/2000/svg">
<path d="M13.334 2.66602H2.66732C1.93398 2.66602 1.34065 3.26602 1.34065 3.99935L1.33398 11.9993C1.33398 12.7327 1.93398 13.3327 2.66732 13.3327H13.334C14.0673 13.3327 14.6673 12.7327 14.6673 11.9993V3.99935C14.6673 3.26602 14.0673 2.66602 13.334 2.66602ZM13.0673 5.49935L8.35398 8.44602C8.14065 8.57935 7.86065 8.57935 7.64732 8.44602L2.93398 5.49935C2.76732 5.39268 2.66732 5.21268 2.66732 5.01935C2.66732 4.57268 3.15398 4.30602 3.53398 4.53935L8.00065 7.33268L12.4673 4.53935C12.8473 4.30602 13.334 4.57268 13.334 5.01935C13.334 5.21268 13.234 5.39268 13.0673 5.49935Z" fill="white"/>
</svg>
