<svg width="16" height="16" viewBox="0 0 16 16" fill="none" xmlns="http://www.w3.org/2000/svg">
<g clip-path="url(#clip0_53_80103)">
<path d="M10.5825 14.9995H5.39301C5.26696 14.9187 5.13568 14.8351 5.1211 14.6703C5.09275 14.3469 5.16485 14.0388 5.2887 13.7411C5.29558 13.7313 5.30274 13.7217 5.30962 13.7118C5.49319 13.3023 5.7962 12.9997 6.18453 12.7878C6.57424 12.5751 7.0055 12.528 7.44282 12.5409C7.55814 12.5444 7.59309 12.5217 7.59282 12.3969C7.58841 9.72254 7.58951 7.04841 7.58951 4.374C7.58951 4.35125 7.58676 4.32796 7.59006 4.30575C7.60025 4.23778 7.56915 4.22489 7.50585 4.2227C7.40071 4.21886 7.29944 4.24819 7.19678 4.25011C6.9711 4.25477 6.74818 4.27889 6.52442 4.3052C6.09344 4.35619 5.66547 4.42389 5.24439 4.52723C4.98211 4.59164 4.71515 4.6407 4.46057 4.73664C4.59846 5.04939 4.73469 5.3594 4.87175 5.66913C5.08174 6.14333 5.29228 6.61752 5.50255 7.09172C5.71639 7.57414 5.93078 8.05628 6.1427 8.53952C6.17793 8.61956 6.21921 8.65684 6.31911 8.6593C6.61277 8.66698 6.7724 8.8498 6.76166 9.1187C6.75038 9.39801 6.6846 9.67101 6.55497 9.92099C6.2693 10.4722 5.82345 10.8505 5.25843 11.1018C4.66644 11.3652 4.05133 11.439 3.41117 11.3636C2.96615 11.3112 2.5503 11.169 2.16829 10.9445C1.71859 10.6803 1.36714 10.3182 1.15082 9.83383C1.08284 9.6817 1.06358 9.51751 1 9.36621V9.22943C1.04101 9.18393 1.04073 9.13816 1 9.09266C1 9.03784 1 8.98329 1 8.92847C1.00908 8.92025 1.02147 8.91367 1.0267 8.90353C1.101 8.75332 1.21577 8.64368 1.38833 8.6604C1.54465 8.67548 1.58676 8.57872 1.633 8.47566C1.77253 8.16455 1.90766 7.8518 2.0461 7.54042C2.31333 6.93795 2.58195 6.33575 2.84946 5.73327C2.95762 5.4896 3.06495 5.24592 3.18357 4.9773C2.91055 5.01129 2.66286 5.05761 2.41324 5.06885C2.11408 5.08228 1.81464 5.10092 1.51466 5.10613C1.26448 5.11024 1.09412 5.03102 1.00028 4.79941V4.74459C1.03908 4.70813 1.03908 4.67168 1.00028 4.63522V4.5804C1.03605 4.57492 1.06963 4.56834 1.02697 4.52531C1.04734 4.42581 1.12577 4.37455 1.20641 4.34056C1.46677 4.23038 1.74171 4.15664 2.00261 4.05084C2.51754 3.84197 3.02615 3.61639 3.53117 3.38422C4.2371 3.05941 4.87698 2.60715 5.59667 2.30838C5.89335 2.18503 6.19472 2.07539 6.51149 2.00604C6.82909 1.93642 7.14697 1.87831 7.47007 1.84432C7.54878 1.8361 7.60548 1.8043 7.59309 1.70042C7.58016 1.5927 7.58979 1.48196 7.59117 1.37259C7.59364 1.18511 7.74831 1.0127 7.94179 1.00091C8.14985 0.988305 8.3337 1.10726 8.38682 1.29448C8.43113 1.45017 8.40883 1.60832 8.41269 1.76566C8.41406 1.81719 8.41626 1.84542 8.48369 1.84843C8.75616 1.86022 9.02587 1.90682 9.29173 1.95999C9.77171 2.0562 10.2269 2.23738 10.6689 2.44159C11.1566 2.6669 11.6088 2.96183 12.0855 3.20853C12.558 3.45302 13.0438 3.67258 13.5383 3.87158C13.7001 3.93681 13.8501 4.04234 14.0169 4.08209C14.2754 4.14376 14.5189 4.24024 14.7625 4.33837C14.8759 4.38415 14.9648 4.46528 14.9774 4.60644C14.9934 4.78598 14.9601 4.94194 14.7944 5.03897C14.7308 5.07625 14.6587 5.10147 14.5795 5.10092C14.1986 5.09845 13.819 5.09818 13.4387 5.05268C13.2342 5.02828 13.027 4.99375 12.8098 4.99101C12.9133 5.22564 13.0107 5.44711 13.1087 5.66831C13.3187 6.14223 13.5295 6.61615 13.7395 7.09035C13.9533 7.57277 14.1672 8.05518 14.3794 8.53842C14.4141 8.61764 14.4542 8.65711 14.5552 8.6593C14.8577 8.66588 15.0187 8.86269 14.9986 9.13131C14.9706 9.50518 14.8665 9.85822 14.6458 10.1721C14.315 10.6432 13.8722 10.9678 13.338 11.1706C12.7922 11.3778 12.2283 11.4324 11.6476 11.3652C11.3415 11.3299 11.0561 11.2334 10.7724 11.127C10.5076 11.0275 10.2759 10.8721 10.0579 10.6926C9.52841 10.2562 9.22017 9.71569 9.23669 9.01481C9.23779 8.96301 9.25375 8.92162 9.27687 8.87858C9.36769 8.70755 9.51465 8.6445 9.70125 8.65492C9.74749 8.65738 9.78987 8.65766 9.81271 8.60256C9.86748 8.46935 9.92555 8.33751 9.98362 8.20594C10.2217 7.66623 10.4589 7.12626 10.6986 6.58737C10.9615 5.99641 11.226 5.406 11.4918 4.8164C11.5185 4.75747 11.5372 4.73856 11.4475 4.71224C11.0952 4.60973 10.7399 4.52092 10.3797 4.45212C9.97619 4.37483 9.57025 4.31672 9.161 4.27259C8.99174 4.25422 8.82083 4.27122 8.6513 4.22928C8.44131 4.17747 8.41296 4.21064 8.41296 4.42444V10.8913C8.41296 11.4063 8.41516 11.9214 8.41076 12.4361C8.40993 12.5217 8.4325 12.5436 8.51672 12.5403C8.74212 12.5318 8.9667 12.5515 9.1888 12.5924C9.97674 12.7377 10.4903 13.2014 10.765 13.9407C10.8346 14.1282 10.8605 14.3272 10.8806 14.5243C10.9039 14.7526 10.7655 14.8932 10.5819 14.9995H10.5825ZM10.6973 3.39711C10.6885 3.39053 10.6796 3.38395 10.6708 3.37737C10.2949 3.14439 9.89115 2.97828 9.46594 2.85493C9.01376 2.72391 8.5525 2.66224 8.08518 2.64141C7.90491 2.63346 7.72437 2.64442 7.54273 2.66087C7.19072 2.69267 6.84835 2.75763 6.50791 2.84945C5.80886 3.03803 5.20641 3.42534 4.5814 3.76577C4.52195 3.79812 4.43773 3.80442 4.39865 3.89159C6.79276 3.23594 9.17834 3.22908 11.5667 3.8883C11.5669 3.87624 11.5672 3.8639 11.5675 3.85184C11.4497 3.79154 11.3322 3.73096 11.2144 3.67066C11.2144 3.62543 11.1907 3.63558 11.1651 3.6501C11.0991 3.612 11.033 3.57363 10.9672 3.53553C10.9678 3.49085 10.945 3.49743 10.9183 3.5136C10.8745 3.45028 10.7669 3.47221 10.7427 3.38285C10.7314 3.38148 10.7201 3.38039 10.7088 3.37902C10.7198 3.38039 10.7306 3.38148 10.7416 3.38285C10.7311 3.40012 10.7165 3.40506 10.6975 3.39738L10.6973 3.39711ZM5.29723 8.6519C5.08889 8.18264 4.88826 7.73339 4.68955 7.28359C4.52745 6.91684 4.36865 6.54872 4.20627 6.18198C4.11518 5.9764 4.02078 5.77247 3.92528 5.56909C3.91427 5.54579 3.91482 5.50303 3.86611 5.50961C3.83748 5.51344 3.83611 5.52934 3.8262 5.55154C3.71033 5.81276 3.58979 6.07206 3.4731 6.33328C3.23641 6.86312 3.00055 7.39323 2.76607 7.92416C2.66038 8.16373 2.55938 8.40549 2.45397 8.6519H5.29723ZM10.6887 8.64889H13.5386C13.4778 8.51513 13.4205 8.39123 13.3647 8.26652C13.188 7.87346 13.0102 7.48094 12.8357 7.08678C12.6133 6.58491 12.3945 6.08166 12.1705 5.58087C12.1595 5.5562 12.1592 5.50659 12.1044 5.50933C12.0516 5.5118 12.0527 5.55949 12.042 5.58526C11.7907 6.18993 11.5138 6.78308 11.2474 7.3809C11.0616 7.7978 10.8792 8.21608 10.6887 8.64916V8.64889ZM1.91262 9.48133C1.97922 9.69787 2.09344 9.8426 2.3337 10.0537C2.6868 10.3639 3.10926 10.518 3.56447 10.5635C3.94922 10.6019 4.3348 10.5717 4.71075 10.4462C4.99394 10.3516 5.23503 10.1934 5.46512 10.0161C5.64346 9.87878 5.76345 9.69239 5.85042 9.48161H1.91289L1.91262 9.48133ZM14.0855 9.48325H10.1408C10.198 9.69513 10.3356 9.84671 10.479 9.98184C10.8456 10.3272 11.2972 10.5172 11.7921 10.5638C12.3857 10.6197 12.9595 10.5311 13.4709 10.1885C13.7403 10.0079 13.9668 9.79354 14.0855 9.48325ZM9.99105 14.177C9.88482 13.9733 9.78464 13.7976 9.61869 13.6567C9.33274 13.4139 8.99697 13.3612 8.64249 13.3596C8.21233 13.3574 7.78244 13.3601 7.35228 13.3585C7.18109 13.3579 7.01293 13.3623 6.84588 13.4122C6.44158 13.5328 6.15949 13.7801 6.00509 14.1772H9.99105V14.177Z" fill="#485F7D"/>
<path d="M1 9.0918C1.04073 9.1373 1.04101 9.18307 1 9.22857V9.0918Z" fill="#485F7D"/>
<path d="M1 4.52566C1.00881 4.52676 1.01761 4.52676 1.0267 4.52539C1.06963 4.56842 1.03578 4.575 1 4.58048V4.52566Z" fill="#485F7D"/>
<path d="M1 4.63477C1.03881 4.67122 1.03881 4.70768 1 4.74413V4.63477Z" fill="#485F7D"/>
<path d="M10.967 3.53591C10.9471 3.53618 10.9202 3.55208 10.918 3.51398C10.9449 3.49808 10.9675 3.4915 10.967 3.53591Z" fill="#485F7D"/>
<path d="M11.2143 3.66967C11.1939 3.67269 11.1681 3.68804 11.165 3.64912C11.1904 3.63459 11.214 3.62417 11.2143 3.66967Z" fill="#485F7D"/>
<path d="M10.7428 3.38274C10.7428 3.38274 10.7415 3.38274 10.7417 3.38274C10.731 3.38137 10.72 3.38028 10.709 3.37891C10.7203 3.38028 10.7316 3.38137 10.7428 3.38274Z" fill="#485F7D"/>
<path d="M10.6976 3.39669C10.678 3.40409 10.6659 3.40217 10.6711 3.37695C10.6799 3.38353 10.6888 3.39011 10.6976 3.39669Z" fill="#485F7D"/>
<path d="M5.28901 13.7403C5.28213 13.7208 5.29506 13.715 5.30992 13.7109C5.30304 13.7208 5.29589 13.7304 5.28901 13.7403Z" fill="#485F7D"/>
</g>
<defs>
<clipPath id="clip0_53_80103">
<rect width="14" height="14" fill="white" transform="translate(1 1)"/>
</clipPath>
</defs>
</svg>
