<svg width="50" height="50" viewBox="0 0 50 50" fill="none" xmlns="http://www.w3.org/2000/svg">
<circle cx="25" cy="25" r="25" fill="#FFF1F3"/>
<g clip-path="url(#clip0_841_76022)">
<path d="M19.4442 34.1049H15.9025C15.346 34.1049 14.8906 33.6496 14.8906 33.093V22.974C14.8906 22.4174 15.346 21.9621 15.9025 21.9621H19.4442C20.0007 21.9621 20.4561 22.4174 20.4561 22.974V33.093C20.4561 33.6496 20.0007 34.1049 19.4442 34.1049ZM26.7805 15.8906H23.2388C22.6823 15.8906 22.2269 16.346 22.2269 16.9025V33.093C22.2269 33.6496 22.6823 34.1049 23.2388 34.1049H26.7805C27.3371 34.1049 27.7924 33.6496 27.7924 33.093V16.9025C27.7924 16.346 27.3371 15.8906 26.7805 15.8906ZM34.1168 23.9859H30.5751C30.0186 23.9859 29.5632 24.4412 29.5632 24.9978V33.093C29.5632 33.6496 30.0186 34.1049 30.5751 34.1049H34.1168C34.6734 34.1049 35.1287 33.6496 35.1287 33.093V24.9978C35.1287 24.4412 34.6734 23.9859 34.1168 23.9859Z" fill="url(#paint0_linear_841_76022)"/>
<path d="M19.4442 34.1049H15.9025C15.346 34.1049 14.8906 33.6496 14.8906 33.093V22.974C14.8906 22.4174 15.346 21.9621 15.9025 21.9621H19.4442C20.0007 21.9621 20.4561 22.4174 20.4561 22.974V33.093C20.4561 33.6496 20.0007 34.1049 19.4442 34.1049ZM26.7805 15.8906H23.2388C22.6823 15.8906 22.2269 16.346 22.2269 16.9025V33.093C22.2269 33.6496 22.6823 34.1049 23.2388 34.1049H26.7805C27.3371 34.1049 27.7924 33.6496 27.7924 33.093V16.9025C27.7924 16.346 27.3371 15.8906 26.7805 15.8906ZM34.1168 23.9859H30.5751C30.0186 23.9859 29.5632 24.4412 29.5632 24.9978V33.093C29.5632 33.6496 30.0186 34.1049 30.5751 34.1049H34.1168C34.6734 34.1049 35.1287 33.6496 35.1287 33.093V24.9978C35.1287 24.4412 34.6734 23.9859 34.1168 23.9859Z" fill="url(#paint1_linear_841_76022)"/>
</g>
<defs>
<linearGradient id="paint0_linear_841_76022" x1="25.0097" y1="15.8906" x2="25.0097" y2="34.1049" gradientUnits="userSpaceOnUse">
<stop stop-color="#967CFD"/>
<stop offset="1" stop-color="#3177FF"/>
</linearGradient>
<linearGradient id="paint1_linear_841_76022" x1="25.0097" y1="15.8906" x2="25.0097" y2="34.1049" gradientUnits="userSpaceOnUse">
<stop stop-color="#E42447"/>
<stop offset="1" stop-color="#600D62"/>
</linearGradient>
<clipPath id="clip0_841_76022">
<rect width="24.2857" height="24.2857" fill="white" transform="translate(12.8594 12.8574)"/>
</clipPath>
</defs>
</svg>
