<svg width="24" height="24" viewBox="0 0 24 24" fill="none" xmlns="http://www.w3.org/2000/svg">
<rect x="4" y="3.5" width="16.4" height="16.4" rx="2" stroke="#485F7D" stroke-width="1.47"/>
<path d="M12.0366 7.01802C9.79763 7.10047 7.97088 8.90986 7.87108 11.1532C7.83398 11.8966 7.98992 12.637 8.32371 13.3023C8.6575 13.9676 9.1578 14.5352 9.77594 14.9498V15.6918C9.77594 15.876 9.84908 16.0525 9.97928 16.1827C10.1095 16.3129 10.2861 16.3861 10.4702 16.3861H10.8173C10.8633 16.3861 10.9075 16.3678 10.94 16.3352C10.9726 16.3027 10.9909 16.2585 10.9909 16.2125V15.1842C10.9894 15.0941 11.0222 15.0068 11.0826 14.94C11.143 14.8731 11.2265 14.8317 11.3163 14.824C11.3637 14.821 11.4112 14.8278 11.4558 14.8439C11.5005 14.86 11.5413 14.8851 11.5759 14.9177C11.6105 14.9502 11.638 14.9895 11.6568 15.0331C11.6756 15.0767 11.6852 15.1237 11.6851 15.1711V16.2125C11.6851 16.2585 11.7034 16.3027 11.736 16.3352C11.7685 16.3678 11.8127 16.3861 11.8587 16.3861H12.5529C12.599 16.3861 12.6431 16.3678 12.6757 16.3352C12.7082 16.3027 12.7265 16.2585 12.7265 16.2125V15.1842C12.7251 15.0941 12.7579 15.0068 12.8183 14.94C12.8787 14.8731 12.9622 14.8317 13.0519 14.824C13.0993 14.821 13.1468 14.8278 13.1914 14.8439C13.2361 14.86 13.277 14.8851 13.3115 14.9177C13.3461 14.9502 13.3736 14.9895 13.3924 15.0331C13.4112 15.0767 13.4208 15.1237 13.4208 15.1711V16.2125C13.4208 16.2585 13.439 16.3027 13.4716 16.3352C13.5041 16.3678 13.5483 16.3861 13.5943 16.3861H13.9414C14.1256 16.3861 14.3022 16.3129 14.4324 16.1827C14.5626 16.0525 14.6357 15.876 14.6357 15.6918V14.9498C15.4178 14.4218 16.0065 13.6531 16.3124 12.7603C16.6183 11.8675 16.6249 10.8994 16.331 10.0026C16.0371 9.10578 15.4589 8.32923 14.6839 7.79065C13.909 7.25207 12.9796 6.98082 12.0366 7.01802ZM10.6438 12.9148C10.4721 12.9148 10.3043 12.8639 10.1616 12.7686C10.0189 12.6732 9.90768 12.5377 9.84199 12.3791C9.77631 12.2205 9.75913 12.046 9.79261 11.8777C9.8261 11.7094 9.90875 11.5547 10.0301 11.4334C10.1515 11.312 10.3061 11.2294 10.4744 11.1959C10.6428 11.1624 10.8173 11.1796 10.9758 11.2453C11.1344 11.3109 11.27 11.4222 11.3653 11.5649C11.4607 11.7076 11.5116 11.8754 11.5116 12.047C11.5104 12.2768 11.4186 12.4969 11.2561 12.6594C11.0936 12.8219 10.8736 12.9137 10.6438 12.9148ZM13.7679 12.9148C13.5962 12.9148 13.4285 12.8639 13.2857 12.7686C13.143 12.6732 13.0318 12.5377 12.9661 12.3791C12.9004 12.2205 12.8833 12.046 12.9167 11.8777C12.9502 11.7094 13.0329 11.5547 13.1542 11.4334C13.2756 11.312 13.4302 11.2294 13.5986 11.1959C13.7669 11.1624 13.9414 11.1796 14.1 11.2453C14.2586 11.3109 14.3941 11.4222 14.4894 11.5649C14.5848 11.7076 14.6357 11.8754 14.6357 12.047C14.6346 12.2768 14.5428 12.4969 14.3803 12.6594C14.2178 12.8219 13.9977 12.9137 13.7679 12.9148Z" fill="#485F7D"/>
</svg>
