<svg width="20" height="20" viewBox="0 0 20 20" fill="none" xmlns="http://www.w3.org/2000/svg">
<path d="M14.4996 8.66117H13.7497V6.75865C13.7324 5.75575 13.3298 4.7999 12.6285 4.0969C11.9272 3.39391 10.9834 3 10.0003 3C9.01715 3 8.07334 3.39391 7.37206 4.0969C6.67079 4.7999 6.26815 5.75575 6.25084 6.75865V8.66117H5.49978C5.10239 8.66243 4.72163 8.82404 4.44063 9.11073C4.15963 9.39742 4.00123 9.7859 4 10.1913V15.4698C4.00123 15.8753 4.15963 16.2637 4.44063 16.5504C4.72163 16.8371 5.10239 16.9987 5.49978 17H14.4996C14.8971 16.9989 15.278 16.8374 15.5592 16.5506C15.8403 16.2639 15.9988 15.8754 16 15.4698V10.1913C15.9988 9.7858 15.8403 9.39723 15.5592 9.11052C15.278 8.82382 14.8971 8.66227 14.4996 8.66117ZM10.166 14.2866C9.90316 14.3221 9.63606 14.2727 9.40221 14.1453C9.16836 14.0179 8.97951 13.8189 8.86218 13.5764C8.74486 13.3339 8.70497 13.0599 8.74811 12.7931C8.79125 12.5262 8.91526 12.2798 9.10271 12.0886C9.29016 11.8973 9.53163 11.7708 9.79319 11.7268C10.0548 11.6828 10.3233 11.7235 10.561 11.8432C10.7987 11.9629 10.9937 12.1556 11.1185 12.3942C11.2434 12.6328 11.2919 12.9053 11.2571 13.1734C11.2201 13.4554 11.0933 13.7171 10.8961 13.9183C10.6989 14.1195 10.4424 14.2489 10.166 14.2866ZM7.75004 8.66117V6.75865C7.74524 6.45409 7.79989 6.1516 7.91081 5.8688C8.02172 5.586 8.18669 5.32855 8.39609 5.11144C8.6055 4.89433 8.85515 4.72191 9.13052 4.60421C9.40588 4.48652 9.70145 4.4259 10 4.4259C10.2986 4.4259 10.5941 4.48652 10.8695 4.60421C11.1448 4.72191 11.3945 4.89433 11.6039 5.11144C11.8133 5.32855 11.9783 5.586 12.0892 5.8688C12.2001 6.1516 12.2548 6.45409 12.25 6.75865V8.66117H7.75004Z" fill="#485F7D"/>
</svg>
