<svg width="24" height="25" viewBox="0 0 24 25" fill="none" xmlns="http://www.w3.org/2000/svg">
<path fill-rule="evenodd" clip-rule="evenodd" d="M8.14286 3H16.7143C17.2819 3.00235 17.8256 3.22887 18.2269 3.63022C18.6283 4.03158 18.8548 4.57526 18.8571 5.14286V20.8571C18.8548 21.4247 18.6283 21.9684 18.2269 22.3698C17.8256 22.7711 17.2819 22.9977 16.7143 23H8.14286C7.57526 22.9977 7.03158 22.7711 6.63023 22.3698C6.22887 21.9684 6.00235 21.4247 6 20.8571V5.14286C6.00235 4.57526 6.22887 4.03158 6.63023 3.63022C7.03158 3.22887 7.57526 3.00235 8.14286 3ZM9.57143 6.28571H15.2857C15.4752 6.28571 15.6568 6.22551 15.7908 6.11835C15.9247 6.01118 16 5.86584 16 5.71429C16 5.56273 15.9247 5.41739 15.7908 5.31022C15.6568 5.20306 15.4752 5.14286 15.2857 5.14286H9.57143C9.38199 5.14286 9.20031 5.20306 9.06635 5.31022C8.9324 5.41739 8.85714 5.56273 8.85714 5.71429C8.85714 5.86584 8.9324 6.01118 9.06635 6.11835C9.20031 6.22551 9.38199 6.28571 9.57143 6.28571ZM10.7143 20.6429C10.7143 20.3667 10.9381 20.1429 11.2143 20.1429H13.5C13.7761 20.1429 14 20.3667 14 20.6429C14 20.919 13.7761 21.1429 13.5 21.1429H11.2143C10.9381 21.1429 10.7143 20.919 10.7143 20.6429ZM8.14286 9C7.74837 9 7.42857 9.3198 7.42857 9.71429V18C7.42857 18.3945 7.74837 18.7143 8.14286 18.7143H16.7143C17.1088 18.7143 17.4286 18.3945 17.4286 18V9.71429C17.4286 9.3198 17.1088 9 16.7143 9H8.14286Z" fill="#E5007A"/>
</svg>
