<svg width="24" height="25" viewBox="0 0 24 25" fill="none" xmlns="http://www.w3.org/2000/svg">
<path d="M12.06 22.0124C11.5445 22.3375 11.2868 22.5 11 22.5C10.7132 22.5 10.4554 22.3374 9.94 22.0124L8.02913 20.8073C7.54415 20.5014 7.30166 20.3485 7.03253 20.3397C6.74172 20.3301 6.49493 20.4768 5.97087 20.8073C5.38395 21.1774 4.21687 22.1971 3.46195 21.7108C3 21.4133 3 20.6575 3 19.1458V8.50002C3 5.67158 3 4.25736 3.82699 3.37868C4.65399 2.5 5.98501 2.5 8.64706 2.5H13.3529C16.015 2.5 17.346 2.5 18.173 3.37868C19 4.25736 19 5.67158 19 8.50002V12.5" stroke="#485F7D" stroke-width="1.5" stroke-linecap="round" stroke-linejoin="round"/>
<path d="M11 11.5H7" stroke="#485F7D" stroke-width="1.5" stroke-linecap="round" stroke-linejoin="round"/>
<path d="M17 14.5V22.5M21 18.5H13" stroke="#485F7D" stroke-width="1.5" stroke-linecap="round" stroke-linejoin="round"/>
<path d="M15 7.5H7" stroke="#485F7D" stroke-width="1.5" stroke-linecap="round" stroke-linejoin="round"/>
</svg>
