<svg width="16" height="16" viewBox="0 0 16 16" fill="none" xmlns="http://www.w3.org/2000/svg">
<path fill-rule="evenodd" clip-rule="evenodd" d="M2 0C0.895431 0 0 0.895431 0 2V14C0 15.1046 0.895431 16 2 16H14C15.1046 16 16 15.1046 16 14V2C16 0.895431 15.1046 0 14 0H2ZM12.3309 4.8297C12.4848 4.67581 12.5712 4.46708 12.5712 4.24944C12.5712 4.14167 12.55 4.03496 12.5088 3.9354C12.4675 3.83584 12.4071 3.74537 12.3309 3.66917C12.2547 3.59297 12.1643 3.53253 12.0647 3.49129C11.9651 3.45005 11.8584 3.42882 11.7507 3.42882H4.25023C4.0326 3.42882 3.82389 3.51528 3.67 3.66917C3.51612 3.82307 3.42967 4.0318 3.42967 4.24944C3.42967 4.46708 3.51612 4.67581 3.67 4.8297C3.82389 4.9836 4.0326 5.07006 4.25023 5.07006H11.7507C11.9683 5.07006 12.177 4.9836 12.3309 4.8297ZM12.5712 8.00121C12.5712 8.21885 12.4848 8.42758 12.3309 8.58148C12.177 8.73537 11.9683 8.82183 11.7507 8.82183H4.25023C4.03666 8.81586 3.83384 8.72681 3.68489 8.57363C3.53593 8.42044 3.4526 8.2152 3.4526 8.00153C3.4526 7.78786 3.53593 7.58261 3.68489 7.42943C3.83384 7.27625 4.03666 7.1872 4.25023 7.18123H11.7507C11.9682 7.18123 12.1768 7.2676 12.3307 7.42136C12.4845 7.57512 12.5711 7.78368 12.5712 8.00121ZM9.75825 11.7511C9.75825 11.9687 9.6718 12.1774 9.51792 12.3313C9.36403 12.4852 9.15532 12.5717 8.93769 12.5717H4.24895C4.03132 12.5717 3.82261 12.4852 3.66872 12.3313C3.51484 12.1774 3.42839 11.9687 3.42839 11.7511C3.42839 11.5334 3.51484 11.3247 3.66872 11.1708C3.82261 11.0169 4.03132 10.9304 4.24895 10.9304H8.93769C9.15532 10.9304 9.36403 11.0169 9.51792 11.1708C9.6718 11.3247 9.75825 11.5334 9.75825 11.7511Z" fill="white"/>
</svg>
