<svg width="24" height="24" viewBox="0 0 24 24" fill="none" xmlns="http://www.w3.org/2000/svg">
<path opacity="0.146" d="M1.875 2.24854V21.7485H16.875V5.99854H13.125V2.24854H1.875Z" fill="#FFDD54"/>
<path opacity="0.97" d="M2.625 1.49854V20.9985H17.625V5.24854L13.875 1.49854H2.625Z" fill="#0052BE"/>
<path fill-rule="evenodd" clip-rule="evenodd" d="M13.875 1.49854V5.24854H17.625" fill="#00429B"/>
<path d="M4.125 4.87354H12.375M4.125 7.12354H14.625M4.125 9.37354H14.625" stroke="#E2DFF4"/>
<path opacity="0.15" d="M21.2644 6.85657C21.3692 6.96089 21.4523 7.08485 21.5091 7.22141C21.5658 7.35796 21.5951 7.50437 21.5951 7.65225C21.5951 7.80013 21.5658 7.94663 21.5091 8.08319C21.4523 8.21975 21.3692 8.3437 21.2644 8.44803L20.4694 9.24307L8.80162 20.9108L5.62012 21.9713L20.9996 6.5918L21.2644 6.85657Z" fill="black"/>
<path opacity="0.15" d="M20.7341 6.32642C20.6298 6.22172 20.5059 6.13865 20.3694 6.08197C20.2329 6.02529 20.0865 5.99609 19.9387 5.99609C19.7909 5.99609 19.6446 6.02529 19.5081 6.08197C19.3716 6.13865 19.2477 6.22172 19.1434 6.32642L18.3484 7.12219L6.68062 18.7891L5.62012 21.9714L20.9996 6.59192L20.7341 6.32642Z" fill="black"/>
<path d="M18.8779 7.65234L20.9992 9.77366L9.33199 21.4409L7.21067 19.3196L18.8779 7.65234Z" fill="#F05542"/>
<path d="M7.21089 19.319L9.33189 21.4408L6.15039 22.5013L7.21089 19.319ZM18.8779 7.65201L19.6729 6.85706C19.7772 6.75224 19.9012 6.66909 20.0378 6.61234C20.1743 6.55558 20.3208 6.52637 20.4686 6.52637C20.6165 6.52637 20.7629 6.55558 20.8995 6.61234C21.0361 6.66909 21.1601 6.75224 21.2644 6.85706L21.7946 7.3866C21.8995 7.49092 21.9826 7.61488 22.0394 7.75143C22.0961 7.88799 22.1253 8.0344 22.1253 8.18228C22.1253 8.33016 22.0961 8.47657 22.0394 8.61313C21.9826 8.74969 21.8995 8.87373 21.7946 8.97806L20.9996 9.77301L18.8779 7.65201Z" fill="#E9EDED"/>
<path d="M8.27148 20.3806L19.9385 8.71289" stroke="#34485C"/>
<path d="M6.41514 21.7056L6.15039 22.5013L6.94539 22.2358L6.41514 21.7056Z" fill="#34485C"/>
<path d="M18.8779 7.65283L20.9992 9.77415L20.4689 10.3045L18.3476 8.18316L18.8779 7.65283Z" fill="#34485C"/>
</svg>
