<svg width="24" height="24" viewBox="0 0 24 24" fill="none" xmlns="http://www.w3.org/2000/svg">
<path d="M11.9999 2.3999C6.69778 2.3999 2.3999 6.69778 2.3999 11.9999C2.3999 17.302 6.69778 21.5999 11.9999 21.5999C17.302 21.5999 21.5999 17.302 21.5999 11.9999C21.5999 6.69778 17.302 2.3999 11.9999 2.3999ZM10.9817 5.91721C12.2394 5.92533 13.3595 6.33117 14.3155 7.14737C15.4753 8.13943 16.0705 9.41197 16.1476 10.9298C16.1715 11.2572 16.1003 11.5431 15.8157 11.7388C15.7093 11.8148 15.5853 11.8624 15.4553 11.877C15.3254 11.8915 15.1938 11.8726 15.0733 11.822C14.9527 11.7713 14.8471 11.6907 14.7664 11.5878C14.6858 11.4848 14.6329 11.363 14.6126 11.2338C14.5644 10.9397 14.5675 10.6354 14.5085 10.3445C14.3415 9.54453 13.9077 8.82502 13.2781 8.30399C12.6485 7.78297 11.8606 7.49136 11.0435 7.477C10.5925 7.46708 10.2651 7.22042 10.2034 6.84118C10.1213 6.33749 10.4676 5.9136 10.9817 5.91721ZM6.15621 14.1987C5.75037 14.136 5.50731 13.7901 5.51633 13.2873C5.56142 10.7643 7.55366 8.57549 10.0618 8.29365C10.2878 8.26729 10.5152 8.25554 10.7427 8.25848C11.1386 8.26569 11.4452 8.57413 11.4818 8.97998C11.4944 9.16703 11.4381 9.35223 11.3234 9.50055C11.2087 9.64888 11.0437 9.75004 10.8595 9.7849C10.5524 9.83586 10.2354 9.83315 9.9319 9.89673C9.13579 10.0659 8.42039 10.4997 7.90217 11.1273C7.38396 11.7549 7.09344 12.5394 7.07792 13.3532C7.06575 13.9222 6.67794 14.2789 6.15621 14.1987ZM13.0132 18.883C11.7483 18.8713 10.6232 18.4609 9.6663 17.6353C8.52228 16.6495 7.9338 15.3869 7.85624 13.8826C7.83099 13.557 7.89502 13.2679 8.17641 13.0682C8.28283 12.9886 8.4081 12.9381 8.53992 12.9216C8.67175 12.9051 8.80561 12.9231 8.92838 12.9739C9.05115 13.0246 9.15861 13.1065 9.24023 13.2113C9.32184 13.3161 9.37481 13.4404 9.39394 13.5719C9.44219 13.8726 9.43903 14.1829 9.50216 14.4801C9.84127 16.1034 11.2879 17.2885 12.9487 17.321C13.4763 17.3318 13.8217 17.6497 13.8149 18.1191C13.805 18.552 13.4659 18.8871 13.0132 18.883ZM17.252 14.7172C16.2599 15.8766 14.986 16.4714 13.4677 16.5458C13.1705 16.5711 12.904 16.5097 12.707 16.2752C12.518 16.0498 12.4662 15.7851 12.5717 15.5086C12.6772 15.2322 12.8873 15.0496 13.1922 15.009C13.488 14.9698 13.7906 14.9662 14.0814 14.9053C15.7048 14.5657 16.8926 13.1196 16.9259 11.4606C16.935 11.0002 17.1699 10.6769 17.5464 10.6074C18.0537 10.5132 18.4898 10.8658 18.4862 11.388C18.4749 12.6425 18.0677 13.7635 17.2506 14.7172H17.252Z" fill="#576D8B"/>
</svg>
