<svg width="24" height="25" viewBox="0 0 24 25" fill="none" xmlns="http://www.w3.org/2000/svg">
<g clip-path="url(#clip0_6519_28964)">
<path d="M12.0004 2.90039C6.69827 2.90039 2.40039 7.19827 2.40039 12.5004C2.40039 17.8025 6.69827 22.1004 12.0004 22.1004C17.3025 22.1004 21.6004 17.8025 21.6004 12.5004C21.6004 7.19827 17.3025 2.90039 12.0004 2.90039ZM10.9822 6.4177C12.2398 6.42582 13.36 6.83166 14.316 7.64786C15.4758 8.63992 16.071 9.91246 16.1481 11.4303C16.172 11.7577 16.1008 12.0436 15.8162 12.2393C15.7098 12.3153 15.5858 12.3629 15.4558 12.3774C15.3258 12.392 15.1943 12.3731 15.0738 12.3225C14.9532 12.2718 14.8476 12.1912 14.7669 12.0883C14.6863 11.9853 14.6334 11.8634 14.6131 11.7342C14.5649 11.4402 14.568 11.1359 14.509 10.845C14.342 10.045 13.9082 9.32551 13.2786 8.80448C12.649 8.28346 11.861 7.99185 11.044 7.97749C10.593 7.96757 10.2656 7.72091 10.2039 7.34167C10.1218 6.83797 10.4681 6.41409 10.9822 6.4177ZM6.1567 14.6992C5.75085 14.6365 5.5078 14.2906 5.51682 13.7878C5.56191 11.2648 7.55415 9.07597 10.0623 8.79414C10.2882 8.76778 10.5157 8.75603 10.7432 8.75897C11.1391 8.76618 11.4457 9.07462 11.4823 9.48046C11.4949 9.66752 11.4386 9.85272 11.3239 10.001C11.2092 10.1494 11.0442 10.2505 10.86 10.2854C10.5529 10.3363 10.2359 10.3336 9.93239 10.3972C9.13627 10.5664 8.42088 11.0001 7.90266 11.6278C7.38444 12.2554 7.09393 13.0399 7.07841 13.8537C7.06624 14.4227 6.67843 14.7794 6.1567 14.6992ZM13.0136 19.3835C11.7488 19.3718 10.6237 18.9614 9.66679 18.1358C8.52276 17.15 7.93429 15.8874 7.85673 14.3831C7.83148 14.0575 7.89551 13.7684 8.1769 13.5687C8.28332 13.4891 8.40859 13.4386 8.54041 13.4221C8.67224 13.4055 8.8061 13.4236 8.92887 13.4743C9.05164 13.5251 9.1591 13.607 9.24072 13.7118C9.32233 13.8166 9.3753 13.9409 9.39443 14.0724C9.44268 14.3731 9.43952 14.6834 9.50265 14.9805C9.84175 16.6039 11.2884 17.789 12.9492 17.8214C13.4768 17.8323 13.8222 18.1502 13.8154 18.6196C13.8055 19.0525 13.4664 19.3876 13.0136 19.3835ZM17.2525 15.2177C16.2604 16.3771 14.9865 16.9719 13.4682 17.0463C13.171 17.0715 12.9045 17.0102 12.7075 16.7757C12.5185 16.5503 12.4667 16.2856 12.5722 16.0091C12.6777 15.7327 12.8878 15.5501 13.1927 15.5095C13.4885 15.4703 13.7911 15.4667 14.0819 15.4058C15.7053 15.0662 16.8931 13.6201 16.9264 11.9611C16.9354 11.5007 17.1704 11.1773 17.5469 11.1079C18.0542 11.0137 18.4903 11.3663 18.4867 11.8885C18.4754 13.143 18.0682 14.264 17.2511 15.2177H17.2525Z" fill="#576D8B"/>
</g>
<defs>
<clipPath id="clip0_6519_28964">
<rect width="24" height="24" fill="white" transform="translate(0 0.5)"/>
</clipPath>
</defs>
</svg>
