<svg width="20" height="20" viewBox="0 0 20 20" fill="none" xmlns="http://www.w3.org/2000/svg">
<path fill-rule="evenodd" clip-rule="evenodd" d="M2.8146 4.23469C2.5 4.68291 2.5 6.01524 2.5 8.6799V9.99215C2.5 14.6905 6.03247 16.9706 8.2488 17.9387C8.85001 18.2014 9.15062 18.3327 10 18.3327C10.8494 18.3327 11.15 18.2014 11.7512 17.9387C13.9675 16.9706 17.5 14.6905 17.5 9.99215V8.6799C17.5 6.01524 17.5 4.68291 17.1854 4.23469C16.8708 3.78647 15.6181 3.35765 13.1126 2.50001L12.6352 2.33661C11.3292 1.88955 10.6762 1.66602 10 1.66602C9.32384 1.66602 8.67082 1.88955 7.36477 2.33661L6.88743 2.50001C4.38194 3.35765 3.12919 3.78647 2.8146 4.23469ZM10.625 7.49935C10.625 7.15417 10.3452 6.87435 10 6.87435C9.65482 6.87435 9.375 7.15417 9.375 7.49935L9.375 9.37437H7.5C7.15482 9.37437 6.875 9.65419 6.875 9.99937C6.875 10.3445 7.15482 10.6244 7.5 10.6244H9.375V12.4993C9.375 12.8445 9.65482 13.1243 10 13.1243C10.3452 13.1243 10.625 12.8445 10.625 12.4993V10.6244H12.5C12.8452 10.6244 13.125 10.3445 13.125 9.99937C13.125 9.65419 12.8452 9.37437 12.5 9.37437H10.625L10.625 7.49935Z" fill="#E5007A"/>
</svg>
