<svg width="24" height="25" viewBox="0 0 24 25" fill="none" xmlns="http://www.w3.org/2000/svg">
<path d="M17.25 8.9V8.375C17.25 6.02187 13.7063 4.25 9 4.25C4.29375 4.25 0.75 6.02187 0.75 8.375V12.125C0.75 14.0844 3.20625 15.6406 6.75 16.1094V16.625C6.75 18.9781 10.2937 20.75 15 20.75C19.7062 20.75 23.25 18.9781 23.25 16.625V12.875C23.25 10.9344 20.8687 9.37812 17.25 8.9ZM6.75 14.5812V12.3594C7.49613 12.4553 8.24774 12.5022 9 12.5C9.75226 12.5022 10.5039 12.4553 11.25 12.3594V14.5812C10.5057 14.6972 9.75329 14.7537 9 14.75C8.24671 14.7537 7.49432 14.6972 6.75 14.5812ZM15.75 10.8031V12.125C15.75 12.9125 14.5875 13.7562 12.75 14.2719V12.0781C13.9594 11.7875 14.9812 11.3469 15.75 10.8031ZM2.25 12.125V10.8031C3.01875 11.3469 4.04063 11.7875 5.25 12.0781V14.2719C3.4125 13.7562 2.25 12.9125 2.25 12.125ZM8.25 16.625V16.2313L9 16.25C9.36875 16.25 9.725 16.2406 10.0688 16.2219C10.4438 16.3531 10.8375 16.4656 11.25 16.5687V18.7719C9.4125 18.2562 8.25 17.4125 8.25 16.625ZM12.75 19.0812V16.85C13.496 16.9479 14.2476 16.998 15 17C15.7523 17.0022 16.5039 16.9553 17.25 16.8594V19.0812C15.7584 19.3062 14.2416 19.3062 12.75 19.0812ZM18.75 18.7719V16.5781C19.9594 16.2875 20.9813 15.8469 21.75 15.3031V16.625C21.75 17.4125 20.5875 18.2562 18.75 18.7719Z" fill="#485F7D"/>
</svg>
