<svg width="18" height="19" viewBox="0 0 18 19" fill="none" xmlns="http://www.w3.org/2000/svg">
<path d="M14.7703 0.580045C14.7525 0.473318 14.5991 0.473318 14.5813 0.580045C14.3122 2.19502 13.0466 3.46055 11.4317 3.72971C11.325 3.7475 11.325 3.90091 11.4317 3.91869C13.0466 4.18786 14.3122 5.45338 14.5813 7.06836C14.5991 7.17509 14.7525 7.17509 14.7703 7.06836C15.0395 5.45338 16.305 4.18786 17.92 3.91869C18.0267 3.90091 18.0267 3.7475 17.92 3.72971C16.305 3.46055 15.0395 2.19502 14.7703 0.580045Z" fill="#E5007A"/>
<path d="M7.81412 3.48661C7.77346 3.24267 7.42282 3.24267 7.38216 3.48661C6.76694 7.17798 3.87431 10.0706 0.182956 10.6859C-0.0609853 10.7265 -0.0609853 11.0771 0.182956 11.1178C3.87431 11.733 6.76694 14.6257 7.38216 18.317C7.42282 18.561 7.77346 18.561 7.81412 18.317C8.42934 14.6257 11.322 11.733 15.0133 11.1178C15.2573 11.0771 15.2573 10.7265 15.0133 10.6859C11.322 10.0706 8.42934 7.17798 7.81412 3.48661Z" fill="#E5007A"/>
</svg>
