<svg width="16" height="16" viewBox="0 0 16 16" fill="none" xmlns="http://www.w3.org/2000/svg">
<g clip-path="url(#clip0_2069_80620)">
<path fill-rule="evenodd" clip-rule="evenodd" d="M8.03749 4.91487C4.83352 6.1513 2.18538 7.18043 2.15272 7.20181C2.0736 7.25366 2.0001 7.37806 2 7.46033C1.99986 7.56146 2.05844 7.68035 2.13486 7.73403C2.17257 7.76051 2.83367 8.01651 3.60398 8.30292C4.3743 8.58936 5.01625 8.83593 5.03054 8.8509C5.04481 8.86586 5.29653 9.6538 5.58991 10.6019C5.88329 11.55 6.14008 12.362 6.16055 12.4063C6.18105 12.4506 6.23099 12.5072 6.27155 12.5319C6.35465 12.5826 6.52478 12.5916 6.60345 12.5495C6.63177 12.5343 7.00006 12.2402 7.42186 11.8957C8.34296 11.1437 8.3121 11.1667 8.43684 11.1387C8.63388 11.0944 8.6723 11.1169 9.83035 11.9574C11.8625 13.4323 11.7144 13.3312 11.8429 13.3312C11.976 13.3312 12.07 13.2725 12.1337 13.1497C12.1971 13.0273 14.2653 3.03534 14.2472 2.93871C14.2196 2.79159 14.0653 2.66398 13.9175 2.66604C13.8875 2.66645 11.2415 3.67841 8.03749 4.91487ZM11.5957 4.89662C11.6115 4.91242 11.6244 4.94288 11.6244 4.9643C11.6244 4.98573 10.744 5.82124 9.66786 6.82097C7.05051 9.25264 6.94689 9.35101 6.87717 9.46998C6.7849 9.62742 6.74949 9.7861 6.66727 10.4104C6.62418 10.7375 6.57699 11.0081 6.55767 11.0388C6.52257 11.0946 6.42329 11.111 6.3609 11.0715C6.34313 11.0602 6.18787 10.5621 6.01587 9.96456C5.68359 8.81024 5.66451 8.70919 5.74416 8.52548C5.76545 8.47638 5.81783 8.40321 5.86057 8.36292C5.95645 8.27247 11.4783 4.86863 11.5298 4.8682C11.5502 4.86804 11.5799 4.88082 11.5957 4.89662Z" fill="white"/>
</g>
<defs>
<clipPath id="clip0_2069_80620">
<rect width="16" height="16" fill="white"/>
</clipPath>
</defs>
</svg>
