<svg width="40" height="40" viewBox="0 0 40 40" fill="none" xmlns="http://www.w3.org/2000/svg">
<rect width="40" height="40" rx="20" fill="#F6F7F9"/>
<rect width="40" height="40" rx="20" fill="#FFDDAB"/>
<rect x="4" y="4" width="32" height="32" rx="16" fill="#F8BC14"/>
<rect x="4" y="4" width="32" height="32" rx="16" fill="#FFD663"/>
<rect x="4" y="4" width="32" height="32" rx="16" fill="#FFBF60"/>
<path d="M20.0001 28.3327C24.6024 28.3327 28.3334 24.6017 28.3334 19.9993C28.3334 15.397 24.6024 11.666 20.0001 11.666C15.3977 11.666 11.6667 15.397 11.6667 19.9993C11.6667 24.6017 15.3977 28.3327 20.0001 28.3327Z" fill="white" stroke="white" stroke-width="1.25"/>
<path d="M19.3816 15.832C19.3816 15.4869 19.6614 15.207 20.0066 15.207C20.3518 15.207 20.6316 15.4869 20.6316 15.832V18.2402C21.3595 18.4978 21.8816 19.1907 21.8816 20.0068C21.8815 20.2969 21.8128 20.5703 21.6951 20.8154L22.9539 22.0742C23.1979 22.3183 23.1979 22.7139 22.9539 22.958C22.7403 23.1713 22.4112 23.1981 22.1687 23.0381L22.0701 22.958L20.8103 21.6973C20.5664 21.8134 20.2948 21.8818 20.0066 21.8818C18.9712 21.8818 18.1319 21.0421 18.1316 20.0068C18.1316 19.1907 18.6537 18.4978 19.3816 18.2402V15.832Z" stroke="#FFBF60" stroke-width="1.25" stroke-linecap="round" stroke-linejoin="round"/>
</svg>
