<svg xmlns="http://www.w3.org/2000/svg" width="24" height="24" fill="none"><path fill="#E5007A" d="M19.2 3H4.8A1.803 1.803 0 0 0 3 4.8v14.398A1.8 1.8 0 0 0 4.8 21h14.4a1.803 1.803 0 0 0 1.8-1.8V4.8A1.8 1.8 0 0 0 19.2 3M5.36 19.453a.82.82 0 0 1-.818-.818V5.36a.82.82 0 0 1 .818-.818H18.64a.82.82 0 0 1 .816.818v13.276a.82.82 0 0 1-.816.816z"/><path fill="#E5007A" d="M8.093 14.369v1.32a.215.215 0 0 0 .217.217h1.32a.2.2 0 0 0 .152-.066l4.74-4.734-1.629-1.628-4.735 4.735a.21.21 0 0 0-.065.156m7.687-4.522a.43.43 0 0 0 0-.612l-1.015-1.016a.43.43 0 0 0-.613 0l-.794.795 1.627 1.627z"/></svg>