<svg width="20" height="20" viewBox="0 0 20 20" fill="none" xmlns="http://www.w3.org/2000/svg">
<path fill-rule="evenodd" clip-rule="evenodd" d="M10 17.5C14.4183 17.5 18 13.9183 18 9.5C18 5.08172 14.4183 1.5 10 1.5C5.58172 1.5 2 5.08172 2 9.5C2 13.9183 5.58172 17.5 10 17.5ZM9.97988 15.1C9.59328 15.1 9.27988 14.7866 9.27988 14.4V14.06C8.65322 13.9133 8.14322 13.6433 7.74988 13.25C7.48894 12.9891 7.27347 12.6738 7.10348 12.3043C6.95081 11.9724 7.14 11.5975 7.4799 11.4636C7.86655 11.3113 8.28774 11.5342 8.50272 11.8898C8.62871 12.0982 8.77776 12.2716 8.94988 12.41C9.28988 12.6833 9.67988 12.82 10.1199 12.82C10.5599 12.82 10.9365 12.7167 11.2499 12.51C11.5632 12.3033 11.7199 11.98 11.7199 11.54C11.7199 11.1533 11.5566 10.84 11.2299 10.6C10.9032 10.36 10.3199 10.0867 9.47988 9.78C8.69322 9.5 8.11655 9.16667 7.74988 8.78C7.38322 8.39333 7.19988 7.88667 7.19988 7.26C7.19988 6.71333 7.38655 6.22 7.75988 5.78C8.13322 5.34 8.65322 5.04667 9.31988 4.9V4.6C9.31988 4.2134 9.63328 3.9 10.0199 3.9C10.4065 3.9 10.7199 4.2134 10.7199 4.6V4.9C11.1999 4.94 11.6365 5.13333 12.0299 5.48C12.2489 5.67304 12.4297 5.88469 12.5722 6.11494C12.7641 6.42481 12.5799 6.80562 12.2423 6.94278C11.8712 7.09354 11.4584 6.88537 11.1864 6.59129C11.1407 6.54185 11.0919 6.49475 11.0399 6.45C10.7999 6.24333 10.4665 6.14 10.0399 6.14C9.57322 6.14 9.21655 6.24 8.96988 6.44C8.72322 6.64 8.59988 6.91333 8.59988 7.26C8.59988 7.60667 8.75322 7.88 9.05988 8.08C9.36655 8.28 9.91988 8.51333 10.7199 8.78C11.6799 9.12667 12.3199 9.53333 12.6399 10C12.9599 10.4667 13.1199 10.98 13.1199 11.54C13.1199 12.3267 12.8799 12.92 12.3999 13.32C11.9199 13.72 11.3465 13.98 10.6799 14.1V14.4C10.6799 14.7866 10.3665 15.1 9.97988 15.1Z" fill="#E5007A"/>
</svg>
