<svg width="44" height="44" viewBox="0 0 44 44" fill="none" xmlns="http://www.w3.org/2000/svg">
<circle cx="22" cy="22" r="22" fill="#CCF3FF"/>
<path d="M25 15C25 17.2091 23.2091 19 21 19C18.7909 19 17 17.2091 17 15C17 12.7909 18.7909 11 21 11C23.2091 11 25 12.7909 25 15Z" fill="#485F7D"/>
<path d="M31.6667 17.6667C31.6667 19.1394 30.4728 20.3333 29 20.3333C27.5272 20.3333 26.3333 19.1394 26.3333 17.6667C26.3333 16.1939 27.5272 15 29 15C30.4728 15 31.6667 16.1939 31.6667 17.6667Z" fill="#485F7D"/>
<path d="M26.3333 27C26.3333 24.0545 23.9455 21.6667 21 21.6667C18.0545 21.6667 15.6667 24.0545 15.6667 27V31H26.3333V27Z" fill="#485F7D"/>
<path d="M15.6667 17.6667C15.6667 19.1394 14.4728 20.3333 13 20.3333C11.5272 20.3333 10.3333 19.1394 10.3333 17.6667C10.3333 16.1939 11.5272 15 13 15C14.4728 15 15.6667 16.1939 15.6667 17.6667Z" fill="#485F7D"/>
<path d="M28 31V27C28 25.5945 27.6375 24.2736 27.001 23.1258C27.3203 23.0437 27.6551 23 28 23C30.2091 23 33 24.7909 33 27V31H28Z" fill="#485F7D"/>
<path d="M14.999 23.1258C14.3625 24.2736 14 25.5945 14 27V31H9V27C9 24.7909 11.7909 23 14 23C14.3449 23 14.6797 23.0437 14.999 23.1258Z" fill="#485F7D"/>
</svg>
