<svg width="16" height="16" viewBox="0 0 16 16" fill="none" xmlns="http://www.w3.org/2000/svg">
<g clip-path="url(#clip0_2069_80603)">
<path fill-rule="evenodd" clip-rule="evenodd" d="M10.0619 2.70894C9.82099 2.76506 9.67437 2.81897 9.46539 2.92826C8.78453 3.2844 8.29679 3.91775 8.10232 4.6984C8.03303 4.97643 8.0092 5.50734 8.05352 5.78509L8.07861 5.94236L7.79306 5.92236C6.77507 5.85102 5.65759 5.4694 4.70828 4.86884C4.18402 4.53715 3.804 4.21899 3.28996 3.68125C2.74126 3.10729 2.78926 3.12066 2.64755 3.50225C2.40621 4.1521 2.38682 4.74464 2.5875 5.33636C2.74367 5.79689 3.07474 6.30072 3.40817 6.58526L3.58197 6.73359H3.48612C3.30813 6.73359 2.9201 6.63378 2.68154 6.52664L2.44445 6.42013V6.57821C2.44445 7.14271 2.72893 7.82743 3.1589 8.29793C3.47737 8.64641 3.79195 8.85477 4.2341 9.01012L4.47884 9.09611L4.21541 9.13726C4.06331 9.16101 3.82062 9.17178 3.64119 9.16274C3.27638 9.14431 3.28623 9.11575 3.50564 9.55609C3.74478 10.036 4.13752 10.4477 4.58591 10.6884C4.91307 10.864 5.08451 10.9223 5.42564 10.9739L5.6969 11.0149L5.57735 11.1136C5.51161 11.1679 5.36492 11.2717 5.25139 11.3443C4.36599 11.9102 3.37602 12.182 2.34151 12.1431C1.88691 12.1259 1.88691 12.1266 2.33707 12.3799C3.8766 13.2461 5.5388 13.5242 7.26274 13.2039C9.87221 12.719 11.9479 10.7725 12.7999 8.0113C13.0292 7.26815 13.1518 6.48311 13.1518 5.75695V5.33107L13.3277 5.1928C13.6579 4.9332 14.167 4.36171 14.3897 4.00069L14.4444 3.91195L14.3012 3.97627C13.9907 4.11569 13.0845 4.36619 13.044 4.32376C13.0374 4.31681 13.13 4.23271 13.25 4.13691C13.5891 3.86592 13.9145 3.39876 14.0553 2.98041L14.0954 2.86156L13.723 3.04842C13.3736 3.22373 12.9572 3.38241 12.6248 3.46696L12.4801 3.50375L12.3188 3.351C11.9975 3.04672 11.6105 2.83362 11.1855 2.72686C10.8947 2.65381 10.3369 2.64494 10.0619 2.70894Z" fill="white"/>
</g>
<defs>
<clipPath id="clip0_2069_80603">
<rect width="16" height="16" fill="white"/>
</clipPath>
</defs>
</svg>
