<svg xmlns="http://www.w3.org/2000/svg" width="25" height="24" fill="none"><path fill="#485F7D" fill-opacity=".8" d="M18.735 17.836a.576.576 0 01-.593-.593v-2.847q0-1.068-.752-1.82a2.48 2.48 0 00-1.819-.751H7.345l2.65 2.65a.54.54 0 01.158.395q0 .237-.178.415a.57.57 0 01-.415.178.57.57 0 01-.415-.178l-3.639-3.638a.6.6 0 01-.138-.198.6.6 0 01-.04-.217.6.6 0 01.04-.218.6.6 0 01.138-.198l3.658-3.658A.54.54 0 019.56 7a.57.57 0 01.415.178.57.57 0 01.178.415q0 .237-.178.415l-2.63 2.63h8.226q1.542 0 2.65 1.098a3.6 3.6 0 011.107 2.66v2.847a.576.576 0 01-.593.593"/></svg>