<svg width="44" height="44" viewBox="0 0 44 44" fill="none" xmlns="http://www.w3.org/2000/svg">
<circle cx="22" cy="22" r="22" fill="#CCF3FF"/>
<path d="M33 22L30.56 19.21L30.9 15.52L27.29 14.7L25.4 11.5L22 12.96L18.6 11.5L16.71 14.69L13.1 15.5L13.44 19.2L11 22L13.44 24.79L13.1 28.49L16.71 29.31L18.6 32.5L22 31.03L25.4 32.49L27.29 29.3L30.9 28.48L30.56 24.79L33 22ZM19.38 26.01L17 23.61C16.61 23.22 16.61 22.59 17 22.2L17.07 22.13C17.46 21.74 18.1 21.74 18.49 22.13L20.1 23.75L25.25 18.59C25.64 18.2 26.28 18.2 26.67 18.59L26.74 18.66C27.13 19.05 27.13 19.68 26.74 20.07L20.82 26.01C20.41 26.4 19.78 26.4 19.38 26.01Z" fill="#485F7D"/>
</svg>
