<svg width="20" height="20" viewBox="0 0 20 20" fill="none" xmlns="http://www.w3.org/2000/svg">
<path d="M3.33301 9.99935V12.1195C3.33301 14.8237 3.33301 16.1758 4.0714 17.0916C4.22057 17.2766 4.3891 17.4451 4.57412 17.5943C5.48993 18.3327 6.84202 18.3327 9.54617 18.3327C10.1342 18.3327 10.4281 18.3327 10.6973 18.2377C10.7533 18.2179 10.8082 18.1952 10.8618 18.1696C11.1193 18.0463 11.3272 17.8385 11.7429 17.4228L15.69 13.4757C16.1718 12.9939 16.4126 12.7531 16.5395 12.4468C16.6663 12.1405 16.6663 11.7998 16.6663 11.1186V8.33268C16.6663 5.18998 16.6663 3.61864 15.69 2.64232C14.7138 1.66602 13.1423 1.66602 9.99967 1.66602M10.833 17.916V17.4993C10.833 15.1423 10.833 13.9638 11.5653 13.2316C12.2975 12.4993 13.476 12.4993 15.833 12.4993H16.2497" stroke="#485F7D" stroke-width="1.25" stroke-linecap="round" stroke-linejoin="round"/>
<path d="M8.33301 4.16602C7.84147 3.66032 6.53323 1.66602 5.83301 1.66602C5.13278 1.66602 3.82454 3.66032 3.33301 4.16602M5.83301 2.49935V8.33268" stroke="#485F7D" stroke-width="1.25" stroke-linecap="round" stroke-linejoin="round"/>
</svg>
