<svg width="24" height="24" viewBox="0 0 24 24" fill="none" xmlns="http://www.w3.org/2000/svg">
<g clip-path="url(#clip0_410_56364)">
<path fill-rule="evenodd" clip-rule="evenodd" d="M7.25252 4.04161C7.16674 4.11012 7.03775 4.51336 6.96099 4.95332C6.87896 5.42336 6.90463 6.05469 7.02334 6.48676L7.11193 6.80926L6.97842 6.95703C6.64732 7.32352 6.31181 7.96371 6.16556 8.50801C6.05623 8.91504 6.01689 9.9159 6.08674 10.5141C6.21521 11.6146 6.59502 12.5334 7.19892 13.2047C7.61681 13.6692 8.36248 14.1218 9.11744 14.3691C9.52158 14.5015 10.4697 14.6994 10.6996 14.6994C10.7626 14.6994 10.8142 14.7089 10.8142 14.7206C10.8142 14.7323 10.7451 14.8334 10.6606 14.9452C10.4599 15.2112 10.3222 15.5131 10.246 15.8547L10.1844 16.131L10.0013 16.1957C9.47912 16.3802 8.84619 16.4314 8.4365 16.3223C7.93744 16.1895 7.50869 15.8678 7.19595 15.3917C7.09408 15.2365 6.9406 15.0244 6.8549 14.9203C6.64127 14.6607 6.20529 14.3632 5.9008 14.2691C5.47701 14.1382 5.03494 14.1831 5.00076 14.3605C4.98451 14.445 5.23064 14.6903 5.57549 14.9333C5.91705 15.174 6.20701 15.5605 6.50092 16.1668C6.7992 16.7822 7.00564 17.0703 7.3176 17.3063C7.98228 17.8092 8.81881 17.9526 9.98412 17.7633L10.1501 17.7363V18.7092C10.1501 19.8046 10.1497 19.8064 9.86174 19.9371C9.70189 20.0098 9.71197 20.0102 11.5403 20.0111C12.5519 20.0115 13.9102 20.0003 14.5587 19.9861C15.6536 19.9621 15.729 19.956 15.6147 19.9006C15.3884 19.7911 15.3845 19.7569 15.3842 17.8745C15.384 16.3061 15.3776 16.1375 15.3067 15.8421C15.2155 15.4615 15.0462 15.1091 14.8505 14.8925C14.7729 14.8067 14.7163 14.7306 14.7247 14.7236C14.7331 14.7165 14.9421 14.6809 15.1892 14.6444C16.4956 14.4512 17.4569 14.0448 18.148 13.3932C18.5461 13.018 18.761 12.7243 18.9947 12.2363C19.356 11.4816 19.498 10.7623 19.4994 9.67988C19.5003 8.99985 19.4917 8.905 19.3969 8.54707C19.2685 8.06227 18.9347 7.38828 18.6489 7.03703L18.4373 6.77699L18.5171 6.52922C18.5738 6.35309 18.6026 6.13332 18.6167 5.7691C18.6387 5.20133 18.6015 4.9011 18.4444 4.37903C18.3517 4.07114 18.3317 4.0368 18.2313 4.01477C17.7978 3.91957 16.7226 4.29426 15.809 4.85887L15.4242 5.09672L15.1652 5.03176C13.709 4.66657 12.0582 4.66075 10.4738 5.01528L10.114 5.09578L9.9465 4.98207C9.42924 4.63082 8.57674 4.23008 8.06029 4.09543C7.70732 4.0034 7.33178 3.97836 7.25252 4.04161Z" fill="#485F7D"/>
</g>
<defs>
<clipPath id="clip0_410_56364">
<rect width="24" height="24" fill="white"/>
</clipPath>
</defs>
</svg>
