<svg width="24" height="24" viewBox="0 0 24 24" fill="none" xmlns="http://www.w3.org/2000/svg">
<g clip-path="url(#clip0_410_56370)">
<path fill-rule="evenodd" clip-rule="evenodd" d="M12.5024 4.10399C12.4459 4.16045 12.3874 4.27161 12.3724 4.35106C12.3573 4.43051 12.1373 5.48152 11.8834 6.68662L11.4217 8.87773L10.8216 8.92714C9.79422 9.01175 8.78075 9.25985 7.86539 9.65082C7.41521 9.84311 6.7586 10.1888 6.46512 10.3881C6.28367 10.5113 6.21745 10.5147 6.10187 10.4069C5.97734 10.2908 5.62113 10.1189 5.37887 10.058C5.26239 10.0287 5.01222 10.0143 4.79807 10.0245C4.48933 10.0393 4.36988 10.0668 4.13218 10.1781C3.35376 10.5423 2.88772 11.4017 3.02337 12.2229C3.09517 12.6578 3.28784 13.0217 3.59868 13.3095C3.74048 13.4408 3.92271 13.5797 4.0037 13.6183C4.13304 13.68 4.14846 13.7044 4.13055 13.8186C4.0911 14.0695 4.18795 14.9521 4.29572 15.3239C4.78071 16.9976 6.34971 18.3977 8.55388 19.1238C9.75099 19.5181 10.83 19.6679 12.1997 19.63C14.6456 19.5624 16.7651 18.757 18.1543 17.3673C18.8424 16.6791 19.2648 15.9784 19.4586 15.2041C19.5406 14.8763 19.6266 13.9627 19.5909 13.7979C19.5714 13.7078 19.5926 13.6766 19.72 13.608C19.9391 13.49 20.2301 13.1623 20.3808 12.8636C20.6516 12.3273 20.6559 11.7614 20.3935 11.2007C19.9512 10.2555 18.8089 9.83632 17.8632 10.2722C17.6928 10.3507 17.5207 10.4512 17.4807 10.4953C17.3751 10.6121 17.3049 10.5959 16.9702 10.3774C15.8897 9.67205 14.3166 9.15741 12.8147 9.01794L12.2371 8.96427L12.6624 6.92373C12.8964 5.80143 13.0912 4.87996 13.0954 4.87601C13.0996 4.8721 13.7367 4.99757 14.5113 5.15483L15.9195 5.44083L15.9659 5.61245C16.0717 6.00355 16.3219 6.30884 16.6909 6.49722C16.9775 6.64353 17.4454 6.64022 17.7651 6.48966C18.1008 6.33162 18.2568 6.18432 18.4072 5.88341C18.6496 5.39834 18.5704 4.83394 18.2025 4.42475C17.9272 4.1186 17.6642 4.00232 17.2456 4.00181C16.9671 4.00142 16.881 4.02063 16.6556 4.13321C16.5082 4.2069 16.3247 4.34345 16.2397 4.44275L16.0876 4.62043L14.4879 4.30951C13.608 4.13853 12.8245 3.99923 12.7466 4C12.6559 4.00086 12.5681 4.03833 12.5024 4.10399ZM9.11002 12.0656C9.398 12.1635 9.77488 12.5404 9.8728 12.8284C9.91242 12.9449 9.94482 13.1689 9.94482 13.3264C9.94482 13.8289 9.64541 14.2853 9.17357 14.502C8.88676 14.6338 8.36138 14.6285 8.09716 14.4912C7.10269 13.9743 7.07511 12.6378 8.04852 12.1339C8.27587 12.0162 8.36615 11.9936 8.60888 11.9936C8.76803 11.9936 8.99354 12.026 9.11002 12.0656ZM15.379 12.1843C15.6471 12.3156 15.8895 12.567 16.0184 12.8477C16.1607 13.1577 16.1483 13.6575 15.9903 13.9793C15.7896 14.388 15.4473 14.6287 14.9416 14.7168C14.8657 14.7299 14.7921 14.722 14.7779 14.6992C14.7638 14.6763 14.6905 14.6575 14.6151 14.6572C14.4213 14.6566 14.0776 14.4834 13.8813 14.2873C13.3036 13.7104 13.3929 12.742 14.0668 12.2749C14.4435 12.0139 14.958 11.9784 15.379 12.1843ZM9.11221 16.5089C9.37282 16.6882 9.90808 16.9516 10.2321 17.06C10.7511 17.2336 11.2403 17.2904 12.0073 17.266C13.005 17.2344 13.6041 17.0617 14.3504 16.5904C14.8003 16.3063 15.0382 16.3063 15.1373 16.5903C15.1799 16.7127 15.1255 17.0167 15.0708 16.962C15.0596 16.9508 14.9151 17.0292 14.7495 17.1363C14.1314 17.5362 13.3716 17.8234 12.6762 17.9202C11.9177 18.0256 10.8471 17.9545 10.1167 17.7501C9.53198 17.5865 8.53961 17.0562 8.46777 16.8691C8.41535 16.7324 8.44216 16.5739 8.53433 16.4758C8.66835 16.3332 8.87391 16.345 9.11221 16.5089Z" fill="#485F7D"/>
</g>
<defs>
<clipPath id="clip0_410_56370">
<rect width="24" height="24" fill="white"/>
</clipPath>
</defs>
</svg>
