<svg width="24" height="24" viewBox="0 0 24 24" fill="none" xmlns="http://www.w3.org/2000/svg">
<g clip-path="url(#clip0_410_56367)">
<path fill-rule="evenodd" clip-rule="evenodd" d="M9.62246 5.05203C7.976 5.13341 5.34977 5.36902 4.83691 5.48131C4.13967 5.63401 3.475 6.2982 3.30077 7.01641C3.17004 7.55517 3 10.2093 3 11.7108C3 13.2122 3.17004 15.8663 3.30077 16.4051C3.475 17.1233 4.13952 17.7874 4.83691 17.9402C5.09943 17.9978 6.56295 18.1542 7.65723 18.2418C10.7664 18.4906 14.1868 18.4902 17.3548 18.2407C18.4358 18.1555 19.8916 17.9997 20.1631 17.94C20.864 17.7861 21.5243 17.1264 21.6992 16.4051C21.83 15.8663 22 13.2122 22 11.7108C22 10.2093 21.83 7.55517 21.6992 7.01641C21.525 6.2982 20.8605 5.63413 20.1631 5.48127C19.6228 5.36286 17.0705 5.13831 15.2646 5.05032C13.873 4.98252 11.0108 4.98337 9.62246 5.05203ZM13.3117 10.1336C14.599 10.9908 15.6523 11.7005 15.6523 11.7108C15.6523 11.7294 11.0003 14.8357 10.9377 14.8589C10.9181 14.8661 10.9043 13.5666 10.9043 11.7108C10.9043 9.85491 10.9181 8.55538 10.9377 8.56265C10.956 8.56944 12.0243 9.27637 13.3117 10.1336Z" fill="#485F7D"/>
</g>
<defs>
<clipPath id="clip0_410_56367">
<rect width="24" height="24" fill="white"/>
</clipPath>
</defs>
</svg>
