<svg width="24" height="24" viewBox="0 0 24 24" fill="none" xmlns="http://www.w3.org/2000/svg">
<path d="M16.177 18.456C16.4776 18.6003 16.8504 18.9731 17.0308 19.2737C17.0909 19.6946 17.3916 18.0712 18.8586 17.1092M21.5 18.001C21.5 20.2102 19.7091 22.001 17.5 22.001C15.2909 22.001 13.5 20.2102 13.5 18.001C13.5 15.7919 15.2909 14.001 17.5 14.001C19.7091 14.001 21.5 15.7919 21.5 18.001Z" stroke="#E5007A" stroke-width="1.5" stroke-linecap="round"/>
<path d="M11.0078 14.001C12.1124 14.001 13.0078 13.1055 13.0078 12.001C13.0078 10.8964 12.1124 10.001 11.0078 10.001C9.90324 10.001 9.00781 10.8964 9.00781 12.001C9.00781 13.1055 9.90324 14.001 11.0078 14.001Z" stroke="#E5007A" stroke-width="1.5"/>
<path d="M7.50765 18.0009C8.45765 17.1009 9.25765 16.6009 11.0327 16.5009M19.5077 11.5009C19.5077 10.7009 19.5327 8.25098 19.4077 7.25098C19.3327 6.42598 19.1077 5.30098 18.0827 4.65098C17.4577 4.32598 16.8577 4.02598 13.9827 4.00098M7.95765 4.00098C5.80765 4.00098 4.13265 4.17598 3.30766 5.20098C2.60766 6.15764 2.64932 7.25098 2.58265 7.60098C2.43265 9.47598 2.53265 16.0259 2.53265 17.1259C2.53265 18.2759 2.45765 20.6134 4.03265 21.4009C5.38265 22.0759 6.78265 21.9759 11.5327 22.0009" stroke="#E5007A" stroke-width="1.5" stroke-linecap="round"/>
<path d="M10.8582 2.00105C10.2582 2.00105 9.75814 2.00105 9.25814 2.52605C8.83314 2.92605 8.89908 3.27928 8.73314 3.90105C8.49962 4.77605 8.3829 5.23753 8.70815 5.60105C9.00631 5.99135 9.50746 5.99262 9.94999 5.99373L9.95815 5.99376C10.3832 6.02385 11.8117 6.01007 12.2332 5.99376C12.686 5.97622 13.0505 5.95105 13.3582 5.55105C13.6332 5.19355 13.4701 4.59861 13.3082 3.97605C13.1484 3.36181 13.2082 3.05105 12.7832 2.52605C12.1832 1.92605 11.4582 2.00105 10.8582 2.00105Z" stroke="#E5007A" stroke-width="1.5" stroke-linecap="round"/>
</svg>
