<svg width="16" height="16" viewBox="0 0 16 16" fill="none" xmlns="http://www.w3.org/2000/svg">
<path d="M7.33301 5.3335C7.33301 4.96531 7.63148 4.66683 7.99967 4.66683C8.36786 4.66683 8.66634 4.96531 8.66634 5.3335C8.66634 5.70169 8.36786 6.00016 7.99967 6.00016C7.63148 6.00016 7.33301 5.70169 7.33301 5.3335ZM7.33301 8.00016C7.33301 7.63197 7.63148 7.3335 7.99967 7.3335C8.36786 7.3335 8.66634 7.63197 8.66634 8.00016V10.6668C8.66634 11.035 8.36786 11.3335 7.99967 11.3335C7.63148 11.3335 7.33301 11.035 7.33301 10.6668V8.00016ZM7.99967 1.3335C4.31967 1.3335 1.33301 4.32016 1.33301 8.00016C1.33301 11.6802 4.31967 14.6668 7.99967 14.6668C11.6797 14.6668 14.6663 11.6802 14.6663 8.00016C14.6663 4.32016 11.6797 1.3335 7.99967 1.3335ZM7.99967 13.3335C5.05967 13.3335 2.66634 10.9402 2.66634 8.00016C2.66634 5.06016 5.05967 2.66683 7.99967 2.66683C10.9397 2.66683 13.333 5.06016 13.333 8.00016C13.333 10.9402 10.9397 13.3335 7.99967 13.3335Z" fill="#485F7D"/>
</svg>
