<svg width="16" height="16" viewBox="0 0 16 16" fill="none" xmlns="http://www.w3.org/2000/svg">
<mask id="mask0_410_56617" style="mask-type:luminance" maskUnits="userSpaceOnUse" x="0" y="0" width="16" height="16">
<path d="M16 0H0V16H16V0Z" fill="white"/>
</mask>
<g mask="url(#mask0_410_56617)">
<path d="M8 16C12.4183 16 16 12.4183 16 8C16 3.58172 12.4183 0 8 0C3.58172 0 0 3.58172 0 8C0 12.4183 3.58172 16 8 16Z" fill="#F1305A"/>
<path d="M3.17676 6.40067C3.17676 3.62157 5.33629 1.36865 8.0002 1.36865C10.6641 1.36865 12.8237 3.62157 12.8237 6.40067V9.60108C12.8237 11.1007 12.1949 12.4471 11.1973 13.369V6.40067C11.1973 4.55858 9.76594 3.06527 8.0002 3.06527C6.23446 3.06527 4.80306 4.55858 4.80306 6.40067V13.369C3.80554 12.4471 3.17676 11.1007 3.17676 9.60108V6.40067Z" fill="white"/>
<path d="M4.80273 13.3687C5.65385 14.1552 6.77341 14.6328 7.99988 14.6328C9.22635 14.6328 10.3459 14.1552 11.197 13.3687H4.80273Z" fill="white"/>
<path d="M9.99575 6.40008C8.89341 6.40008 7.99981 5.46784 7.99981 4.31787C7.99981 5.46784 7.10621 6.40008 6.00391 6.40008C7.10621 6.40008 7.99981 7.3323 7.99981 8.4823C7.99981 7.3323 8.89341 6.40008 9.99575 6.40008Z" fill="white"/>
</g>
</svg>
