<svg width="16" height="16" viewBox="0 0 16 16" fill="none" xmlns="http://www.w3.org/2000/svg">
<g clip-path="url(#clip0_410_56595)">
<mask id="mask0_410_56595" style="mask-type:luminance" maskUnits="userSpaceOnUse" x="0" y="0" width="16" height="16">
<path d="M16 0H0V16H16V0Z" fill="white"/>
</mask>
<g mask="url(#mask0_410_56595)">
<path d="M8 16C12.4183 16 16 12.4183 16 8C16 3.58172 12.4183 0 8 0C3.58172 0 0 3.58172 0 8C0 12.4183 3.58172 16 8 16Z" fill="#2B75C6"/>
<path d="M6.23425 2.79374C6.44771 2.72235 6.65965 2.88674 6.65965 3.11042V3.45333C6.65965 3.60412 6.56017 3.73609 6.41793 3.78883C4.69921 4.42606 3.47531 6.07123 3.47531 8.00031C3.47531 9.92938 4.69921 11.5745 6.41793 12.2118C6.56017 12.2645 6.65965 12.3964 6.65965 12.5472V12.8902C6.65965 13.1138 6.44771 13.2782 6.23425 13.2068C4.04581 12.475 2.46973 10.4204 2.46973 8.00031C2.46973 5.58017 4.04581 3.52562 6.23425 2.79374Z" fill="white"/>
<path d="M9.58255 12.2118C9.44029 12.2645 9.34082 12.3964 9.34082 12.5472V12.8902C9.34082 13.1138 9.55275 13.2782 9.76622 13.2068C11.9547 12.475 13.5308 10.4204 13.5308 8.00031C13.5308 5.58017 11.9547 3.52562 9.76622 2.79374C9.55275 2.72235 9.34082 2.88674 9.34082 3.11042V3.45333C9.34082 3.60412 9.44029 3.73609 9.58255 3.78883C11.3013 4.42606 12.5252 6.07123 12.5252 8.00031C12.5252 9.92938 11.3013 11.5745 9.58255 12.2118Z" fill="white"/>
<path d="M7.61495 4.70013C7.61495 4.6082 7.68995 4.53369 7.78255 4.53369H8.25182C8.34435 4.53369 8.41942 4.6082 8.41942 4.70013V5.34105C8.66002 5.37016 8.88122 5.43154 9.08309 5.52518C9.37589 5.65868 9.60275 5.84821 9.76362 6.09375C9.89729 6.29488 9.97622 6.5184 10.0004 6.76432C10.0094 6.85579 9.93342 6.93052 9.84082 6.93052H9.09582C9.00329 6.93052 8.93042 6.85539 8.91455 6.76479C8.88662 6.60473 8.81555 6.47521 8.70135 6.37625C8.55015 6.24275 8.33769 6.176 8.06409 6.176C7.80002 6.176 7.59475 6.23202 7.44835 6.34407C7.30189 6.45373 7.22869 6.59914 7.22869 6.78032C7.22869 6.94959 7.31389 7.09146 7.48435 7.20586C7.65715 7.32026 7.91042 7.42759 8.24409 7.52766C8.28809 7.54079 8.33122 7.55366 8.37355 7.56619L8.37575 7.56686C8.92369 7.72946 9.33229 7.85079 9.59275 8.10273C9.87355 8.37453 10.0084 8.82099 10.0084 9.22626C10.0084 9.67679 9.83682 10.0308 9.49355 10.2883C9.21422 10.4959 8.85622 10.619 8.41949 10.6576L8.41942 11.2858C8.41942 11.3777 8.34435 11.4522 8.25182 11.4522H7.78249C7.68995 11.4522 7.61489 11.3777 7.61489 11.2858V10.6319C7.39975 10.5964 7.19662 10.5367 7.00542 10.4528C6.67415 10.305 6.42093 10.1035 6.24569 9.84846C6.10195 9.63626 6.01797 9.39612 5.99378 9.12786C5.98553 9.03632 6.06148 8.96159 6.15404 8.96159H6.90269C6.99522 8.96159 7.06855 9.03666 7.08095 9.12772C7.14402 9.59152 7.48615 9.82339 8.10729 9.82339C8.36409 9.82339 8.56455 9.77213 8.70855 9.66966C8.85262 9.56473 8.92462 9.41932 8.92462 9.23339C8.92462 9.03072 8.85815 8.76786 8.71415 8.66059C8.62835 8.59526 8.49962 8.56652 8.33035 8.52879C8.21555 8.50319 8.08215 8.47339 7.93082 8.42526C7.55635 8.30366 7.25989 8.18446 7.04142 8.06766C6.44613 7.74819 6.14847 7.31792 6.14847 6.77672C6.14847 6.49544 6.22769 6.24513 6.38612 6.02581C6.54695 5.8041 6.77622 5.63127 7.07389 5.5073C7.24282 5.43751 7.42315 5.38736 7.61495 5.35686V4.70013Z" fill="white"/>
</g>
</g>
<defs>
<clipPath id="clip0_410_56595">
<rect width="16" height="16" fill="white"/>
</clipPath>
</defs>
</svg>
