<svg width="16" height="16" viewBox="0 0 16 16" fill="none" xmlns="http://www.w3.org/2000/svg">
<g clip-path="url(#clip0_410_56607)">
<mask id="mask0_410_56607" style="mask-type:luminance" maskUnits="userSpaceOnUse" x="0" y="0" width="16" height="16">
<path d="M16 0H0V16H16V0Z" fill="white"/>
</mask>
<g mask="url(#mask0_410_56607)">
<path d="M8 16C12.4183 16 16 12.4183 16 8C16 3.58172 12.4183 0 8 0C3.58172 0 0 3.58172 0 8C0 12.4183 3.58172 16 8 16Z" fill="#009393"/>
<path fill-rule="evenodd" clip-rule="evenodd" d="M12.0409 4.00049V5.5089H9.00695V6.55473C11.1378 6.66649 12.7365 7.12552 12.7483 7.67572L12.7483 8.82266C12.7364 9.37286 11.1378 9.83185 9.00695 9.94365V12.5103H6.99235V9.94365C4.86154 9.83185 3.26284 9.37286 3.25098 8.82266L3.25106 7.67572C3.2629 7.12552 4.86154 6.66649 6.99235 6.55473V5.5089H3.95842V4.00049H12.0409ZM7.99968 9.15565C10.2736 9.15565 12.1743 8.76752 12.6395 8.24919C12.245 7.80966 10.8183 7.46372 9.00695 7.36872V8.46365C8.68228 8.48072 8.34528 8.48972 7.99968 8.48972C7.65402 8.48972 7.31702 8.48072 6.99235 8.46365V7.36872C5.18106 7.46372 3.75431 7.80966 3.35986 8.24919C3.82502 8.76752 5.72568 9.15565 7.99968 9.15565Z" fill="white"/>
</g>
</g>
<defs>
<clipPath id="clip0_410_56607">
<rect width="16" height="16" fill="white"/>
</clipPath>
</defs>
</svg>
