<svg width="50" height="50" viewBox="0 0 50 50" fill="none" xmlns="http://www.w3.org/2000/svg">
<circle cx="25" cy="25" r="25" fill="#FFF1F3"/>
<g clip-path="url(#clip0_3879_69778)">
<path d="M19.4403 34.1049H15.8986C15.3421 34.1049 14.8867 33.6496 14.8867 33.093V22.974C14.8867 22.4174 15.3421 21.9621 15.8986 21.9621H19.4403C19.9968 21.9621 20.4522 22.4174 20.4522 22.974V33.093C20.4522 33.6496 19.9968 34.1049 19.4403 34.1049ZM26.7766 15.8906H23.2349C22.6784 15.8906 22.223 16.346 22.223 16.9025V33.093C22.223 33.6496 22.6784 34.1049 23.2349 34.1049H26.7766C27.3331 34.1049 27.7885 33.6496 27.7885 33.093V16.9025C27.7885 16.346 27.3331 15.8906 26.7766 15.8906ZM34.1129 23.9859H30.5712C30.0147 23.9859 29.5593 24.4412 29.5593 24.9978V33.093C29.5593 33.6496 30.0147 34.1049 30.5712 34.1049H34.1129C34.6695 34.1049 35.1248 33.6496 35.1248 33.093V24.9978C35.1248 24.4412 34.6695 23.9859 34.1129 23.9859Z" fill="url(#paint0_linear_3879_69778)"/>
<path d="M19.4403 34.1049H15.8986C15.3421 34.1049 14.8867 33.6496 14.8867 33.093V22.974C14.8867 22.4174 15.3421 21.9621 15.8986 21.9621H19.4403C19.9968 21.9621 20.4522 22.4174 20.4522 22.974V33.093C20.4522 33.6496 19.9968 34.1049 19.4403 34.1049ZM26.7766 15.8906H23.2349C22.6784 15.8906 22.223 16.346 22.223 16.9025V33.093C22.223 33.6496 22.6784 34.1049 23.2349 34.1049H26.7766C27.3331 34.1049 27.7885 33.6496 27.7885 33.093V16.9025C27.7885 16.346 27.3331 15.8906 26.7766 15.8906ZM34.1129 23.9859H30.5712C30.0147 23.9859 29.5593 24.4412 29.5593 24.9978V33.093C29.5593 33.6496 30.0147 34.1049 30.5712 34.1049H34.1129C34.6695 34.1049 35.1248 33.6496 35.1248 33.093V24.9978C35.1248 24.4412 34.6695 23.9859 34.1129 23.9859Z" fill="url(#paint1_linear_3879_69778)"/>
</g>
<defs>
<linearGradient id="paint0_linear_3879_69778" x1="25.0058" y1="15.8906" x2="25.0058" y2="34.1049" gradientUnits="userSpaceOnUse">
<stop stop-color="#967CFD"/>
<stop offset="1" stop-color="#3177FF"/>
</linearGradient>
<linearGradient id="paint1_linear_3879_69778" x1="25.0058" y1="15.8906" x2="25.0058" y2="34.1049" gradientUnits="userSpaceOnUse">
<stop stop-color="#E42447"/>
<stop offset="1" stop-color="#600D62"/>
</linearGradient>
<clipPath id="clip0_3879_69778">
<rect width="24.2857" height="24.2857" fill="white" transform="translate(12.8594 12.8574)"/>
</clipPath>
</defs>
</svg>
