<svg width="20" height="20" viewBox="0 0 20 20" fill="none" xmlns="http://www.w3.org/2000/svg">
<circle cx="10" cy="10" r="10" fill="#D2D8E0" fill-opacity="0.4"/>
<path d="M9.99926 16.0952C13.2867 16.0952 15.9516 13.4302 15.9516 10.1428C15.9516 6.8554 13.2867 4.19043 9.99926 4.19043C6.71185 4.19043 4.04688 6.8554 4.04688 10.1428C4.04688 13.4302 6.71185 16.0952 9.99926 16.0952Z" fill="#485F7D" fill-opacity="0.2" stroke="#485F7D" stroke-width="0.892857"/>
<path d="M7.61719 12.5236L12.3791 7.76172M8.80766 8.35696C8.80766 8.6857 8.54116 8.9522 8.21243 8.9522C7.88369 8.9522 7.61719 8.6857 7.61719 8.35696C7.61719 8.02822 7.88369 7.76172 8.21243 7.76172C8.54116 7.76172 8.80766 8.02822 8.80766 8.35696ZM12.3791 11.8262C12.3791 12.155 12.1126 12.4215 11.7839 12.4215C11.4551 12.4215 11.1886 12.155 11.1886 11.8262C11.1886 11.4975 11.4551 11.231 11.7839 11.231C12.1126 11.231 12.3791 11.4975 12.3791 11.8262Z" stroke="#485F7D" stroke-width="0.892857" stroke-linecap="round"/>
</svg>
