<svg width="20" height="20" viewBox="0 0 20 20" fill="none" xmlns="http://www.w3.org/2000/svg">
<circle cx="10" cy="10" r="10" fill="#D2D8E0" fill-opacity="0.4"/>
<path opacity="0.5" d="M3.75 13.924C3.75 13.2638 3.75 12.9337 3.92434 12.7285C4.09868 12.5234 4.37928 12.5234 4.94048 12.5234H14.4643C15.0255 12.5234 15.3061 12.5234 15.4804 12.7285C15.6548 12.9337 15.6548 13.2638 15.6548 13.924C15.6548 14.5842 15.6548 14.9143 15.4804 15.1195C15.3061 15.3246 15.0255 15.3246 14.4643 15.3246H4.94048C4.37928 15.3246 4.09868 15.3246 3.92434 15.1195C3.75 14.9143 3.75 14.5842 3.75 13.924Z" fill="#485F7D"/>
<path fill-rule="evenodd" clip-rule="evenodd" d="M10.0103 5.521H9.39237C7.06215 5.521 5.89704 5.521 5.17313 6.10694C4.44922 6.69287 4.44922 7.63593 4.44922 9.52203V12.5238C4.53894 12.5228 4.6649 12.5228 4.75817 12.5228H14.6445C14.7377 12.5228 14.8637 12.5228 14.9534 12.5238V9.52203C14.9534 7.63593 14.9534 6.69287 14.2295 6.10694C13.5056 5.521 12.3405 5.521 10.0103 5.521ZM11.4517 7.38404C11.632 7.54503 11.6477 7.82171 11.4867 8.00201L9.40255 10.3363C9.31951 10.4293 9.20075 10.4825 9.07607 10.4825C8.9514 10.4825 8.83263 10.4293 8.7496 10.3363L7.91593 9.40257C7.75494 9.22227 7.7706 8.94559 7.95091 8.7846C8.13122 8.62361 8.4079 8.63927 8.56889 8.81958L9.07607 9.38763L10.8338 7.41902C10.9948 7.23871 11.2714 7.22305 11.4517 7.38404Z" fill="#485F7D"/>
<path fill-rule="evenodd" clip-rule="evenodd" d="M10.0103 5.521H9.39237C7.06215 5.521 5.89704 5.521 5.17313 6.10694C4.44922 6.69287 4.44922 7.63593 4.44922 9.52203V12.5238C4.53894 12.5228 4.6649 12.5228 4.75817 12.5228H14.6445C14.7377 12.5228 14.8637 12.5228 14.9534 12.5238V9.52203C14.9534 7.63593 14.9534 6.69287 14.2295 6.10694C13.5056 5.521 12.3405 5.521 10.0103 5.521ZM11.4517 7.38404C11.632 7.54503 11.6477 7.82171 11.4867 8.00201L9.40255 10.3363C9.31951 10.4293 9.20075 10.4825 9.07607 10.4825C8.9514 10.4825 8.83263 10.4293 8.7496 10.3363L7.91593 9.40257C7.75494 9.22227 7.7706 8.94559 7.95091 8.7846C8.13122 8.62361 8.4079 8.63927 8.56889 8.81958L9.07607 9.38763L10.8338 7.41902C10.9948 7.23871 11.2714 7.22305 11.4517 7.38404Z" fill="#485F7D"/>
</svg>
