<svg width="17" height="17" viewBox="0 0 17 17" fill="none" xmlns="http://www.w3.org/2000/svg">
<path d="M13.3391 5.37825C14.1368 5.37826 14.7835 6.02495 14.7835 6.8227C14.7835 7.62044 14.1368 8.26714 13.3391 8.26714C12.5413 8.26714 11.8946 7.62044 11.8946 6.8227C11.8946 6.02495 12.5413 5.37825 13.3391 5.37825Z" fill="white"/>
<path d="M13.3391 11.156C14.1368 11.156 14.7835 11.8027 14.7835 12.6005C14.7835 13.3982 14.1368 14.0449 13.3391 14.0449C12.5413 14.0449 11.8946 13.3982 11.8946 12.6005C11.8946 11.8027 12.5413 11.156 13.3391 11.156Z" fill="white"/>
<path d="M5.39464 3.93381C4.5969 3.93381 3.9502 3.28711 3.9502 2.48937C3.9502 1.69162 4.5969 1.04492 5.39464 1.04492C6.19238 1.04492 6.83908 1.69162 6.83908 2.48937C6.83908 3.28711 6.19238 3.93381 5.39464 3.93381Z" fill="white"/>
<path d="M11.8946 6.8227C11.8946 6.02495 12.5413 5.37826 13.3391 5.37826C14.1368 5.37826 14.7835 6.02495 14.7835 6.8227C14.7835 7.62044 14.1368 8.26714 13.3391 8.26714C12.5413 8.26714 11.8946 7.62044 11.8946 6.8227ZM11.8946 6.8227L8.28353 6.8227C6.92169 6.8227 6.24078 6.8227 5.81771 6.39963C5.39464 5.97656 5.39464 5.29565 5.39464 3.93381M11.8946 12.6005C11.8946 11.8027 12.5413 11.156 13.3391 11.156C14.1368 11.156 14.7835 11.8027 14.7835 12.6005C14.7835 13.3982 14.1368 14.0449 13.3391 14.0449C12.5413 14.0449 11.8946 13.3982 11.8946 12.6005ZM11.8946 12.6005H8.28353C6.92169 12.6005 6.24078 12.6005 5.81771 12.1774C5.39464 11.7543 5.39464 11.0734 5.39464 9.71159V3.21159M5.39464 3.93381C6.19238 3.93381 6.83908 3.28711 6.83908 2.48937C6.83908 1.69162 6.19238 1.04492 5.39464 1.04492C4.5969 1.04492 3.9502 1.69162 3.9502 2.48937C3.9502 3.28711 4.5969 3.93381 5.39464 3.93381Z" stroke="white" stroke-width="1.2"/>
</svg>
