<svg width="33" height="33" viewBox="0 0 33 33" fill="none" xmlns="http://www.w3.org/2000/svg">
<path d="M15.5003 10.5081C14.2525 10.8493 13.5003 11.8068 13.5003 12.7114C13.5003 13.616 14.2525 14.5736 15.5003 14.9148V10.5081Z" fill="#FFC91A"/>
<path d="M17.5003 17.1747V21.5815C18.7482 21.2402 19.5003 20.2827 19.5003 19.3781C19.5003 18.4735 18.7482 17.5159 17.5003 17.1747Z" fill="#FFC91A"/>
<path fill-rule="evenodd" clip-rule="evenodd" d="M29.8337 16.0448C29.8337 23.4086 23.8641 29.3781 16.5003 29.3781C9.13653 29.3781 3.16699 23.4086 3.16699 16.0448C3.16699 8.68096 9.13653 2.71143 16.5003 2.71143C23.8641 2.71143 29.8337 8.68096 29.8337 16.0448ZM16.5003 7.04476C17.0526 7.04476 17.5003 7.49247 17.5003 8.04476V8.46707C19.6742 8.85632 21.5003 10.4896 21.5003 12.7114C21.5003 13.2637 21.0526 13.7114 20.5003 13.7114C19.948 13.7114 19.5003 13.2637 19.5003 12.7114C19.5003 11.8068 18.7482 10.8493 17.5003 10.5081V15.1337C19.6742 15.523 21.5003 17.1562 21.5003 19.3781C21.5003 21.5999 19.6742 23.2332 17.5003 23.6224V24.0448C17.5003 24.597 17.0526 25.0448 16.5003 25.0448C15.948 25.0448 15.5003 24.597 15.5003 24.0448V23.6224C13.3264 23.2332 11.5003 21.5999 11.5003 19.3781C11.5003 18.8258 11.948 18.3781 12.5003 18.3781C13.0526 18.3781 13.5003 18.8258 13.5003 19.3781C13.5003 20.2827 14.2525 21.2402 15.5003 21.5815V16.9558C13.3264 16.5665 11.5003 14.9333 11.5003 12.7114C11.5003 10.4896 13.3264 8.85632 15.5003 8.46707V8.04476C15.5003 7.49247 15.948 7.04476 16.5003 7.04476Z" fill="#FFC91A"/>
</svg>
