<svg xmlns="http://www.w3.org/2000/svg" width="24" height="24" fill="none"><path fill="#485F7D" fill-rule="evenodd" d="M3 6.93c0-1.437 1.265-2.55 2.837-3.263C7.454 2.933 9.634 2.5 12 2.5s4.546.433 6.163 1.167C19.736 4.379 21 5.493 21 6.93v10.138c0 1.438-1.265 2.552-2.837 3.264-1.617.734-3.797 1.167-6.163 1.167s-4.546-.433-6.163-1.167C4.265 19.621 3 18.507 3 17.07zm1.543 0c0-.622.576-1.374 1.984-2.012C7.887 4.301 9.822 3.9 12 3.9s4.113.402 5.474 1.02c1.407.637 1.983 1.39 1.983 2.012s-.576 1.374-1.983 2.013C16.113 9.56 14.178 9.963 12 9.963s-4.113-.402-5.473-1.02c-1.408-.638-1.984-1.39-1.984-2.012m0 10.14c0 .622.576 1.374 1.984 2.012C7.887 19.699 9.822 20.1 12 20.1s4.113-.402 5.474-1.02c1.407-.637 1.983-1.39 1.983-2.012v-2.752a7.5 7.5 0 0 1-1.294.739c-1.617.733-3.797 1.166-6.163 1.166s-4.546-.433-6.163-1.167a7.5 7.5 0 0 1-1.294-.738zm14.914-7.614v2.335c0 .623-.576 1.375-1.983 2.013-1.361.617-3.296 1.019-5.474 1.019s-4.113-.402-5.473-1.019c-1.408-.638-1.984-1.39-1.984-2.013V9.456c.387.28.827.527 1.294.739 1.617.733 3.797 1.167 6.163 1.167s4.546-.434 6.163-1.167a7.5 7.5 0 0 0 1.294-.739" clip-rule="evenodd"/></svg>