<svg xmlns="http://www.w3.org/2000/svg" width="16" height="14" fill="none"><path fill="#E5007A" d="M5.08 7.692 2.05 5.57a.335.335 0 0 1-.083-.466l2.262-3.231a.334.334 0 0 1 .466-.083l3.032 2.121a.336.336 0 0 1 .083.467L5.548 7.609a.335.335 0 0 1-.468.083m1.807-1.358.507-.728a.266.266 0 0 1 .358-.078h.003q3.583 2.282 7.164 4.568c.665.425.778 1.266.241 1.764-.403.375-.99.384-1.475.014a2386 2386 0 0 1-4.577-3.51L6.945 6.705a.27.27 0 0 1-.058-.372m1.37 7.539H.892c-.036-.757.612-1.442 1.419-1.453q2.265-.028 4.53 0c.8.011 1.458.71 1.416 1.453m.929-10.498a.54.54 0 0 1-.45.242.8.8 0 0 1-.458-.163q-.815-.566-1.628-1.136L4.928 1.115c-.4-.276-.344-.57-.277-.72a.8.8 0 0 1 .222-.27.5.5 0 0 1 .522-.086q.11.045.21.11c1.054.733 2.15 1.5 3.349 2.343.347.243.438.59.232.882M5.091 9.263a.57.57 0 0 1-.47.251.72.72 0 0 1-.411-.141c-.685-.478-1.38-.965-2.052-1.437q-.682-.48-1.367-.959c-.27-.189-.359-.452-.238-.705a.7.7 0 0 1 .178-.218.596.596 0 0 1 .73-.042l.028.02a720 720 0 0 1 3.396 2.373c.328.23.409.567.206.858"/></svg>