<svg width="16" height="14" viewBox="0 0 16 14" fill="none" xmlns="http://www.w3.org/2000/svg">
<path d="M5.08012 7.69153L2.04954 5.57017C1.97679 5.5192 1.92724 5.44143 1.91177 5.35395C1.8963 5.26647 1.91618 5.17642 1.96705 5.10359L4.229 1.87299C4.25413 1.8369 4.28613 1.80611 4.32317 1.78241C4.36021 1.7587 4.40157 1.74253 4.44487 1.73483C4.48817 1.72712 4.53256 1.72803 4.5755 1.73751C4.61845 1.74699 4.6591 1.76484 4.69514 1.79005L7.72705 3.91096C7.7999 3.96196 7.84955 4.03977 7.8651 4.12733C7.88065 4.21488 7.86083 4.30503 7.80999 4.37799L5.54803 7.60904C5.52278 7.64525 5.49063 7.67612 5.45342 7.69987C5.41621 7.72363 5.37468 7.7398 5.33121 7.74746C5.28773 7.75513 5.24317 7.75413 5.20008 7.74454C5.157 7.73494 5.11623 7.71692 5.08012 7.69153Z" fill="#E5007A"/>
<path d="M6.88658 6.33392C7.056 6.08998 7.22276 5.85048 7.39352 5.60566C7.43185 5.54904 7.4905 5.50936 7.5573 5.49482C7.62411 5.48029 7.69394 5.49202 7.75233 5.5276H7.75455C10.1433 7.04946 12.5316 8.57222 14.9192 10.0959C15.5845 10.5207 15.6967 11.3617 15.16 11.8602C14.7573 12.2345 14.1701 12.2443 13.6853 11.8735C12.1581 10.7053 10.6324 9.53525 9.10817 8.36347L6.94512 6.70603C6.88929 6.6635 6.85204 6.60106 6.84113 6.53173C6.83022 6.4624 6.8465 6.39153 6.88658 6.33392Z" fill="#E5007A"/>
<path d="M8.25661 13.872H0.891511C0.856029 13.1153 1.50357 12.4297 2.31078 12.419C3.82052 12.4001 5.33041 12.4001 6.84045 12.419C7.64056 12.4301 8.29874 13.1282 8.25661 13.872Z" fill="#E5007A"/>
<path d="M9.18623 3.3743C9.13735 3.44874 9.07065 3.5098 8.99219 3.55193C8.91373 3.59407 8.826 3.61594 8.73694 3.61558C8.5711 3.60952 8.41107 3.55288 8.27834 3.45325C7.73488 3.07537 7.19216 2.69675 6.65018 2.3174C6.07686 1.91645 5.50279 1.51581 4.92799 1.11545C4.52882 0.838698 4.58382 0.545088 4.65123 0.395178C4.7047 0.289882 4.78036 0.197428 4.87299 0.124187C4.9636 0.04417 5.08032 7.14833e-06 5.2012 1.30389e-06C5.26767 -0.000152375 5.33348 0.0132802 5.39457 0.0394746C5.46839 0.0689808 5.53899 0.105987 5.60525 0.149911C6.65949 0.882163 7.75454 1.64812 8.95382 2.4917C9.30066 2.73475 9.39158 3.08114 9.18623 3.3743Z" fill="#E5007A"/>
<path d="M5.0912 9.26293C5.04611 9.33012 4.98716 9.3869 4.91831 9.42943C4.84946 9.47196 4.77231 9.49927 4.69204 9.50952C4.66866 9.51257 4.6451 9.51405 4.62152 9.51396C4.47306 9.5105 4.32931 9.46123 4.20993 9.37292C3.52513 8.89525 2.83014 8.40782 2.1582 7.93591C1.70315 7.61628 1.24751 7.29665 0.791275 6.97702C0.520728 6.78808 0.432024 6.52463 0.553105 6.27227C0.596666 6.18827 0.657055 6.11414 0.730513 6.0545C0.830268 5.96711 0.956335 5.91551 1.08874 5.90788C1.22114 5.90024 1.3523 5.93701 1.46143 6.01236L1.48938 6.03144C2.61636 6.81469 3.75887 7.61303 4.88497 8.40471C5.21317 8.6349 5.29389 8.97198 5.0912 9.26293Z" fill="#E5007A"/>
</svg>
