<svg xmlns="http://www.w3.org/2000/svg" width="24" height="24" fill="none"><path fill="#485F7D" d="M6.62 16.963c-.438 0-.794-.278-.794-.622v-5.24c0-.343.356-.622.794-.622s.793.279.793.621v5.242c0 .345-.355.62-.793.62M19.392 9H4.62C3.727 9 3 8.323 3 7.489a1.47 1.47 0 01.244-.792c.156-.237.378-.428.64-.55l7.191-3.467h.01a2.42 2.42 0 011.97.064l7.067 3.406c.261.123.482.313.637.55.154.236.238.51.241.789.002.834-.72 1.513-1.608 1.513m-8.029-5.145l-6.94 3.35a.34.34 0 00-.143.114.33.33 0 00-.061.169c0 .185.18.337.4.337h14.773a.38.38 0 00.267-.091.36.36 0 00.124-.246.3.3 0 00-.057-.169.34.34 0 00-.14-.115l-7.076-3.41a1.17 1.17 0 00-1.014 0zm8.93 16.643H3.99c-.357 0-.647-.39-.647-.87 0-.481.29-.87.647-.87h16.303c.357 0 .648.389.648.87.001.48-.29.87-.648.87m-8.291-3.537c-.439 0-.793-.278-.793-.622v-5.24c0-.343.354-.622.793-.622.438 0 .793.279.793.621v5.242c0 .345-.355.62-.793.62m5.381.001c-.438 0-.793-.278-.793-.622v-5.24c0-.343.355-.622.793-.622s.793.279.793.621v5.242c0 .345-.355.62-.793.62"/></svg>