<svg xmlns="http://www.w3.org/2000/svg" width="24" height="24" fill="none"><path stroke="#485F7D" stroke-width="1.6" d="M3 11.026c0 .784 0 1.176.108 1.492a2 2 0 0 0 1.243 1.242c.315.108.707.108 1.491.108h.64c.513 0 .77 0 .98.106a1 1 0 0 1 .262.188c.166.167.247.41.41.897l.094.284c.22.66.33.99.592 1.179s.61.189 1.306.189h2.8c.697 0 1.044 0 1.306-.19.262-.188.372-.518.592-1.178l.095-.284c.162-.487.243-.73.41-.897a1 1 0 0 1 .261-.188c.21-.106.468-.106.98-.106h.64c.784 0 1.176 0 1.492-.108a2 2 0 0 0 1.242-1.242c.109-.316.109-.708.109-1.492"/><path stroke="#485F7D" stroke-linecap="round" stroke-linejoin="round" stroke-width="1.6" d="m7.737 9.132 3.79 2.842m0 0 3.789-2.842m-3.79 2.842V2.5"/><path stroke="#485F7D" stroke-linecap="round" stroke-width="1.6" d="M15.316 5.342h.737c1.885 0 2.828 0 3.414.586s.586 1.529.586 3.414V16.5c0 1.886 0 2.829-.586 3.414-.586.586-1.529.586-3.414.586H7c-1.886 0-2.828 0-3.414-.586C3 19.33 3 18.386 3 16.5V9.342c0-1.885 0-2.828.586-3.414S5.114 5.342 7 5.342h.737"/></svg>