<svg xmlns="http://www.w3.org/2000/svg" width="24" height="24" fill="none"><path fill="#485F7D" fill-rule="evenodd" d="M12 4.756a7.744 7.744 0 1 0 0 15.488 7.744 7.744 0 0 0 0-15.488M3 12.5a9 9 0 1 1 18 0 9 9 0 0 1-18 0m9-5.651c.347 0 .628.281.628.628v.265c1.365.244 2.512 1.27 2.512 2.665a.628.628 0 1 1-1.256 0c0-.568-.473-1.17-1.256-1.384v2.905c1.365.244 2.512 1.27 2.512 2.665s-1.147 2.42-2.512 2.665v.265a.628.628 0 0 1-1.256 0v-.265c-1.365-.244-2.512-1.27-2.512-2.665a.628.628 0 1 1 1.256 0c0 .568.473 1.17 1.256 1.383v-2.904c-1.365-.244-2.512-1.27-2.512-2.665s1.147-2.42 2.512-2.665v-.265c0-.347.281-.628.628-.628m-.628 2.174c-.784.215-1.256.816-1.256 1.384s.473 1.17 1.256 1.383zm1.256 4.187v2.766c.784-.214 1.256-.815 1.256-1.383s-.473-1.17-1.256-1.383" clip-rule="evenodd"/></svg>