<svg xmlns="http://www.w3.org/2000/svg" width="24" height="24" fill="none"><path fill="#485F7D" fill-rule="evenodd" d="M8.301 3.034a.67.67 0 0 0-.374.331c-.058.12-.07.204-.07.521v.379l-.517.02c-.719.028-1.09.115-1.594.37-.828.42-1.42 1.172-1.675 2.127L4 7.05v9.981l.075.294c.08.317.298.807.468 1.054.148.216.505.587.73.76a3.4 3.4 0 0 0 1.539.633c.192.026 1.924.034 5.757.027l5.483-.01.254-.072c.585-.167 1.024-.404 1.407-.76.572-.53.903-1.129 1.03-1.862.076-.431.076-9.679 0-10.11a3.16 3.16 0 0 0-.918-1.74c-.69-.69-1.428-.965-2.599-.968h-.3l-.011-.425c-.012-.41-.015-.429-.11-.563a.644.644 0 0 0-1.107.064c-.085.162-.092.204-.092.55v.373H9.171v-.374c0-.345-.007-.387-.091-.549a.65.65 0 0 0-.779-.318m-.443 3.261c0 .755.018.86.174 1.028.335.36.976.214 1.105-.25.018-.067.034-.429.034-.803v-.682h6.435v.682c0 .374.016.736.034.803.13.464.77.61 1.105.25.157-.167.174-.273.174-1.033V5.58l.468.019c.262.01.554.042.662.071.522.141.992.532 1.233 1.027.144.295.197.577.198 1.051v.402H5.297v-.402c.001-.474.054-.756.198-1.05A1.94 1.94 0 0 1 6.987 5.62c.09-.014.324-.026.518-.029l.353-.004zm11.622 6.823c0 3.55-.002 3.663-.065 3.913a1.96 1.96 0 0 1-1.282 1.364l-.245.08H6.889l-.244-.08a2.26 2.26 0 0 1-.857-.553 2 2 0 0 1-.426-.812c-.063-.249-.065-.366-.065-3.912V9.463H19.48zM7.611 11.461c-.222.101-.41.373-.41.595 0 .223.188.495.41.596.115.052.228.06.896.06.845.001.917-.012 1.117-.205a.66.66 0 0 0 .158-.278.46.46 0 0 0 0-.346.66.66 0 0 0-.158-.277c-.2-.193-.272-.206-1.117-.206-.668.001-.78.009-.896.06m3.832.024a.63.63 0 0 0-.194.987c.196.224.27.24 1.14.24.855 0 .934-.016 1.128-.223.291-.31.174-.842-.226-1.027-.115-.054-.222-.061-.904-.062-.768 0-.775 0-.944.085m3.933-.033a.65.65 0 0 0 .008 1.21c.098.041.268.05.886.05.668 0 .78-.008.896-.06.222-.101.41-.373.41-.596s-.188-.494-.41-.595c-.116-.053-.226-.06-.903-.06-.616.001-.795.011-.887.051m-7.808 3.907a.63.63 0 0 0-.193.987c.195.224.271.24 1.132.24.618.001.788-.009.887-.05.446-.186.558-.746.215-1.072-.185-.176-.27-.19-1.104-.19-.759 0-.767 0-.937.085m3.95-.042a.66.66 0 0 0-.426.518c-.048.26.128.57.393.69.116.053.227.06.904.06.874 0 .952-.016 1.141-.246a.647.647 0 0 0-.239-1.003c-.116-.054-.218-.06-.902-.059-.51.001-.805.015-.87.04m3.858.01a.65.65 0 0 0 .008 1.21c.098.04.268.05.886.05.86-.001.937-.017 1.133-.24a.63.63 0 0 0-.202-.992c-.16-.08-.179-.081-.936-.08-.617.001-.797.011-.889.051" clip-rule="evenodd"/></svg>