<svg xmlns="http://www.w3.org/2000/svg" width="32" height="32" fill="none"><rect width="32" height="32" fill="#FFCF23" rx="16"/><g stroke="#243A57" stroke-linecap="round" stroke-linejoin="round" stroke-width="1.4" clip-path="url(#a)"><path d="M14.791 9.918 8.805 20.012a1.44 1.44 0 0 0 .507 1.945c.213.126.455.194.701.197h11.974a1.4 1.4 0 0 0 1.212-.72 1.44 1.44 0 0 0-.004-1.422L17.21 9.918A1.42 1.42 0 0 0 16 9.231a1.4 1.4 0 0 0-1.209.687M16 14v3.333M16 19.333h.007"/></g><defs><clipPath id="a"><path fill="#fff" d="M8 8h16v16H8z"/></clipPath></defs></svg>