<svg xmlns="http://www.w3.org/2000/svg" width="24" height="24" fill="none"><path fill="#485F7D" stroke="#fff" stroke-width=".2" d="M3.374 11.935l3.292-2.87.034-.03V4.9a.8.8 0 01.8-.8h12.6a.8.8 0 01.8.8v14.4a.8.8 0 01-.8.8H3.9a.8.8 0 01-.8-.8v-6.762a.8.8 0 01.274-.603zM9.2 18.4v.1h2.9v-5.598l-.034-.03-3.6-3.139-.066-.057-.066.057-3.6 3.14-.034.03V18.5h2.9v-2.8a.8.8 0 011.6 0zm4.5 0v.1h5.6V5.7h-11v2.114h.1c.187 0 .375.066.525.198l4.5 3.923a.8.8 0 01.275.603zm2-7.1h1.6v1.6h-1.6zm0 3.6h1.6v1.6h-1.6zm0-7.2h1.6v1.6h-1.6zm-3.6 0h1.6v1.6h-1.6z"/></svg>