<svg width="24" height="24" viewBox="0 0 24 24" fill="none" xmlns="http://www.w3.org/2000/svg">
<path d="M13.0729 17.6293H3.18921C2.87483 17.6293 2.57332 17.7541 2.35102 17.9764C2.12872 18.1987 2.00383 18.5002 2.00383 18.8146C2.00383 19.129 2.12872 19.4305 2.35102 19.6528C2.57332 19.8751 2.87483 20 3.18921 20H16.949C17.0396 19.9994 17.13 19.9884 17.2182 19.9673C16.3972 19.9087 15.5995 19.6686 14.8827 19.2643C14.1658 18.8599 13.5477 18.3015 13.0729 17.6293Z" fill="#485F7D"/>
<path d="M11.2586 11.3546V14.7938C11.2586 15.1082 11.1337 15.4097 10.9114 15.632C10.6891 15.8543 10.3876 15.9792 10.0733 15.9792C9.75888 15.9792 9.45737 15.8543 9.23507 15.632C9.01277 15.4097 8.88789 15.1082 8.88789 14.7938V11.3546C8.88789 11.0402 9.01277 10.7387 9.23507 10.5164C9.45737 10.2941 9.75888 10.1692 10.0733 10.1692C10.3876 10.1692 10.6891 10.2941 10.9114 10.5164C11.1337 10.7387 11.2586 11.0402 11.2586 11.3546Z" fill="#485F7D"/>
<path d="M6.09698 11.3546V14.7938C6.09698 15.1082 5.97209 15.4097 5.74979 15.632C5.52749 15.8543 5.22599 15.9792 4.91161 15.9792C4.59723 15.9792 4.29573 15.8543 4.07343 15.632C3.85113 15.4097 3.72624 15.1082 3.72624 14.7938V11.3546C3.72624 11.0402 3.85113 10.7387 4.07343 10.5164C4.29573 10.2941 4.59723 10.1692 4.91161 10.1692C5.22599 10.1692 5.52749 10.2941 5.74979 10.5164C5.97209 10.7387 6.09698 11.0402 6.09698 11.3546Z" fill="#485F7D"/>
<path d="M18.1343 7.61831C18.1352 7.74546 18.1111 7.87155 18.0632 7.98935C18.0153 8.10715 17.9447 8.21435 17.8553 8.30482C17.7659 8.39528 17.6596 8.46723 17.5424 8.51654C17.4252 8.56586 17.2994 8.59157 17.1723 8.5922H2.98051C2.76234 8.59543 2.54949 8.52471 2.37663 8.39156C2.20376 8.25841 2.08105 8.07067 2.02847 7.8589C1.97589 7.64713 1.99654 7.4238 2.08705 7.22526C2.17756 7.02672 2.33261 6.86466 2.52696 6.76545L9.31918 3.18848C9.55015 3.06474 9.80811 3 10.0701 3C10.3321 3 10.5901 3.06474 10.8211 3.18848L17.614 6.76545C17.7702 6.84671 17.9012 6.9691 17.9929 7.11941C18.0846 7.26972 18.1335 7.44223 18.1343 7.61831Z" fill="#485F7D"/>
<path d="M17.7336 8.93168C16.7173 8.93223 15.7239 9.23413 14.879 9.79922C14.0342 10.3643 13.3759 11.1672 12.9874 12.1064C12.5988 13.0456 12.4975 14.0789 12.6962 15.0757C12.8949 16.0724 13.3846 16.9879 14.1036 17.7064C14.8225 18.4248 15.7383 18.914 16.7352 19.112C17.7321 19.31 18.7654 19.2079 19.7043 18.8188C20.6432 18.4296 21.4457 17.7708 22.0102 16.9256C22.5747 16.0804 22.8759 15.0868 22.8758 14.0704C22.8753 12.7071 22.3332 11.3998 21.3689 10.4361C20.4046 9.47247 19.0969 8.93131 17.7336 8.93168ZM15.3441 17.4108C16.0401 16.9097 16.876 16.6401 17.7336 16.6401C18.5913 16.6401 19.4272 16.9097 20.1232 17.4108C19.4272 17.9119 18.5913 18.1815 17.7336 18.1815C16.876 18.1815 16.0401 17.9119 15.3441 17.4108ZM20.8891 16.7041C19.9887 15.9982 18.8777 15.6146 17.7336 15.6146C16.5896 15.6146 15.4786 15.9982 14.5782 16.7041C14.0771 16.104 13.7574 15.3735 13.6567 14.5983C13.556 13.823 13.6784 13.035 14.0096 12.3269C14.3408 11.6187 14.8671 11.0197 15.5267 10.6C16.1863 10.1803 16.9518 9.95739 17.7336 9.95739C18.5154 9.95739 19.281 10.1803 19.9406 10.6C20.6002 11.0197 21.1265 11.6187 21.4577 12.3269C21.7889 13.035 21.9113 13.823 21.8106 14.5983C21.7099 15.3735 21.3902 16.104 20.8891 16.7041Z" fill="#485F7D"/>
<path d="M17.7336 10.9873C17.3778 10.9873 17.03 11.0928 16.7341 11.2905C16.4383 11.4882 16.2077 11.7692 16.0716 12.098C15.9354 12.4267 15.8999 12.7884 15.9693 13.1374C16.0388 13.4864 16.2102 13.8069 16.4619 14.0585C16.7135 14.31 17.0341 14.4813 17.3831 14.5507C17.7321 14.62 18.0938 14.5843 18.4225 14.448C18.7512 14.3117 19.0321 14.0811 19.2297 13.7851C19.4273 13.4892 19.5327 13.1413 19.5326 12.7855C19.532 12.3086 19.3423 11.8515 19.005 11.5143C18.6678 11.1772 18.2105 10.9877 17.7336 10.9873ZM17.7336 13.5563C17.5812 13.5563 17.4322 13.5111 17.3054 13.4264C17.1787 13.3417 17.0799 13.2213 17.0215 13.0805C16.9632 12.9396 16.9479 12.7847 16.9777 12.6351C17.0074 12.4856 17.0808 12.3483 17.1886 12.2405C17.2964 12.1327 17.4338 12.0593 17.5833 12.0296C17.7328 11.9998 17.8878 12.0151 18.0286 12.0734C18.1694 12.1318 18.2898 12.2306 18.3745 12.3573C18.4592 12.4841 18.5044 12.6331 18.5044 12.7855C18.5045 12.8868 18.4846 12.987 18.4459 13.0806C18.4072 13.1741 18.3505 13.2591 18.2789 13.3307C18.2073 13.4023 18.1223 13.4591 18.0287 13.4978C17.9352 13.5365 17.8349 13.5564 17.7336 13.5563Z" fill="#485F7D"/>
</svg>
