<svg xmlns="http://www.w3.org/2000/svg" width="24" height="24" fill="none"><path fill="#485F7D" d="M6.419 17.463c-.414 0-.75-.278-.75-.622v-5.24c0-.343.336-.622.75-.622s.749.279.749.621v5.242c0 .345-.335.62-.749.62M18.481 9.5H4.53C3.686 9.5 3 8.823 3 7.989c.003-.28.083-.555.23-.792s.358-.428.605-.55l6.792-3.467h.009a2.17 2.17 0 011.861.064l6.674 3.406c.247.123.454.313.6.55.147.236.226.51.229.789a1.515 1.515 0 01-1.519 1.513m-7.583-5.145l-6.554 3.35a.33.33 0 00-.193.283c0 .185.17.337.379.337h13.95a.35.35 0 00.253-.091.36.36 0 00.117-.246.33.33 0 00-.187-.284l-6.682-3.41a1.06 1.06 0 00-.958 0zM19.332 21H3.935c-.337 0-.611-.39-.611-.87 0-.481.274-.87.611-.87h15.397c.338 0 .612.389.612.87.001.48-.273.87-.612.87m-7.831-3.537c-.413 0-.748-.278-.748-.622v-5.24c0-.343.335-.622.748-.622.414 0 .75.279.75.621v5.242c0 .345-.336.62-.75.62m5.083.001c-.414 0-.75-.278-.75-.622v-5.24c0-.343.336-.622.75-.622s.749.279.749.621v5.242c0 .345-.335.62-.75.62"/></svg>