<svg xmlns="http://www.w3.org/2000/svg" width="24" height="24" fill="none"><path fill="#485F7D" d="M13.073 17.63H3.189a1.185 1.185 0 100 2.37h13.76q.136 0 .27-.033a5.56 5.56 0 01-4.146-2.338m-1.814-6.274v3.439a1.185 1.185 0 01-2.371 0v-3.44a1.185 1.185 0 112.37 0m-5.161.001v3.439a1.185 1.185 0 11-2.37 0v-3.44a1.185 1.185 0 112.37 0m12.037-3.736a.967.967 0 01-.962.974H2.981a.966.966 0 01-.454-1.827l6.792-3.577a1.59 1.59 0 011.502 0l6.793 3.577a.97.97 0 01.52.853m-.4 1.314a5.14 5.14 0 10.005 10.28 5.14 5.14 0 00-.005-10.28m-2.39 8.479a4.09 4.09 0 014.78 0 4.09 4.09 0 01-4.78 0m5.545-.707a5.114 5.114 0 00-6.31 0 4.112 4.112 0 116.31 0"/><path fill="#485F7D" d="M17.734 10.987a1.8 1.8 0 100 3.598 1.8 1.8 0 000-3.598m0 2.57a.77.77 0 110-1.542.77.77 0 010 1.541"/></svg>