<svg xmlns="http://www.w3.org/2000/svg" width="24" height="24" fill="none"><path fill="#485F7D" d="M13.073 17.63H3.189a1.185 1.185 0 1 0 0 2.37h13.76q.136 0 .27-.033a5.56 5.56 0 0 1-4.146-2.338M11.259 11.355v3.439a1.185 1.185 0 0 1-2.371 0v-3.44a1.185 1.185 0 1 1 2.37 0M6.097 11.355v3.439a1.185 1.185 0 1 1-2.37 0v-3.44a1.185 1.185 0 1 1 2.37 0M18.134 7.618a.967.967 0 0 1-.962.974H2.981a.966.966 0 0 1-.454-1.827l6.792-3.577a1.59 1.59 0 0 1 1.502 0l6.793 3.577a.97.97 0 0 1 .52.853M17.734 8.932a5.14 5.14 0 1 0 .005 10.28 5.14 5.14 0 0 0-.005-10.28m-2.39 8.479a4.09 4.09 0 0 1 4.78 0 4.09 4.09 0 0 1-4.78 0m5.545-.707a5.114 5.114 0 0 0-6.31 0 4.112 4.112 0 1 1 6.31 0"/><path fill="#485F7D" d="M17.734 10.987a1.8 1.8 0 1 0 0 3.598 1.8 1.8 0 0 0 0-3.598m0 2.57a.77.77 0 1 1 0-1.542.77.77 0 0 1 0 1.541"/></svg>