<svg xmlns="http://www.w3.org/2000/svg" width="24" height="24" fill="none"><mask id="a" fill="#fff"><path d="M14.458 11.661c.647 0 1.28-.195 1.818-.561a3.3 3.3 0 0 0 1.206-1.495 3.4 3.4 0 0 0 .186-1.925 3.35 3.35 0 0 0-.897-1.705 3.26 3.26 0 0 0-1.676-.911 3.22 3.22 0 0 0-1.892.19c-.598.253-1.11.68-1.469 1.228a3.37 3.37 0 0 0 .41 4.205 3.25 3.25 0 0 0 2.313.974M7.91 18c0-2.882 2.932-5.219 6.545-5.219C18.07 12.781 21 15.118 21 18"/></mask><path fill="#485F7D" d="M7.91 18.6h6.545v-1.2H7.91zm6.545 0H21v-1.2h-6.545zm.002-6.939v-1.2zm-3.273-3.328h1.2zm3.274 4.528c.89 0 1.757-.268 2.493-.769l-1.35-1.985c-.34.232-.738.354-1.144.354zm2.493-.769a4.5 4.5 0 0 0 1.643-2.035l-2.223-.905a2.1 2.1 0 0 1-.77.955zm1.643-2.035a4.6 4.6 0 0 0 .252-2.608l-2.356.461c.082.418.04.85-.12 1.242zm.252-2.608a4.55 4.55 0 0 0-1.22-2.316l-1.71 1.683c.292.297.493.677.574 1.094zm-1.22-2.316a4.46 4.46 0 0 0-2.294-1.246l-.475 2.353c.399.08.767.28 1.059.576zm-2.294-1.246a4.42 4.42 0 0 0-2.596.262l.934 2.21c.376-.158.789-.2 1.187-.119zm-2.596.262c-.82.346-1.517.93-2.005 1.675l2.007 1.316c.23-.35.555-.621.932-.78zm-2.005 1.675a4.57 4.57 0 0 0-.747 2.51l2.4-.002c0-.426.123-.84.354-1.192zm-.747 2.51a4.56 4.56 0 0 0 1.304 3.194l1.71-1.683a2.16 2.16 0 0 1-.614-1.512zm1.304 3.194a4.45 4.45 0 0 0 3.17 1.333v-2.4a2.05 2.05 0 0 1-1.46-.616zM9.11 18c0-1.98 2.127-4.019 5.345-4.019v-2.4c-4.008 0-7.745 2.635-7.745 6.419zm5.345-4.019c3.22 0 5.345 2.039 5.345 4.019h2.4c0-3.784-3.734-6.419-7.745-6.419z" mask="url(#a)"/><path stroke="#485F7D" d="M6.592 9.312v.5H8.73c.082 0 .162.033.222.095a.34.34 0 0 1 0 .476.3.3 0 0 1-.222.095H6.592v2.165a.35.35 0 0 1-.096.238.32.32 0 0 1-.222.095.3.3 0 0 1-.222-.095.33.33 0 0 1-.097-.238v-2.165H3.818a.3.3 0 0 1-.222-.095.33.33 0 0 1-.096-.238.35.35 0 0 1 .096-.238.32.32 0 0 1 .222-.095h2.137V7.647a.34.34 0 0 1 .097-.238.3.3 0 0 1 .222-.095c.081 0 .161.033.222.095a.34.34 0 0 1 .096.238z"/><path stroke="#485F7D" stroke-width="1.2" d="M20.355 17.4H8.645c.353-2.356 2.758-4.3 5.855-4.3s5.502 1.944 5.855 4.3Z"/></svg>