<svg xmlns="http://www.w3.org/2000/svg" width="24" height="24" fill="none"><path fill="#485F7D" fill-rule="evenodd" d="M6.98 3.56c-.39.204-.413.892-.037 1.15.056.037 1.33.053 5.658.068l5.585.02.19.111q.32.188.473.584c.07.179.071.228.087 3.671.017 3.448.018 3.492.086 3.6.13.21.237.275.448.275.21 0 .317-.065.448-.274.068-.109.069-.147.078-3.56.01-3.88.017-3.757-.233-4.355-.27-.642-.811-1.136-1.41-1.286-.333-.083-11.214-.086-11.373-.004M5.63 6.114c-.581.15-1.129.653-1.392 1.281-.258.615-.245.28-.235 6.062l.01 5.155.093.226c.214.521.7.776 1.17.613.16-.055.363-.22 1.208-.98.56-.502 1.05-.923 1.09-.934s2.002-.025 4.359-.03l4.285-.01.242-.105c.704-.307 1.185-.956 1.358-1.832.042-.213.05-.792.05-3.779 0-3.38-.002-3.54-.065-3.833-.153-.713-.547-1.306-1.069-1.612-.511-.3-.162-.283-5.818-.28-4.207.002-5.106.012-5.286.058m10.61 1.343q.322.188.474.584c.07.18.07.205.07 3.744 0 3.538 0 3.564-.07 3.744a1.1 1.1 0 01-.474.584l-.19.11-4.35.02-4.353.02-.198.096c-.136.065-.498.366-1.142.947l-.944.85v-4.89c0-5.358-.009-5.111.197-5.45a.96.96 0 01.486-.418c.157-.065.492-.07 5.236-.06l5.069.008zm-7.7 3.856c-.223.17-.302.55-.171.825.112.236.216.304.464.304.164 0 .24-.02.308-.08.11-.096.226-.36.226-.518 0-.17-.118-.426-.243-.527a.52.52 0 00-.584-.004m2.134 0c-.223.17-.302.55-.171.825.112.236.216.304.464.304.165 0 .24-.02.309-.08.11-.096.225-.36.225-.518 0-.17-.118-.426-.243-.527a.52.52 0 00-.584-.004m2.071-.003c-.12.092-.243.363-.243.534 0 .156.115.422.223.515.125.11.402.13.557.042.154-.087.287-.346.286-.56a.77.77 0 00-.252-.536c-.136-.107-.427-.104-.57.005" clip-rule="evenodd"/></svg>