<svg xmlns="http://www.w3.org/2000/svg" width="24" height="24" fill="none"><path stroke="#485F7D" stroke-linecap="round" stroke-width="1.6" d="M17 4h.502c1.211 0 1.817 0 2.281.232a2.2 2.2 0 01.985.985C21 5.68 21 6.287 21 7.498V8m-4 12h.502c1.211 0 1.817 0 2.281-.232a2.2 2.2 0 00.985-.985c.232-.464.232-1.07.232-2.281V16M7 4h-.502c-1.211 0-1.817 0-2.281.232a2.2 2.2 0 00-.985.985C3 5.68 3 6.287 3 7.498V8m4 12h-.502c-1.211 0-1.817 0-2.281-.232a2.2 2.2 0 01-.985-.985C3 18.32 3 17.713 3 16.502V16m4.461.956c.44-.636 1.086-1.18 1.886-1.565S11.062 14.8 12 14.8s1.854.206 2.653.59c.8.385 1.445.93 1.886 1.566"/><circle cx="12" cy="9" r="3" stroke="#485F7D" stroke-linecap="round" stroke-width="1.6"/></svg>