<svg width="24" height="24" viewBox="0 0 24 24" fill="none" xmlns="http://www.w3.org/2000/svg">
<path d="M17 4H17.502C18.7134 4 19.319 4 19.7834 4.232C20.2095 4.44495 20.5551 4.79048 20.768 5.21665C21 5.68096 21 6.28664 21 7.498V8M17 20H17.502C18.7134 20 19.319 20 19.7834 19.768C20.2095 19.5551 20.5551 19.2095 20.768 18.7834C21 18.319 21 17.7134 21 16.502V16M7 4H6.498C5.28664 4 4.68096 4 4.21665 4.232C3.79048 4.44495 3.44495 4.79048 3.232 5.21665C3 5.68096 3 6.28664 3 7.498V8M7 20H6.498C5.28664 20 4.68096 20 4.21665 19.768C3.79048 19.5551 3.44495 19.2095 3.232 18.7834C3 18.319 3 17.7134 3 16.502V16" stroke="#485F7D" stroke-width="1.6" stroke-linecap="round"/>
<path d="M7.46144 16.9556C7.90185 16.3199 8.5474 15.7754 9.34684 15.3908C10.1463 15.0061 11.0619 14.8 12 14.8C12.9381 14.8 13.8537 15.0061 14.6532 15.3908C15.4526 15.7754 16.0981 16.3199 16.5386 16.9556" stroke="#485F7D" stroke-width="1.6" stroke-linecap="round"/>
<circle cx="12" cy="9" r="3" stroke="#485F7D" stroke-width="1.6" stroke-linecap="round"/>
</svg>
