<svg xmlns="http://www.w3.org/2000/svg" width="31" height="30" fill="none"><path fill="#000" d="M17.38 10.808h-4.43c-.397 0-.785.032-1.165.163-.97.335-1.544 1.103-1.6 2.15-.049.955.5 1.838 1.406 2.238.437.196.906.286 1.383.286h4.551c.817 0 1.253.343 1.399 1.022.154.735-.226 1.332-.954 1.511-.437.107-.881.082-1.318.082-1.471-.008-2.935.033-4.406-.049-2.24-.13-4.204-2.002-4.527-4.25-.396-2.696 1.487-5.76 5.036-5.76h7.115c.598-.025.792-.213.792-.817 0-.907-.008-1.815-.008-2.73 0-.613.04-.645.647-.654h1.423c.29 0 .428.123.428.434v5.883c0 .344-.186.409-.477.433-1.803.147-3.597.008-5.279.074z"/><path fill="#000" d="M13.047 19.222h4.54q.572-.002 1.13-.114c1.242-.245 1.96-1.21 1.911-2.517-.048-1.103-.943-2.026-2.145-2.182a11 11 0 00-1.46-.098c-1.274.008-2.557.008-3.831 0-.823-.008-1.258-.45-1.267-1.217-.008-.793.436-1.308 1.243-1.316 1.847-.024 3.694-.073 5.533.017 2.307.114 4.34 2.271 4.444 4.592.129 2.672-1.492 4.854-3.936 5.303a7 7 0 01-.984.09c-2.267.073-4.541.057-6.808 0-1.032-.025-1.274.212-1.234 1.25.033.81 0 1.626 0 2.435 0 .384-.113.556-.508.54a20 20 0 00-1.565 0c-.29 0-.443-.107-.443-.417v-5.933c0-.4.266-.408.548-.408h4.824v-.008z"/></svg>