<svg xmlns="http://www.w3.org/2000/svg" width="23" height="18" fill="none"><path fill="#66A5FF" d="M10.973 7.165c.207.012.354.026.499.026 1.434.002 2.87.01 4.304-.01a1 1 0 0 0 .605-.252c.558-.524 1.366-.57 1.886-.07.513.495.524 1.178.025 1.655-.562.536-1.337.496-1.91-.054a1.04 1.04 0 0 0-.65-.257c-1.627-.02-3.257-.008-4.884-.014-.73-.001-.867-.144-.866-.835 0-.807-.009-1.616.004-2.423.009-.567.206-.743.793-.744 1.24-.004 2.48-.014 3.72.007.367.007.46-.115.45-.446-.024-.66-.008-1.321-.008-2.017H1.046v2.433c.14.007.298.02.454.02h4.304c.838 0 1.091.256 1.091 1.063-.003 2.48-.01 4.963.01 7.443 0 .193.143.436.3.564.543.447.633 1.13.17 1.639a1.36 1.36 0 0 1-1.951.064c-.481-.475-.422-1.192.091-1.652.165-.148.322-.403.323-.61.015-2.38-.003-4.76-.007-7.14 0-.362-.233-.379-.508-.377L.75 5.176c-.556 0-.716-.108-.73-.64a66 66 0 0 1-.002-3.158C.028.87.199.745.815.738c1.24-.014 2.48-.009 3.72-.009q5.245 0 10.487.003c.833 0 .964.13.964.924q.002 1.385-.002 2.77c-.004.576-.183.748-.772.75-1.254 0-2.51.012-3.765-.005-.373-.005-.499.118-.481.474.027.487.007.979.007 1.519z"/><path fill="#66A5FF" d="M16.567 11.343h-5.595v.485q.002 2.337 0 4.676c0 .613-.158.776-.793.784-.732.01-1.465-.019-2.197.007a.92.92 0 0 0-.56.247c-.466.465-1.06.597-1.622.298-.456-.243-.727-.617-.686-1.124.04-.486.36-.82.815-1.002.519-.207 1.032-.144 1.387.276.246.29.508.344.85.335.565-.014 1.13-.003 1.756-.003v-.49q-.001-2.403.002-4.805c0-.527.176-.7.725-.7q3.116-.009 6.232 0c.561 0 .735.18.737.739.006 1.572.002 3.145.004 4.72v.503h3.505c.01-.124.032-.247.032-.372q-.002-6.644.006-13.287c0-.257-.072-.419-.304-.568-.457-.297-.587-.784-.405-1.3.17-.469.62-.757 1.191-.762.604-.005 1.083.293 1.264.786.172.47.038 1.002-.408 1.262-.34.2-.337.464-.335.77q.007 6.688.012 13.377c0 .83-.263 1.095-1.11 1.097q-1.816.005-3.631 0c-.648-.002-.867-.212-.867-.83-.004-1.687 0-3.374 0-5.119z"/></svg>