<svg xmlns="http://www.w3.org/2000/svg" width="30" height="30" fill="none"><path fill="#7F57FF" d="M15 14q-4.025 0-6.512-1.225Q6 11.55 6 10q0-1.576 2.488-2.787Q10.975 6 15 6t6.512 1.213T24 10q0 1.55-2.488 2.775T15 14m0 5q-3.65 0-6.325-1.1T6 15.25v-2.5q0 .975.938 1.688.938.711 2.324 1.175a16 16 0 0 0 2.95.675q1.563.212 2.788.212 1.25 0 2.8-.212a17 17 0 0 0 2.938-.663q1.388-.45 2.325-1.162T24 12.75v2.5q0 1.55-2.675 2.65T15 19m0 5q-3.65 0-6.325-1.1T6 20.25v-2.5q0 .974.938 1.688.938.712 2.324 1.175a16 16 0 0 0 2.95.675q1.563.212 2.788.212 1.25 0 2.8-.212a17 17 0 0 0 2.938-.663q1.388-.45 2.325-1.163.937-.711.937-1.712v2.5q0 1.55-2.675 2.65T15 24"/></svg>