<svg xmlns="http://www.w3.org/2000/svg" width="31" height="30" fill="none"><path fill="url(#a)" fill-rule="evenodd" d="M16.823 13.445c.651.46 1.453.738 2.308.738a4.007 4.007 0 0 0 3.997-4.008 4.005 4.005 0 0 0-3.997-3.997c-.62 0-1.197.139-1.72.395a6.1 6.1 0 0 1 .79 3.004c0 1.464-.513 2.81-1.378 3.868" clip-rule="evenodd"/><path fill="url(#b)" fill-rule="evenodd" d="M12.045 14.664a5.07 5.07 0 0 0 3.997-1.956 5 5 0 0 0 1.09-3.131c0-.877-.224-1.7-.609-2.416A5.1 5.1 0 0 0 12.045 4.5 5.08 5.08 0 0 0 6.97 9.577c0 2.8 2.276 5.087 5.076 5.087" clip-rule="evenodd"/><path fill="url(#c)" fill-rule="evenodd" d="M20.61 21.324c-.946-2.568-2.908-4.311-5.588-5.016a11 11 0 0 0-2.871-.358h-.06c-4.307 0-7.442 2.114-8.614 5.804l-.144.441.407.24c2.273 1.396 5 2.065 8.315 2.065h.06c3.397.012 6.101-.669 8.386-2.066l.407-.239-.143-.441a6 6 0 0 0-.156-.43" clip-rule="evenodd"/><path fill="url(#d)" fill-rule="evenodd" d="M27.412 19.485C26.485 16.633 23.998 15 20.584 15h-.049c-1.5 0-2.804.32-3.902.9 2.756.97 4.804 2.97 5.755 5.75 1.817-.19 3.414-.686 4.756-1.48l.414-.248z" clip-rule="evenodd"/><defs><linearGradient id="a" x1="14.733" x2="14.733" y1="4.5" y2="24.55" gradientUnits="userSpaceOnUse"><stop stop-color="#3C74E1"/><stop offset="1" stop-color="#0C2451"/></linearGradient><linearGradient id="b" x1="14.733" x2="14.733" y1="4.5" y2="24.55" gradientUnits="userSpaceOnUse"><stop stop-color="#3C74E1"/><stop offset="1" stop-color="#0C2451"/></linearGradient><linearGradient id="c" x1="15.124" x2="15.124" y1="2.098" y2="24.5" gradientUnits="userSpaceOnUse"><stop stop-color="#3C74E1"/><stop offset="1" stop-color="#0C2451"/></linearGradient><linearGradient id="d" x1="15.542" x2="15.542" y1="2.682" y2="24.88" gradientUnits="userSpaceOnUse"><stop stop-color="#3C74E1"/><stop offset="1" stop-color="#0C2451"/></linearGradient></defs></svg>