<svg width="24" height="24" viewBox="0 0 24 24" fill="none" xmlns="http://www.w3.org/2000/svg">
<path d="M14.5079 19.2494V14.7461C14.5079 14.547 14.4288 14.3561 14.288 14.2153C14.1473 14.0746 13.9564 13.9955 13.7573 13.9955H10.7551C10.556 13.9955 10.3651 14.0746 10.2243 14.2153C10.0836 14.3561 10.0045 14.547 10.0045 14.7461V19.2494C10.0045 19.4485 9.92542 19.6394 9.78466 19.7802C9.64391 19.9209 9.453 20 9.25394 20H4.75056C4.5515 20 4.36059 19.9209 4.21983 19.7802C4.07908 19.6394 4 19.4485 4 19.2494V10.5711C4.00168 10.4672 4.02413 10.3647 4.06602 10.2696C4.10791 10.1746 4.16841 10.0888 4.24393 10.0175L11.7496 3.19678C11.8879 3.0702 12.0687 3 12.2562 3C12.4437 3 12.6245 3.0702 12.7628 3.19678L20.2684 10.0175C20.344 10.0888 20.4045 10.1746 20.4464 10.2696C20.4882 10.3647 20.5107 10.4672 20.5124 10.5711V19.2494C20.5124 19.4485 20.4333 19.6394 20.2925 19.7802C20.1518 19.9209 19.9609 20 19.7618 20H15.2584C15.0594 20 14.8685 19.9209 14.7277 19.7802C14.587 19.6394 14.5079 19.4485 14.5079 19.2494Z" stroke="#485F7D" stroke-width="1.6" stroke-linecap="round" stroke-linejoin="round"/>
</svg>
