<svg width="24" height="24" viewBox="0 0 24 24" fill="none" xmlns="http://www.w3.org/2000/svg">
<path d="M20.0513 10.019L12.7489 3.38291C12.4797 3.1366 12.128 3 11.7631 3C11.3982 3 11.0465 3.1366 10.7772 3.38291L3.47485 10.019C3.32534 10.1557 3.20593 10.3221 3.12421 10.5076C3.04249 10.693 3.00026 10.8934 3.00019 11.0961V19.503C2.99426 19.8712 3.12425 20.2286 3.36531 20.507C3.50213 20.6626 3.67067 20.7871 3.85961 20.8721C4.04854 20.9571 4.25349 21.0007 4.46067 20.9999H8.84211C9.03578 20.9999 9.22152 20.923 9.35847 20.7861C9.49542 20.6491 9.57235 20.4634 9.57235 20.2697V15.8883C9.57235 15.6946 9.64929 15.5089 9.78623 15.3719C9.92318 15.235 10.1089 15.158 10.3026 15.158H13.2236C13.4172 15.158 13.603 15.235 13.7399 15.3719C13.8769 15.5089 13.9538 15.6946 13.9538 15.8883V20.2697C13.9538 20.4634 14.0307 20.6491 14.1677 20.7861C14.3046 20.923 14.4904 20.9999 14.684 20.9999H19.0655C19.3077 21.0021 19.5465 20.9424 19.7592 20.8265C19.9907 20.7005 20.184 20.5145 20.3189 20.288C20.4538 20.0616 20.5253 19.803 20.5259 19.5395V11.0961C20.5259 10.8934 20.4836 10.693 20.4019 10.5076C20.3202 10.3221 20.2008 10.1557 20.0513 10.019Z" fill="#E5007A"/>
</svg>
