<svg width="24" height="24" viewBox="0 0 24 24" fill="none" xmlns="http://www.w3.org/2000/svg">
<path d="M10.9565 3.5H4.34783C4.15652 3.5 4 3.65652 4 3.84783V10.4565C4 10.6478 4.15652 10.8043 4.34783 10.8043H10.9565C11.1478 10.8043 11.3043 10.6478 11.3043 10.4565V3.84783C11.3043 3.65652 11.1478 3.5 10.9565 3.5ZM9.82609 9.32609H5.47826V4.97826H9.82609V9.32609ZM19.6522 3.5H13.0435C12.8522 3.5 12.6957 3.65652 12.6957 3.84783V10.4565C12.6957 10.6478 12.8522 10.8043 13.0435 10.8043H19.6522C19.8435 10.8043 20 10.6478 20 10.4565V3.84783C20 3.65652 19.8435 3.5 19.6522 3.5ZM18.5217 9.32609H14.1739V4.97826H18.5217V9.32609ZM10.9565 12.1957H4.34783C4.15652 12.1957 4 12.3522 4 12.5435V19.1522C4 19.3435 4.15652 19.5 4.34783 19.5H10.9565C11.1478 19.5 11.3043 19.3435 11.3043 19.1522V12.5435C11.3043 12.3522 11.1478 12.1957 10.9565 12.1957ZM9.82609 18.0217H5.47826V13.6739H9.82609V18.0217ZM19.6522 12.1957H13.0435C12.8522 12.1957 12.6957 12.3522 12.6957 12.5435V19.1522C12.6957 19.3435 12.8522 19.5 13.0435 19.5H19.6522C19.8435 19.5 20 19.3435 20 19.1522V12.5435C20 12.3522 19.8435 12.1957 19.6522 12.1957ZM18.5217 18.0217H14.1739V13.6739H18.5217V18.0217Z" fill="#485F7D"/>
</svg>
