<svg xmlns="http://www.w3.org/2000/svg" width="24" height="24" fill="none"><path fill="#485F7D" d="M15.922 12.324c0 .421-.396.764-.882.764H8.96c-.486 0-.88-.344-.88-.764s.395-.762.88-.762h6.08c.486 0 .882.34.882.762"/><path fill="#485F7D" d="M22 12.324c0 2.385-2.214 4.325-4.936 4.325h-3.038c-.487 0-.881-.345-.881-.763s.396-.764.881-.764h3.04c1.747 0 3.168-1.255 3.168-2.798s-1.421-2.798-3.169-2.798h-3.039c-.487 0-.881-.344-.881-.762S13.539 8 14.026 8h3.04C19.785 8 22 9.94 22 12.324m-11.143 3.562c0 .42-.396.763-.882.763h-3.04c-2.72 0-4.935-1.94-4.935-4.325S4.214 8 6.936 8h3.04c.486 0 .88.344.88.764s-.395.762-.882.762H6.936c-1.748 0-3.17 1.255-3.17 2.798s1.421 2.798 3.17 2.798h3.04c.485 0 .88.343.88.764"/></svg>