<svg width="24" height="24" viewBox="0 0 24 24" fill="none" xmlns="http://www.w3.org/2000/svg">
<rect x="4" y="3.5" width="16.4" height="16.4" rx="2" stroke="#485F7D" stroke-width="1.47"/>
<path d="M8.89141 8.39165C9.16589 8.11717 9.61092 8.11717 9.8854 8.39165L12.1998 10.7061L14.5143 8.39166C14.7888 8.11718 15.2338 8.11718 15.5083 8.39166C15.7827 8.66614 15.7827 9.11117 15.5083 9.38565L13.1938 11.7001L15.5082 14.0145C15.7827 14.289 15.7827 14.734 15.5082 15.0085C15.2338 15.283 14.7887 15.283 14.5143 15.0085L12.1998 12.6941L9.8854 15.0085C9.61092 15.283 9.1659 15.283 8.89142 15.0085C8.61693 14.734 8.61693 14.289 8.89142 14.0145L11.2058 11.7001L8.89141 9.38564C8.61693 9.11116 8.61693 8.66614 8.89141 8.39165Z" fill="#485F7D" stroke="#485F7D" stroke-width="0.3" stroke-linecap="round"/>
</svg>
