<svg xmlns="http://www.w3.org/2000/svg" width="24" height="24" fill="none"><rect width="16.4" height="16.4" x="4" y="3.5" stroke="#485F7D" stroke-width="1.47" rx="2"/><path fill="#485F7D" d="M12.036 7.018a4.347 4.347 0 0 0-3.713 6.284 4.3 4.3 0 0 0 1.452 1.648v.742a.694.694 0 0 0 .695.694h.347a.174.174 0 0 0 .173-.174v-1.028a.356.356 0 0 1 .326-.36.346.346 0 0 1 .369.347v1.041a.173.173 0 0 0 .173.174h.694a.174.174 0 0 0 .174-.174v-1.028a.356.356 0 0 1 .325-.36.347.347 0 0 1 .37.347v1.041a.174.174 0 0 0 .173.174h.347a.694.694 0 0 0 .694-.694v-.742a4.34 4.34 0 0 0-2.599-7.932m-1.393 5.897a.868.868 0 1 1 0-1.736.868.868 0 0 1 0 1.736m3.124 0a.867.867 0 1 1 0-1.735.867.867 0 0 1 0 1.735"/></svg>