<svg xmlns="http://www.w3.org/2000/svg" width="24" height="24" fill="none"><path stroke="#485F7D" stroke-width="1.4" d="M15.7 4.302c1.957.01 3.018.097 3.709.789.79.79.79 2.064.79 4.61v5.4c0 2.545 0 3.817-.79 4.608s-2.064.791-4.61.791H9.4c-2.545 0-3.817 0-4.608-.79C4 18.917 4 17.645 4 15.1V9.7c0-2.545 0-3.818.79-4.609.692-.692 1.752-.778 3.71-.79"/><path stroke="#485F7D" stroke-linecap="round" stroke-width="1.4" d="M8.5 13.3h7.2m-8.1-3.15h9m-7.2 6.3h5.4"/><path stroke="#485F7D" stroke-width="1.4" d="M8.5 3.85c0-.746.604-1.35 1.35-1.35h4.5c.745 0 1.35.604 1.35 1.35v.9a1.35 1.35 0 0 1-1.35 1.35h-4.5A1.35 1.35 0 0 1 8.5 4.75z"/></svg>