<svg xmlns="http://www.w3.org/2000/svg" width="24" height="24" fill="none"><path fill="#485F7D" d="M19.198 3H4.8A1.803 1.803 0 0 0 3 4.8v14.398A1.8 1.8 0 0 0 4.8 21h14.398a1.803 1.803 0 0 0 1.8-1.8V4.8a1.803 1.803 0 0 0-1.8-1.8M5.36 19.453a.82.82 0 0 1-.818-.818V5.36a.82.82 0 0 1 .818-.818h13.276a.82.82 0 0 1 .816.818v13.276a.82.82 0 0 1-.816.816z"/><path fill="#485F7D" d="M12.159 14.355a.65.65 0 0 0-.406-.168 2.504 2.504 0 0 1-2.474-2.455c.039-.21.065-.43.12-.641.077-.305.167-.326.389-.106.417.413.827.832 1.249 1.24a.38.38 0 0 0 .273.103c.832-.129.831-.133 1.046-.933l.01-.028c.07-.16.02-.273-.103-.392q-.6-.58-1.18-1.18c-.076-.078-.112-.193-.167-.291.103-.05.202-.125.31-.148a2.434 2.434 0 0 1 2.954 2.35.63.63 0 0 0 .207.493 971 971 0 0 1 2.34 2.333 5.359 5.359 0 1 0-2.19 2.194 857 857 0 0 0-2.378-2.371"/></svg>