<svg xmlns="http://www.w3.org/2000/svg" width="24" height="24" fill="none"><path fill="#485F7D" d="M13.777 19.968a1.232 1.232 0 0 1-2.432 0zm1.47-1.664a.51.51 0 0 1-.511.51h-4.35a.51.51 0 1 1 0-1.021h4.35a.51.51 0 0 1 .51.51M12.56 6.81a5.333 5.333 0 0 0-5.33 5.33c0 2.686 1.85 4.134 2.655 4.606h5.352c.804-.47 2.655-1.92 2.655-4.606a5.333 5.333 0 0 0-5.331-5.33m2.408 8.768-.056.04h-4.705l-.055-.04c-.67-.476-1.794-1.554-1.794-3.437a4.203 4.203 0 0 1 8.405 0c0 1.884-1.124 2.962-1.794 3.437zm-9.747-3.773H3.649a.65.65 0 0 0-.459 1.105.65.65 0 0 0 .46.19h1.572a.65.65 0 0 0 .65-.649.65.65 0 0 0-.65-.646M7.74 6.856 6.626 5.744a.65.65 0 0 0-.917.918l1.115 1.112a.65.65 0 0 0 .918-.918m5.361-1.634V3.649a.65.65 0 0 0-1.298 0v1.573a.65.65 0 0 0 1.298 0m4.947 2.636 1.113-1.115a.647.647 0 0 0-.46-1.109.65.65 0 0 0-.458.191L17.133 6.94a.649.649 0 1 0 .918.918m1.516 5.362h1.572a.65.65 0 0 0 0-1.297h-1.573a.649.649 0 1 0 0 1.298"/></svg>