<svg width="24" height="24" viewBox="0 0 24 24" fill="none" xmlns="http://www.w3.org/2000/svg">
<path d="M13.7771 19.9679C13.7296 20.2562 13.5812 20.5182 13.3584 20.7072C13.1357 20.8962 12.853 21 12.5608 21C12.2687 21 11.986 20.8962 11.7632 20.7072C11.5405 20.5182 11.3921 20.2562 11.3445 19.9679H13.7771Z" fill="#485F7D"/>
<path d="M15.2465 18.3037C15.2462 18.4389 15.1922 18.5685 15.0965 18.664C15.0007 18.7596 14.871 18.8132 14.7358 18.8132H10.3853C10.25 18.8132 10.1203 18.7595 10.0246 18.6638C9.92895 18.5681 9.87521 18.4384 9.87521 18.3031C9.87521 18.1678 9.92895 18.038 10.0246 17.9424C10.1203 17.8467 10.25 17.793 10.3853 17.793H14.7358C14.8712 17.7931 15.001 17.847 15.0967 17.9427C15.1925 18.0385 15.2463 18.1683 15.2465 18.3037Z" fill="#485F7D"/>
<path d="M12.5608 6.80919C11.1472 6.80981 9.79169 7.37164 8.79211 8.37122C7.79254 9.37079 7.23071 10.7263 7.23008 12.1399C7.23008 14.8256 9.08038 16.2743 9.88519 16.7457H15.2365C16.0407 16.2761 17.8916 14.8256 17.8916 12.1399C17.891 10.7263 17.3291 9.37079 16.3296 8.37122C15.33 7.37164 13.9744 6.80981 12.5608 6.80919ZM14.9676 15.5775L14.9124 15.6175H10.2075L10.1523 15.5775C9.4819 15.1021 8.35834 14.0243 8.35834 12.1405C8.35834 11.026 8.8011 9.95704 9.58922 9.16892C10.3773 8.3808 11.4463 7.93803 12.5608 7.93803C13.6754 7.93803 14.7443 8.3808 15.5324 9.16892C16.3206 9.95704 16.7633 11.026 16.7633 12.1405C16.7633 14.0255 15.6386 15.1026 14.9688 15.5775H14.9676Z" fill="#485F7D"/>
<path d="M5.22188 11.8053H3.64925C3.47766 11.8053 3.31306 11.8733 3.1914 11.9943C3.06974 12.1152 3.00093 12.2795 3 12.4511C3 12.6233 3.0684 12.7884 3.19016 12.9102C3.31192 13.0319 3.47706 13.1003 3.64925 13.1003H5.22188C5.39407 13.1003 5.55921 13.0319 5.68097 12.9102C5.80272 12.7884 5.87113 12.6233 5.87113 12.4511C5.8702 12.2795 5.80138 12.1152 5.67973 11.9943C5.55807 11.8733 5.39346 11.8053 5.22188 11.8053Z" fill="#485F7D"/>
<path d="M7.74079 6.85615L6.62545 5.74374C6.50372 5.62219 6.33872 5.55391 6.16669 5.55391C5.99466 5.55391 5.82967 5.62219 5.70794 5.74374C5.5862 5.8655 5.51781 6.03062 5.51781 6.2028C5.51781 6.37497 5.5862 6.54009 5.70794 6.66185L6.82269 7.77425C6.9446 7.8957 7.10966 7.96389 7.28174 7.96389C7.45382 7.96389 7.61889 7.8957 7.74079 7.77425C7.80149 7.71421 7.84968 7.64271 7.88257 7.56392C7.91546 7.48512 7.93239 7.40059 7.93239 7.3152C7.93239 7.22982 7.91546 7.14528 7.88257 7.06649C7.84968 6.98769 7.80149 6.9162 7.74079 6.85615Z" fill="#485F7D"/>
<path d="M13.1032 5.22188V3.64925C13.1032 3.47706 13.0348 3.31192 12.9131 3.19016C12.7913 3.0684 12.6262 3 12.454 3C12.2819 3.00016 12.1169 3.06863 11.9953 3.19037C11.8737 3.31211 11.8053 3.47716 11.8053 3.64925V5.22188C11.8053 5.39397 11.8737 5.55902 11.9953 5.68076C12.1169 5.8025 12.2819 5.87097 12.454 5.87113C12.6262 5.87113 12.7913 5.80272 12.9131 5.68097C13.0348 5.55921 13.1032 5.39407 13.1032 5.22188Z" fill="#485F7D"/>
<path d="M18.0507 7.8582L19.1625 6.74286C19.2231 6.68282 19.2712 6.61136 19.3041 6.53262C19.3369 6.45388 19.3538 6.36941 19.3538 6.2841C19.3538 6.19878 19.3369 6.11432 19.3041 6.03557C19.2712 5.95683 19.2231 5.88538 19.1625 5.82534C19.1025 5.76473 19.031 5.71662 18.9523 5.68378C18.8735 5.65095 18.789 5.63404 18.7037 5.63404C18.6184 5.63404 18.534 5.65095 18.4552 5.68378C18.3765 5.71662 18.305 5.76473 18.245 5.82534L17.1326 6.9401C17.0108 7.06185 16.9424 7.22697 16.9424 7.39915C16.9424 7.57132 17.0108 7.73644 17.1326 7.8582C17.2543 7.97993 17.4194 8.04832 17.5916 8.04832C17.7638 8.04832 17.9289 7.97993 18.0507 7.8582Z" fill="#485F7D"/>
<path d="M19.5669 13.2206H21.139C21.3112 13.2206 21.4763 13.1522 21.5981 13.0305C21.7198 12.9087 21.7882 12.7436 21.7882 12.5714C21.7881 12.3993 21.7196 12.2343 21.5979 12.1127C21.4761 11.9911 21.3111 11.9227 21.139 11.9227H19.5658C19.3937 11.9227 19.2288 11.9911 19.1071 12.1127C18.9855 12.2344 18.9171 12.3994 18.9171 12.5714C18.9171 12.6567 18.9339 12.7412 18.9666 12.82C18.9993 12.8988 19.0471 12.9704 19.1075 13.0307C19.1678 13.091 19.2395 13.1388 19.3183 13.1714C19.3972 13.204 19.4816 13.2207 19.5669 13.2206Z" fill="#485F7D"/>
</svg>
