<svg xmlns="http://www.w3.org/2000/svg" width="20" height="21" fill="none"><path stroke="#485F7D" stroke-linecap="round" stroke-linejoin="round" stroke-width="1.467" d="M10.417 3.5H4.556A1.556 1.556 0 0 0 3 5.056v10.888A1.556 1.556 0 0 0 4.556 17.5h10.888A1.556 1.556 0 0 0 17 15.944V11.5"/><path fill="#485F7D" fill-rule="evenodd" d="m17.957 5.043.585-.585a1.473 1.473 0 1 0-2.084-2.083l-.54.54a8.7 8.7 0 0 0 2.039 2.128M16.529 6.47a10.7 10.7 0 0 1-2.047-2.12l-5 5c-.364.365-.546.547-.675.767-.13.22-.2.467-.342.963l-.301 1.054c-.11.383-.164.575-.06.679s.295.049.678-.06l1.055-.302c.495-.141.743-.212.963-.341s.402-.312.766-.676z" clip-rule="evenodd"/></svg>