<svg xmlns="http://www.w3.org/2000/svg" width="24" height="24" fill="none"><path fill="#485F7D" d="M19.198 3H4.8A1.803 1.803 0 0 0 3 4.8v14.398A1.8 1.8 0 0 0 4.8 21h14.398a1.803 1.803 0 0 0 1.8-1.8V4.8a1.803 1.803 0 0 0-1.8-1.8M5.36 19.453a.82.82 0 0 1-.818-.818V5.36a.82.82 0 0 1 .818-.818h13.276a.82.82 0 0 1 .816.818v13.276a.82.82 0 0 1-.816.816z"/><path fill="#485F7D" d="M12 6.637a5.362 5.362 0 1 0-.001 10.724A5.362 5.362 0 0 0 12 6.637"/><path fill="#fff" d="m16.172 10.907-1.859-1.86a.3.3 0 0 0-.21-.087H9.895a.3.3 0 0 0-.211.087l-1.859 1.86a.386.386 0 0 0-.01.535l4.07 4.39a.15.15 0 0 0 .174.035.2.2 0 0 0 .052-.036l4.07-4.389a.386.386 0 0 0-.01-.535m-.605.552-3.297 3.595a.106.106 0 0 1-.182-.07V9.44a.07.07 0 0 1 .07-.07h1.681c.066 0 .128.025.175.07l1.547 1.563a.33.33 0 0 1 .006.455"/></svg>