<svg xmlns="http://www.w3.org/2000/svg" width="24" height="24" fill="none"><path stroke="#485F7D" stroke-width="1.5" d="M3 14.3c0-3.394 0-5.091 1.054-6.145C5.11 7.1 6.806 7.1 10.2 7.1h3.6c3.394 0 5.091 0 6.146 1.055S21 10.906 21 14.3s0 5.091-1.054 6.146S17.194 21.5 13.8 21.5h-3.6c-3.394 0-5.091 0-6.146-1.054S3 17.694 3 14.3Zm12.6-7.2c0-1.697 0-2.546-.527-3.073S13.697 3.5 12 3.5s-2.545 0-3.072.527S8.4 5.403 8.4 7.1"/><path stroke="#485F7D" stroke-linecap="round" stroke-width="1.5" d="M12 17.3c.993 0 1.8-.672 1.8-1.5s-.807-1.5-1.8-1.5c-.995 0-1.8-.672-1.8-1.5s.805-1.5 1.8-1.5m0 6c-.995 0-1.8-.672-1.8-1.5m1.8 1.5v.6m0-7.2v.6m0 0c.993 0 1.8.672 1.8 1.5"/></svg>