<svg xmlns="http://www.w3.org/2000/svg" width="24" height="24" fill="none"><path fill="#485F7D" d="M12.198 9.233h.083c.03 0 .053 0 .08-.004q-.081 0-.163.004"/><path fill="#485F7D" d="M22.545 15.298a3.2 3.2 0 0 0-.458-1.388 3.1 3.1 0 0 0-1.014-1.02c.406-.45.628-1.046.62-1.663v-.034c-.016-1.345-1.004-2.35-2.301-2.35h-.026a2.2 2.2 0 0 0-1.258.409 2.36 2.36 0 0 0-.83 1.065 2.47 2.47 0 0 0-.128 1.366c.087.459.302.88.618 1.212-.465.28-.846.688-1.103 1.18q-.002-.239-.009-.477c-.029-1.373-.62-2.55-1.707-3.398a5 5 0 0 0-.707-.466 2.86 2.86 0 0 0 .722-1.942v-.028c0-.367-.07-.731-.206-1.07a2.8 2.8 0 0 0-.587-.903 2.7 2.7 0 0 0-.893-.6 2.6 2.6 0 0 0-1.046-.19c-1.458.023-2.633 1.29-2.62 2.825.01.712.278 1.394.75 1.91-1.558.797-2.402 2.188-2.443 4.017 0 .106-.005.212-.006.318a3.1 3.1 0 0 0-1.114-1.172c.21-.227.376-.495.486-.788a2.5 2.5 0 0 0 .156-.922C7.42 9.846 6.43 8.843 5.136 8.843h-.028a2.2 2.2 0 0 0-1.255.41c-.37.263-.66.632-.83 1.064-.17.431-.216.905-.13 1.363s.3.88.613 1.212c-.795.485-1.359 1.309-1.454 2.26-.072.74-.053 1.488-.038 2.21.008.313.015.635.015.953v.68h14.158V19h6.379v-.68c0-.303.006-.612.012-.91.011-.69.026-1.402-.033-2.112M5.12 10.204c.586-.01 1.004.408 1.014 1.008.009.586-.414 1.04-.983 1.05a.9.9 0 0 1-.687-.295 1.08 1.08 0 0 1-.306-.739c0-.268.1-.526.28-.717a.96.96 0 0 1 .682-.307m1.85 7.117q-.002.155-.007.313H3.328q-.002-.155-.007-.305c-.017-.712-.033-1.383.032-2.038.082-.824.881-1.496 1.783-1.5h.007c.903 0 1.707.66 1.793 1.477.07.658.055 1.334.036 2.053m4.335-10.53a1.306 1.306 0 0 1 .946-.429h.024c.365-.006.718.138.982.4q.193.201.298.464c.068.174.103.36.102.548.008.803-.533 1.404-1.295 1.457l-.08.003h-.082a1.3 1.3 0 0 1-.852-.397 1.48 1.48 0 0 1-.425-1.014 1.48 1.48 0 0 1 .387-1.03zm4.056 10.08q0 .38-.004.763h-6.14v-.076q0-.584-.004-1.166a99 99 0 0 1 .011-2.607c.03-1.334.596-2.261 1.73-2.837 1.115-.564 2.196-.449 3.212.342.764.596 1.162 1.383 1.183 2.338.022 1.072.018 2.127.012 3.243m4.03-6.667c.294 0 .54.1.714.277q.138.146.21.335.073.191.07.394c.007.598-.404 1.04-.979 1.052a.97.97 0 0 1-.687-.299c-.142-.14-.24-.32-.283-.517a1.06 1.06 0 0 1 .042-.594c.071-.189.195-.351.355-.467a.95.95 0 0 1 .544-.18zm1.878 7.177q-.001.128-.005.258h-3.729q0-.165.004-.325c.01-.75.018-1.46.127-2.142.135-.843.956-1.436 1.907-1.378.865.052 1.597.766 1.669 1.622.052.636.04 1.282.026 1.965z"/></svg>