<svg xmlns="http://www.w3.org/2000/svg" width="24" height="24" fill="none"><path fill="#485F7D" d="M18.306 16.649a.818.818 0 1 0-1.157 1.156zm.479 2.793a.818.818 0 0 0 1.157-1.157zM15.798 6.908l.013.537 1.636-.04-.013-.537zm1.238 3.097.404.338 1.05-1.256-.405-.338zm-.25 3.6-.505.197.595 1.524.505-.197zm-2.559 2.205-.21.502 1.51.631.21-.503zm-3.465 1.073-.326-.416-1.287 1.01.326.416zm-2.845-1.715-.535-.027-.084 1.634.535.027zm-1.893-2.936.305-.454-1.36-.912-.304.454zm.833-3.266-.12-.52-1.594.37.12.52zm2.296-2.888.514.135.415-1.583-.514-.135zm3.333-.322.46-.293-.88-1.38-.46.294zm-2.819.457c.497.13.975.272 1.47.191l-.264-1.615c-.073.012-.159.007-.791-.16zm1.939-1.836c-.565.361-.655.4-.733.412l.264 1.615c.489-.08.904-.363 1.35-.648zm-4.87 4.07c-.238-1.032-.393-1.713-.433-2.21-.038-.482.055-.565.08-.59L5.24 4.477c-.544.532-.619 1.23-.567 1.89.051.647.245 1.471.47 2.449zm2.832-3.952c-.967-.253-1.783-.47-2.427-.538-.658-.07-1.357-.013-1.902.52l1.144 1.17c.024-.023.106-.114.584-.063.492.053 1.166.227 2.186.494zm-3.24 7.283c.296-.44.588-.849.68-1.335l-1.607-.305c-.015.08-.057.17-.431.728zM5.264 9.335c.148.639.152.728.138.803l1.608.305c.093-.492-.035-.974-.152-1.477zm2.12 5.806c-1.062-.055-1.762-.093-2.245-.191-.233-.048-.358-.1-.424-.138-.05-.03-.059-.047-.065-.061l-1.477.704c.335.701 1.001.968 1.64 1.098.633.129 1.482.17 2.486.222zM4.664 11.32c-.574.855-1.056 1.57-1.34 2.162-.286.592-.483 1.282-.153 1.973l1.477-.704c-.002-.004-.071-.1.15-.56s.621-1.06 1.225-1.96zm5.771 5.147c-.312-.397-.61-.805-1.056-1.035l-.75 1.455c.055.028.115.076.519.59zm-2.603.335c.661.034.74.056.798.085l.749-1.455c-.444-.228-.951-.237-1.463-.264zm6.184-.49c-.416.996-.695 1.659-.957 2.098-.26.434-.386.447-.41.451l.263 1.615c.749-.122 1.212-.659 1.552-1.227.337-.564.667-1.36 1.062-2.306zm-4.542 1.58c.611.78 1.129 1.444 1.597 1.882.479.449 1.078.826 1.84.702l-.263-1.615c-.011.002-.114.042-.458-.281-.355-.332-.782-.872-1.43-1.697zm6.806-4.09c-.492.192-.961.359-1.317.706l1.144 1.17c.062-.06.148-.11.767-.352zm-.544 2.638c.257-.615.31-.701.371-.762l-1.144-1.17c-.355.347-.533.813-.737 1.302zm1.703-6.097c.804.672 1.33 1.115 1.652 1.48.311.354.271.458.268.474l1.608.304c.143-.757-.214-1.366-.648-1.86-.424-.481-1.07-1.018-1.83-1.654zm-.059 4.786c.953-.371 1.754-.681 2.325-1.005.577-.327 1.12-.777 1.262-1.523l-1.608-.304c-.005.029-.023.155-.46.403-.444.252-1.11.514-2.113.905zm-1.57-7.684c.013.516.008 1.023.223 1.472l1.476-.704c-.028-.06-.047-.143-.063-.808zm2.274 1.304c-.501-.418-.548-.48-.575-.536l-1.476.704c.216.454.614.764 1.002 1.088zm-.651-1.88c-.025-1.01-.043-1.863-.155-2.5-.111-.643-.358-1.32-1.048-1.674l-.749 1.455c.013.006.03.014.059.066.037.068.085.197.127.433.085.488.104 1.193.13 2.26zm-4.488-1.406c.912-.582 1.52-.968 1.983-1.178s.553-.135.553-.135l.749-1.455c-.684-.352-1.38-.17-1.977.1-.596.27-1.322.735-2.188 1.288zm4.203 12.342 1.636 1.637 1.157-1.157-1.636-1.637z"/></svg>