<svg width="24" height="24" viewBox="0 0 24 24" fill="none" xmlns="http://www.w3.org/2000/svg">
<path d="M11.25 14.8265H12.75V12.7265H14.85V11.2265H12.75V9.12646H11.25V11.2265H9.15V12.7265H11.25V14.8265ZM4 19.0015V17.5015H6.1V9.85146C6.1 8.44857 6.5125 7.20201 7.3375 6.11179C8.1625 5.02157 9.25 4.3348 10.6 4.05146V3.32646C10.6 2.94313 10.7355 2.62646 11.0066 2.37646C11.2777 2.12646 11.6069 2.00146 11.9941 2.00146C12.3814 2.00146 12.7125 2.12646 12.9875 2.37646C13.2625 2.62646 13.4 2.94313 13.4 3.32646V4.05146C14.75 4.3348 15.8417 5.02157 16.675 6.11179C17.5083 7.20201 17.925 8.44857 17.925 9.85146V17.5015H20V19.0015H4ZM12 22.0015C11.4667 22.0015 11 21.8056 10.6 21.414C10.2 21.0223 10 20.5515 10 20.0015H14C14 20.5515 13.8042 21.0223 13.4125 21.414C13.0208 21.8056 12.55 22.0015 12 22.0015ZM7.6 17.5015H16.425V9.85146C16.425 8.61813 16 7.56813 15.15 6.70147C14.3 5.8348 13.2583 5.40146 12.025 5.40146C10.7917 5.40146 9.74583 5.8348 8.8875 6.70147C8.02917 7.56813 7.6 8.61813 7.6 9.85146V17.5015Z" fill="#0519CC"/>
</svg>
