<svg width="24" height="24" viewBox="0 0 24 24" fill="none" xmlns="http://www.w3.org/2000/svg">
<g clip-path="url(#clip0_2890_92629)">
<path d="M21.9261 2.02417L21.4082 2.56667V2.56667L21.9261 2.02417ZM2.07394 2.02417L1.55606 1.48168L1.55606 1.48168L2.07394 2.02417ZM16.8889 1.00098L16.8929 0.250977H16.8889V1.00098ZM7.11111 1.00098V0.250966L7.10713 0.250987L7.11111 1.00098ZM7.11111 11.3353C6.6969 11.3353 6.36111 11.6711 6.36111 12.0853C6.36111 12.4996 6.6969 12.8353 7.11111 12.8353V12.0853V11.3353ZM16.8889 12.8353C17.3031 12.8353 17.6389 12.4996 17.6389 12.0853C17.6389 11.6711 17.3031 11.3353 16.8889 11.3353V12.0853V12.8353ZM5.88889 7.25162C5.47468 7.25162 5.13889 7.5874 5.13889 8.00162C5.13889 8.41583 5.47468 8.75162 5.88889 8.75162V8.00162V7.25162ZM18.1111 8.75162C18.5253 8.75162 18.8611 8.41583 18.8611 8.00162C18.8611 7.5874 18.5253 7.25162 18.1111 7.25162V8.00162V8.75162ZM8.33333 15.4191C7.91912 15.4191 7.58333 15.7549 7.58333 16.1691C7.58333 16.5833 7.91912 16.9191 8.33333 16.9191V16.1691V15.4191ZM15.6667 16.9191C16.0809 16.9191 16.4167 16.5833 16.4167 16.1691C16.4167 15.7549 16.0809 15.4191 15.6667 15.4191V16.1691V16.9191ZM23 7.99962H22.25V15.0003H23H23.75V7.99962H23ZM15.6667 22.001V21.251H8.33333V22.001V22.751H15.6667V22.001ZM1 15.0003H1.75V7.99962H1H0.25V15.0003H1ZM8.33333 22.001V21.251C6.58458 21.251 5.34509 21.2495 4.40548 21.1289C3.48401 21.0107 2.9651 20.7896 2.59182 20.4333L2.07394 20.9758L1.55606 21.5182C2.25672 22.1871 3.13903 22.4787 4.21453 22.6167C5.27188 22.7524 6.62511 22.751 8.33333 22.751V22.001ZM1 15.0003H0.25C0.25 16.6282 0.248255 17.9281 0.391572 18.9457C0.538449 19.9886 0.850496 20.8447 1.55606 21.5182L2.07394 20.9758L2.59182 20.4333C2.22345 20.0816 1.99852 19.6 1.87691 18.7365C1.75174 17.8478 1.75 16.6726 1.75 15.0003H1ZM23 15.0003H22.25C22.25 16.6726 22.2483 17.8478 22.1231 18.7365C22.0015 19.6 21.7766 20.0816 21.4082 20.4333L21.9261 20.9758L22.4439 21.5182C23.1495 20.8447 23.4616 19.9886 23.6084 18.9457C23.7517 17.9281 23.75 16.6282 23.75 15.0003H23ZM15.6667 22.001V22.751C17.3749 22.751 18.7281 22.7524 19.7855 22.6167C20.861 22.4787 21.7433 22.1871 22.4439 21.5182L21.9261 20.9758L21.4082 20.4333C21.0349 20.7896 20.516 21.0107 19.5945 21.1289C18.6549 21.2495 17.4154 21.251 15.6667 21.251V22.001ZM23 7.99962H23.75C23.75 6.37173 23.7517 5.07183 23.6084 4.05421C23.4616 3.01131 23.1495 2.15524 22.4439 1.48168L21.9261 2.02417L21.4082 2.56667C21.7766 2.91833 22.0015 3.39992 22.1231 4.2634C22.2483 5.15216 22.25 6.32737 22.25 7.99962H23ZM1 7.99962H1.75C1.75 6.32737 1.75174 5.15216 1.87691 4.2634C1.99852 3.39992 2.22345 2.91833 2.59182 2.56667L2.07394 2.02417L1.55606 1.48168C0.850496 2.15524 0.538449 3.01131 0.391572 4.05421C0.248255 5.07183 0.25 6.37173 0.25 7.99962H1ZM16.8889 1.00098L16.8849 1.75097C18.2199 1.75806 19.184 1.79088 19.9226 1.9204C20.6425 2.04663 21.0808 2.25412 21.4082 2.56667L21.9261 2.02417L22.4439 1.48168C21.8322 0.897696 21.0811 0.600648 20.1817 0.442944C19.3011 0.288531 18.2163 0.25802 16.8929 0.250987L16.8889 1.00098ZM7.11111 1.00098L7.10713 0.250987C5.78371 0.25802 4.69886 0.288531 3.81828 0.442944C2.91892 0.600648 2.1678 0.897696 1.55606 1.48168L2.07394 2.02417L2.59182 2.56667C2.91922 2.25412 3.3575 2.04663 4.07735 1.9204C4.81598 1.79088 5.78015 1.75806 7.1151 1.75097L7.11111 1.00098ZM7.11111 1.00098V1.75098H16.8889V1.00098V0.250977H7.11111V1.00098ZM7.11111 12.0853V12.8353H16.8889V12.0853V11.3353H7.11111V12.0853ZM5.88889 8.00162V8.75162H18.1111V8.00162V7.25162H5.88889V8.00162ZM8.33333 16.1691V16.9191H15.6667V16.1691V15.4191H8.33333V16.1691Z" fill="#FFC218"/>
</g>
<defs>
<clipPath id="clip0_2890_92629">
<rect y="0.000976562" width="24" height="24" rx="5" fill="white"/>
</clipPath>
</defs>
</svg>
