<svg width="20" height="20" viewBox="0 0 20 20" fill="none" xmlns="http://www.w3.org/2000/svg">
<g clip-path="url(#clip0_2881_86984)">
<path d="M10 2C5.58157 2 2 5.58157 2 10C2 14.4184 5.58157 18 10 18C14.4184 18 18 14.4184 18 10C18 5.58157 14.4184 2 10 2ZM9.15149 4.93109C10.1995 4.93786 11.133 5.27606 11.9296 5.95622C12.8961 6.78294 13.3922 7.84339 13.4564 9.10827C13.4763 9.38109 13.417 9.61933 13.1799 9.78242C13.0912 9.84579 12.9878 9.88542 12.8795 9.89755C12.7712 9.90968 12.6616 9.8939 12.5611 9.85172C12.4607 9.80954 12.3726 9.74236 12.3055 9.65656C12.2383 9.57077 12.1941 9.46921 12.1773 9.36155C12.1371 9.11654 12.1397 8.86289 12.0905 8.62051C11.9514 7.95385 11.5898 7.35426 11.0652 6.92008C10.5405 6.48589 9.88388 6.24288 9.20297 6.23092C8.82719 6.22265 8.55437 6.0171 8.50289 5.70107C8.4345 5.28132 8.7231 4.92808 9.15149 4.93109ZM5.13025 11.8323C4.79205 11.7801 4.58951 11.4918 4.59702 11.0729C4.6346 8.97036 6.2948 7.14632 8.38489 6.91146C8.57321 6.88949 8.76275 6.8797 8.95232 6.88215C9.28226 6.88816 9.53779 7.14519 9.56823 7.4834C9.57876 7.63927 9.53181 7.79361 9.43626 7.91721C9.3407 8.04081 9.20316 8.12511 9.04965 8.15416C8.79374 8.19663 8.52957 8.19437 8.27667 8.24736C7.61324 8.38837 7.01707 8.74979 6.58522 9.2728C6.15338 9.79581 5.91128 10.4496 5.89835 11.1277C5.88821 11.602 5.56503 11.8992 5.13025 11.8323ZM10.8444 15.7359C9.79031 15.7261 8.85274 15.3842 8.05533 14.6961C7.10198 13.8747 6.61158 12.8225 6.54695 11.5689C6.52591 11.2976 6.57927 11.0567 6.81375 10.8902C6.90244 10.8239 7.00683 10.7819 7.11668 10.7681C7.22654 10.7543 7.33809 10.7693 7.4404 10.8116C7.54271 10.854 7.63226 10.9221 7.70027 11.0095C7.76828 11.0969 7.81242 11.2004 7.82836 11.31C7.86857 11.5606 7.86594 11.8192 7.91855 12.0668C8.20114 13.4196 9.40664 14.4072 10.7906 14.4342C11.2303 14.4432 11.5182 14.7082 11.5125 15.0993C11.5043 15.4601 11.2217 15.7393 10.8444 15.7359ZM14.3767 12.2645C13.55 13.2306 12.4884 13.7262 11.2232 13.7882C10.9755 13.8093 10.7534 13.7582 10.5892 13.5628C10.4318 13.3749 10.3886 13.1543 10.4765 12.924C10.5644 12.6936 10.7395 12.5414 10.9936 12.5076C11.2401 12.4749 11.4922 12.4719 11.7346 12.4212C13.0874 12.1382 14.0772 10.9331 14.105 9.55057C14.1125 9.16689 14.3083 8.89746 14.6221 8.83959C15.0449 8.76105 15.4082 9.05491 15.4052 9.49007C15.3958 10.5355 15.0565 11.4697 14.3756 12.2645H14.3767Z" fill="#96A4B6"/>
</g>
<defs>
<clipPath id="clip0_2881_86984">
<rect width="20" height="20" fill="white"/>
</clipPath>
</defs>
</svg>
