<svg width="20" height="21" viewBox="0 0 20 21" fill="none" xmlns="http://www.w3.org/2000/svg">
<g clip-path="url(#clip0_2890_90284)">
<path d="M8.77316 4.07009C8.65506 4.19182 8.53625 4.31284 8.41923 4.43563C7.96557 4.91337 7.51443 5.39323 7.05825 5.86885C6.83863 6.0982 6.52646 6.15536 6.25247 6.02869C5.97739 5.90167 5.81105 5.6261 5.8719 5.31913C5.90106 5.17271 5.98495 5.01816 6.08865 4.90737C6.96392 3.97129 7.84964 3.04404 8.73212 2.11431C8.87505 1.96365 9.01547 1.81052 9.16129 1.66268C9.37156 1.44957 9.63367 1.44321 9.83926 1.65915C10.8834 2.75471 11.9257 3.85204 12.9638 4.95359C13.2273 5.23339 13.2064 5.66139 12.9378 5.90731C12.6505 6.16982 12.2213 6.1543 11.9398 5.86074C11.4058 5.30396 10.8769 4.74189 10.3455 4.18264C10.3098 4.14489 10.2692 4.11172 10.1921 4.0401C10.1921 4.13783 10.1921 4.19252 10.1921 4.24686C10.1921 5.67021 10.1907 7.09355 10.1932 8.5169C10.1957 9.98788 11.3641 11.1247 12.8655 11.1459C13.1427 11.1498 13.2799 11.0901 13.4016 10.8202C13.8718 9.77723 15.0311 9.24551 16.1592 9.51261C17.2847 9.77935 18.0415 10.7754 18.0019 11.938C17.9645 13.0304 17.1011 13.9771 15.9723 14.1627C14.8605 14.3458 13.7299 13.716 13.3324 12.679C13.2752 12.5294 13.2032 12.4923 13.0487 12.4944C11.3943 12.516 10.1327 11.8378 9.30243 10.4279C8.96651 9.85733 8.81349 9.23139 8.81385 8.57053C8.81421 7.14119 8.81349 5.71219 8.81313 4.28285C8.81313 4.21863 8.81313 4.15477 8.81313 4.09055C8.7998 4.08385 8.78648 4.07715 8.77316 4.07044V4.07009ZM15.5694 10.8029C15.0063 10.8075 14.5411 11.2704 14.5447 11.8237C14.5483 12.3833 15.0229 12.8374 15.5997 12.8335C16.1606 12.8296 16.6283 12.3628 16.6233 11.8117C16.6182 11.2479 16.1484 10.7983 15.5694 10.8029Z" fill="#243A57"/>
<path d="M8.80295 11.5495C8.75398 11.5771 8.72734 11.588 8.7061 11.6049C7.90751 12.239 6.98975 12.5262 5.96794 12.4941C5.79655 12.4888 5.72382 12.5424 5.66153 12.6998C5.25216 13.7343 4.10109 14.361 3.00763 14.1581C1.83135 13.94 1.00108 12.9761 1 11.8269C0.998921 10.6851 1.82811 9.6908 2.9529 9.4858C4.12557 9.27198 5.26044 9.89121 5.67918 10.9836C5.72922 11.1138 5.79655 11.1385 5.92689 11.1431C6.9001 11.1762 7.69652 10.8411 8.29528 10.0786C8.30536 10.0659 8.32193 10.0585 8.32733 10.0546C8.49511 10.3725 8.64777 10.6974 8.83283 11.0037C9.14499 11.5213 9.56445 11.9486 10.0631 12.2976C10.1567 12.3632 10.1931 12.4309 10.1924 12.5438C10.1873 13.2495 10.1935 13.9555 10.1863 14.6612C10.1848 14.8009 10.2291 14.8627 10.3641 14.9135C11.477 15.3327 12.0916 16.4314 11.8742 17.5961C11.6725 18.6765 10.655 19.4965 9.51152 19.5C8.35973 19.5039 7.34008 18.6917 7.12693 17.6011C6.90154 16.4469 7.52226 15.3291 8.63157 14.9167C8.78027 14.8613 8.81411 14.79 8.81339 14.6496C8.80835 13.6673 8.81051 12.685 8.81015 11.703C8.81015 11.6625 8.80655 11.6222 8.80331 11.5499L8.80295 11.5495ZM9.50252 18.1395C10.0793 18.1381 10.5456 17.6769 10.5398 17.1145C10.5341 16.562 10.0649 16.1107 9.49712 16.1117C8.93005 16.1128 8.4591 16.5704 8.4591 17.1198C8.4591 17.6836 8.92752 18.1409 9.50252 18.1395ZM3.4242 10.804C2.85064 10.7984 2.3797 11.2556 2.37826 11.8202C2.37682 12.3692 2.84632 12.8296 3.4116 12.8332C3.98371 12.8367 4.45718 12.3752 4.45682 11.8142C4.45682 11.2602 3.9956 10.8093 3.4242 10.8037V10.804Z" fill="#243A57"/>
</g>
<defs>
<clipPath id="clip0_2890_90284">
<rect width="17" height="18" fill="white" transform="translate(1 1.5)"/>
</clipPath>
</defs>
</svg>
