<svg width="24" height="24" viewBox="0 0 24 24" fill="none" xmlns="http://www.w3.org/2000/svg">
<g clip-path="url(#clip0_2890_89345)">
<path d="M11.1428 4.08542C11.0039 4.23156 10.8641 4.37685 10.7264 4.52425C10.1927 5.09779 9.66197 5.67386 9.12529 6.24486C8.8669 6.52019 8.49966 6.58881 8.17731 6.43674C7.85369 6.28425 7.65799 5.95343 7.72958 5.58491C7.76389 5.40912 7.86258 5.22359 7.98458 5.09059C9.01431 3.96682 10.0563 2.85363 11.0945 1.73749C11.2627 1.55662 11.4279 1.37278 11.5995 1.1953C11.8468 0.939453 12.1552 0.931828 12.3971 1.19106C13.6255 2.50629 14.8517 3.82364 16.0729 5.14608C16.383 5.48198 16.3584 5.99579 16.0424 6.29103C15.7044 6.60618 15.1995 6.58754 14.8683 6.23512C14.2401 5.5667 13.6178 4.89193 12.9926 4.22054C12.9507 4.17522 12.9028 4.1354 12.8122 4.04942C12.8122 4.16675 12.8122 4.2324 12.8122 4.29764C12.8122 6.00638 12.8105 7.71512 12.8134 9.42386C12.8164 11.1898 14.1909 12.5546 15.9573 12.58C16.2835 12.5847 16.4448 12.5131 16.588 12.189C17.1412 10.9369 18.5052 10.2986 19.8323 10.6192C21.1564 10.9395 22.0468 12.1352 22.0002 13.5309C21.9561 14.8424 20.9404 15.9788 19.6124 16.2017C18.3044 16.4215 16.9743 15.6654 16.5067 14.4205C16.4393 14.2409 16.3546 14.1964 16.1729 14.1989C14.2265 14.2248 12.7423 13.4106 11.7655 11.718C11.3703 11.0331 11.1903 10.2816 11.1907 9.48825C11.1911 7.77231 11.1903 6.05679 11.1898 4.34084C11.1898 4.26375 11.1898 4.18708 11.1898 4.10999C11.1742 4.10194 11.1585 4.09389 11.1428 4.08584V4.08542ZM19.1384 12.1683C18.4759 12.1738 17.9287 12.7295 17.9329 13.3937C17.9371 14.0655 18.4954 14.6107 19.174 14.606C19.8339 14.6013 20.3842 14.0409 20.3783 13.3793C20.3723 12.7024 19.8195 12.1628 19.1384 12.1683Z" fill="#B318CC"/>
<path d="M11.1799 13.0645C11.1223 13.0976 11.091 13.1107 11.066 13.131C10.1265 13.8922 9.04676 14.237 7.84463 14.1985C7.643 14.1921 7.55744 14.2565 7.48416 14.4454C7.00254 15.6874 5.64834 16.4397 4.36191 16.1961C2.97806 15.9343 2.00127 14.7771 2 13.3975C1.99873 12.0268 2.97425 10.8331 4.29753 10.587C5.67714 10.3303 7.01229 11.0737 7.50492 12.3851C7.56379 12.5414 7.643 12.5711 7.79634 12.5766C8.94129 12.6164 9.87826 12.214 10.5827 11.2986C10.5945 11.2834 10.614 11.2745 10.6204 11.2698C10.8178 11.6515 10.9974 12.0416 11.2151 12.4093C11.5823 13.0307 12.0758 13.5436 12.6625 13.9625C12.7726 14.0413 12.8154 14.1227 12.8146 14.2582C12.8086 15.1054 12.8158 15.953 12.8074 16.8001C12.8057 16.9679 12.8578 17.042 13.0166 17.103C14.3259 17.6062 15.049 18.9253 14.7931 20.3235C14.5559 21.6205 13.3589 22.6049 12.0136 22.6092C10.6585 22.6138 9.45891 21.6387 9.20815 20.3294C8.94299 18.9439 9.67325 17.602 10.9783 17.1068C11.1533 17.0403 11.1931 16.9547 11.1922 16.7862C11.1863 15.6069 11.1888 14.4276 11.1884 13.2488C11.1884 13.2001 11.1842 13.1518 11.1804 13.065L11.1799 13.0645ZM12.003 20.9758C12.6815 20.9741 13.2301 20.4205 13.2233 19.7453C13.2165 19.082 12.6646 18.5402 11.9966 18.5415C11.3295 18.5428 10.7754 19.0922 10.7754 19.7517C10.7754 20.4286 11.3265 20.9775 12.003 20.9758ZM4.852 12.1695C4.17723 12.1627 3.62318 12.7117 3.62149 13.3894C3.61979 14.0485 4.17215 14.6013 4.83718 14.6055C5.51025 14.6098 6.06727 14.0557 6.06684 13.3822C6.06684 12.7172 5.52423 12.1759 4.852 12.1691V12.1695Z" fill="#B318CC"/>
</g>
<defs>
<clipPath id="clip0_2890_89345">
<rect width="20" height="21.6092" fill="white" transform="translate(2 1)"/>
</clipPath>
</defs>
</svg>
