<svg width="24" height="24" viewBox="0 0 24 24" fill="none" xmlns="http://www.w3.org/2000/svg">
<path d="M2.39941 1.25049H21.5996C22.2318 1.2507 22.749 1.76862 22.749 2.40088V21.6011C22.7488 22.2332 22.2317 22.7503 21.5996 22.7505H2.39941C1.76716 22.7505 1.24924 22.2333 1.24902 21.6011V2.40088C1.24902 1.76849 1.76703 1.25049 2.39941 1.25049ZM3.54883 20.4507H20.4492V3.55029H3.54883V20.4507ZM11.999 15.6509H16.7988C17.4311 15.6509 17.949 16.1681 17.9492 16.8003C17.9492 17.4327 17.4312 17.9507 16.7988 17.9507H11.999C11.3667 17.9506 10.8496 17.4326 10.8496 16.8003C10.8498 16.1681 11.3669 15.651 11.999 15.6509ZM8.34961 15.6509V17.9507H6.04883V15.6509H8.34961ZM11.999 10.8511H16.7988C17.4311 10.8511 17.9491 11.3682 17.9492 12.0005C17.9492 12.6329 17.4312 13.1509 16.7988 13.1509H11.999C11.3667 13.1508 10.8496 12.6328 10.8496 12.0005C10.8497 11.3683 11.3668 10.8512 11.999 10.8511ZM8.34961 10.8511V13.1509H6.04883V10.8511H8.34961ZM11.999 6.05029H16.7988C17.4312 6.05029 17.9492 6.5683 17.9492 7.20068C17.9492 7.83307 17.4312 8.35107 16.7988 8.35107H11.999C11.3667 8.35097 10.8496 7.833 10.8496 7.20068C10.8496 6.56836 11.3667 6.0504 11.999 6.05029ZM8.34961 6.05029V8.35107H6.04883V6.05029H8.34961Z" fill="#51CC18" stroke="white" stroke-width="0.1"/>
</svg>
