<svg width="20" height="20" viewBox="0 0 20 20" fill="none" xmlns="http://www.w3.org/2000/svg">
<path d="M1.66797 12.2248C1.66797 12.6669 1.84356 13.0908 2.15612 13.4033C2.46868 13.7159 2.89261 13.8915 3.33464 13.8915C3.77666 13.8915 4.20059 13.7159 4.51315 13.4033C4.82571 13.0908 5.0013 12.6669 5.0013 12.2248V10.5582H3.33464C2.89261 10.5582 2.46868 10.7338 2.15612 11.0463C1.84356 11.3589 1.66797 11.7828 1.66797 12.2248ZM12.2013 9.4415C12.6433 9.4415 13.0673 9.26591 13.3798 8.95335C13.6924 8.64079 13.868 8.21687 13.868 7.77484V3.33317C13.868 2.89114 13.6924 2.46722 13.3798 2.15466C13.0673 1.8421 12.6433 1.6665 12.2013 1.6665C11.7593 1.6665 11.3354 1.8421 11.0228 2.15466C10.7102 2.46722 10.5346 2.89114 10.5346 3.33317V7.77484C10.5346 7.99512 10.5783 8.21321 10.6631 8.41652C10.7479 8.61982 10.8721 8.8043 11.0287 8.95928C11.1852 9.11427 11.3709 9.23668 11.575 9.31945C11.7792 9.40222 11.9977 9.44371 12.218 9.4415H12.2013ZM18.3013 7.77484C18.3013 7.33281 18.1257 6.90889 17.8131 6.59633C17.5006 6.28377 17.0767 6.10817 16.6346 6.10817C16.1926 6.10817 15.7687 6.28377 15.4561 6.59633C15.1436 6.90889 14.968 7.33281 14.968 7.77484V9.4415H16.6346C16.8563 9.44594 17.0766 9.4061 17.2827 9.32433C17.4888 9.24256 17.6764 9.1205 17.8348 8.96529C17.9931 8.81008 18.1188 8.62485 18.2047 8.42044C18.2905 8.21602 18.3347 7.99654 18.3346 7.77484H18.3013ZM7.78464 10.5582C7.34261 10.5582 6.91868 10.7338 6.60612 11.0463C6.29356 11.3589 6.11797 11.7828 6.11797 12.2248V16.6665C6.11797 17.1085 6.29356 17.5325 6.60612 17.845C6.91868 18.1576 7.34261 18.3332 7.78464 18.3332C8.22666 18.3332 8.65059 18.1576 8.96315 17.845C9.27571 17.5325 9.4513 17.1085 9.4513 16.6665V12.2248C9.4513 11.7828 9.27571 11.3589 8.96315 11.0463C8.65059 10.7338 8.22666 10.5582 7.78464 10.5582ZM12.218 14.9998H10.5513V16.6665C10.5513 16.9961 10.6491 17.3184 10.8322 17.5925C11.0153 17.8665 11.2756 18.0802 11.5802 18.2063C11.8847 18.3325 12.2198 18.3655 12.5431 18.3011C12.8664 18.2368 13.1634 18.0781 13.3965 17.845C13.6296 17.6119 13.7883 17.315 13.8526 16.9917C13.9169 16.6684 13.8839 16.3332 13.7578 16.0287C13.6316 15.7242 13.418 15.4639 13.1439 15.2807C12.8698 15.0976 12.5476 14.9998 12.218 14.9998ZM16.668 10.5582H12.218C11.7759 10.5582 11.352 10.7338 11.0395 11.0463C10.7269 11.3589 10.5513 11.7828 10.5513 12.2248C10.5513 12.6669 10.7269 13.0908 11.0395 13.4033C11.352 13.7159 11.7759 13.8915 12.218 13.8915H16.668C17.11 13.8915 17.5339 13.7159 17.8465 13.4033C18.159 13.0908 18.3346 12.6669 18.3346 12.2248C18.3346 11.7828 18.159 11.3589 17.8465 11.0463C17.5339 10.7338 17.11 10.5582 16.668 10.5582ZM7.78464 6.10817H3.33464C2.89261 6.10817 2.46868 6.28377 2.15612 6.59633C1.84356 6.90889 1.66797 7.33281 1.66797 7.77484C1.66797 8.21687 1.84356 8.64079 2.15612 8.95335C2.46868 9.26591 2.89261 9.4415 3.33464 9.4415H7.78464C8.22666 9.4415 8.65059 9.26591 8.96315 8.95335C9.27571 8.64079 9.4513 8.21687 9.4513 7.77484C9.4513 7.33281 9.27571 6.90889 8.96315 6.59633C8.65059 6.28377 8.22666 6.10817 7.78464 6.10817ZM7.78464 1.6665C7.34261 1.6665 6.91868 1.8421 6.60612 2.15466C6.29356 2.46722 6.11797 2.89114 6.11797 3.33317C6.11797 3.7752 6.29356 4.19912 6.60612 4.51168C6.91868 4.82424 7.34261 4.99984 7.78464 4.99984H9.4513V3.33317C9.4513 2.89114 9.27571 2.46722 8.96315 2.15466C8.65059 1.8421 8.22666 1.6665 7.78464 1.6665Z" fill="#243A57"/>
</svg>
