<svg xmlns="http://www.w3.org/2000/svg" width="290" height="86" fill="none"><path fill="#000" d="M0 15C0 6.716 6.694 0 14.978 0H75.9c8.798 0 14.192 13.45 20.724 13.45h100.754c9.053 0 10.761-13.45 19.378-13.45h58.251C283.291 0 290 6.716 290 15v56c0 8.284-6.716 15-15 15H15C6.716 86 0 79.284 0 71z"/><path fill="#fff" d="M0 15C0 6.716 6.694 0 14.978 0H75.9c8.798 0 14.192 13.45 20.724 13.45h100.754c9.053 0 10.761-13.45 19.378-13.45h58.251C283.291 0 290 6.716 290 15v56c0 8.284-6.716 15-15 15H15C6.716 86 0 79.284 0 71z"/></svg>