<svg xmlns="http://www.w3.org/2000/svg" width="292" height="118" fill="none"><path fill="url(#a)" stroke="#D2D8E0" d="M291.5 102V27.242c0-8.56-6.921-15.5-15.483-15.5h-61.261c-3.754 0-6.226-1.705-8.667-3.886-.48-.428-.96-.878-1.45-1.336-1.983-1.855-4.117-3.851-6.973-5.18-1.432-.666-3.005-.84-4.512-.84h-89.531c-1.357 0-2.78.15-4.078.757-1.628.762-3.129 1.816-4.576 2.95-.685.537-1.362 1.095-2.036 1.65l-.117.097a92 92 0 0 1-2.15 1.734c-2.897 2.245-5.922 4.054-9.766 4.054H15.99c-8.562 0-15.49 6.94-15.49 15.5V102c0 8.56 6.94 15.5 15.5 15.5h260c8.56 0 15.5-6.94 15.5-15.5Z"/><defs><linearGradient id="a" x1="8" x2="194.056" y1="10.5" y2="210.283" gradientUnits="userSpaceOnUse"><stop stop-color="#DDE8FF"/><stop offset=".536" stop-color="#9FBDFF"/><stop offset=".74" stop-color="#5388FF"/></linearGradient></defs></svg>